<svg width="480" height="480" viewBox="0 0 480 480" fill="none" xmlns="http://www.w3.org/2000/svg">
<path fill-rule="evenodd" clip-rule="evenodd" d="M307.276 2.21134C297.357 3.62401 244.338 10.8574 189.458 18.2849C134.576 25.711 89.2025 32.2813 88.6267 32.8834C88.051 33.4871 67.8726 86.3382 43.7848 150.332C10.1579 239.666 -0.0097042 268.126 6.94833e-06 272.896C0.0124927 278.823 0.82268 280.051 17.6327 299.653C35.6122 320.618 170.338 478.026 171.955 479.956C172.445 480.54 196.537 475.2 225.494 468.088C254.45 460.975 309.974 447.352 348.881 437.814L419.619 420.471L421.396 414.259C422.373 410.843 430.382 381.268 439.195 348.537C481.271 192.269 479.996 197.33 479.996 186.5V176.289L456.341 124.971C443.332 96.747 431.626 72.57 430.329 71.2438C427.686 68.5431 328.87 0.63714 326.698 0.0292806C325.935 -0.184675 317.195 0.797252 307.276 2.21134ZM330.801 9.12592C332.773 11.0203 335.268 12.7008 336.342 12.8623C337.417 13.0225 357.617 26.4478 381.232 42.6956C416.608 67.0355 423.649 72.4099 421.214 73.2218C419.59 73.7645 412.446 75.112 405.341 76.22C393.64 78.0422 392.206 78.0153 390.158 75.9423C388.074 73.8353 387.965 73.8424 388.779 76.0386C389.876 79 395.387 77.9062 322.536 89.1976C289.727 94.2829 257.186 99.4009 250.224 100.571C234.506 103.215 233.351 103.249 235.552 101.001C239.03 97.4483 237.038 96.6747 233.402 100.165C230.095 103.34 226.908 104.24 209.471 106.923C198.407 108.626 186.234 110.548 182.418 111.194C177.645 112.002 174.858 111.854 173.481 110.722C172.008 109.511 171.733 109.506 172.435 110.704C173.44 112.415 168.955 113.416 141.64 117.573C133.709 118.78 127.007 119.549 126.746 119.283C126.259 118.786 107.981 75.3798 98.4336 52.0459C95.4842 44.8366 93.7029 38.9394 94.4729 38.9394C95.2442 38.9394 95.5217 38.3542 95.0874 37.6372C94.015 35.8647 93.4893 35.9482 167.158 26.0907C203.02 21.2916 252.027 14.6803 276.062 11.3972C300.097 8.11282 321.438 5.48443 323.487 5.55528C325.536 5.62612 328.827 7.23291 330.801 9.12592ZM316.987 10.6009C315.597 12.1695 314.773 13.7706 315.155 14.1602C315.536 14.5499 316.984 13.5864 318.375 12.0179C319.765 10.4493 320.589 8.8482 320.207 8.45855C319.826 8.0689 318.377 9.0324 316.987 10.6009ZM338.296 17.252C340.065 20.6965 342.652 22.8176 342.652 20.8226C342.652 20.1184 341.314 18.3274 339.675 16.8425C336.72 14.1617 336.711 14.1645 338.296 17.252ZM309.919 19.4567L307.276 22.6448L310.398 19.9455C312.115 18.4606 313.519 17.0267 313.519 16.7575C313.519 15.6239 312.402 16.4613 309.919 19.4567ZM346.268 26.4024C347.713 28.4697 349.173 29.8867 349.511 29.5508C349.851 29.2165 348.669 27.5247 346.884 25.7932L343.64 22.6448L346.268 26.4024ZM301.727 27.604C300.346 29.1626 299.787 30.4378 300.484 30.4378C301.182 30.4378 302.533 29.1626 303.486 27.604C304.439 26.0454 304.998 24.7702 304.728 24.7702C304.458 24.7702 303.107 26.0454 301.727 27.604ZM352.364 32.8622C352.364 33.6755 353.455 35.2171 354.791 36.2869C357.037 38.085 357.066 38.0184 355.184 35.3971C354.064 33.8385 352.973 32.2983 352.756 31.9724C352.54 31.6479 352.364 32.0489 352.364 32.8622ZM294.069 35.4311C291.389 38.7311 293.3 39.3517 296.169 36.114C297.555 34.5512 298.044 33.2717 297.256 33.2717C296.469 33.2717 295.034 34.2437 294.069 35.4311ZM109.432 82.4658C117.91 102.898 124.845 119.992 124.845 120.451C124.845 120.911 114.701 133.58 102.301 148.606C89.9031 163.631 63.9882 195.084 44.7129 218.5C25.4391 241.916 8.81912 261.794 7.78141 262.674C6.74371 263.554 25.0007 213.589 48.3546 151.641C85.6745 52.6424 91.0087 39.39 92.4169 42.1629C93.2992 43.8972 100.956 62.0324 109.432 82.4658ZM286.466 43.1901C285.076 44.7587 284.252 46.3598 284.634 46.7495C285.015 47.1391 286.464 46.1756 287.854 44.6071C289.244 43.0385 290.068 41.4374 289.686 41.0478C289.305 40.6581 287.857 41.6216 286.466 43.1901ZM359.3 41.47C359.3 42.1742 360.639 43.9652 362.277 45.4501C365.232 48.131 365.242 48.1281 363.656 45.0406C361.887 41.5961 359.3 39.475 359.3 41.47ZM100.567 44.6071C101.948 46.1657 103.39 47.4409 103.772 47.4409C104.153 47.4409 103.335 46.1657 101.955 44.6071C100.574 43.0484 99.1314 41.7732 98.7499 41.7732C98.3684 41.7732 99.1869 43.0484 100.567 44.6071ZM106.81 49.8823C106.81 51.6648 110.775 55.1986 111.707 54.2464C112.075 53.8709 111.125 52.4058 109.593 50.9917C108.063 49.5762 106.81 49.0775 106.81 49.8823ZM278.974 52.0459C277.063 55.2226 277.066 55.2241 280.027 52.5347C283.206 49.6471 283.617 48.8578 281.945 48.8578C281.365 48.8578 280.028 50.2932 278.974 52.0459ZM366.237 49.8355C366.237 50.6148 367.485 52.4072 369.011 53.8171C370.537 55.2269 371.786 55.7441 371.786 54.9648C371.786 54.1855 370.537 52.3931 369.011 50.9832C367.485 49.5734 366.237 49.0562 366.237 49.8355ZM117.083 59.992C119.911 63.2396 120.683 63.659 120.683 61.9516C120.683 61.3593 119.278 59.9934 117.562 58.9166C114.451 56.9655 114.45 56.9683 117.083 59.992ZM271.074 60.5474L268.431 63.7355L271.553 61.0363C273.27 59.5513 274.674 58.1174 274.674 57.8482C274.674 56.7147 273.558 57.5521 271.074 60.5474ZM374.366 59.7596C376.135 63.2042 378.722 65.3253 378.722 63.3303C378.722 62.6261 377.384 60.8351 375.745 59.3501C372.79 56.6693 372.781 56.6722 374.366 59.7596ZM124.152 67.2778C125.532 68.8364 127.287 70.1117 128.05 70.1117C128.813 70.1117 128.307 68.8364 126.926 67.2778C125.546 65.7192 123.791 64.444 123.028 64.444C122.265 64.444 122.771 65.7192 124.152 67.2778ZM264.27 67.2778C262.879 68.8464 262.055 70.4475 262.437 70.8371C262.818 71.2268 264.267 70.2633 265.657 68.6947C267.047 67.1262 267.871 65.5251 267.489 65.1354C267.108 64.7458 265.66 65.7093 264.27 67.2778ZM382.338 68.9101C383.783 70.9774 385.243 72.3943 385.581 72.0585C385.921 71.7241 384.739 70.0323 382.954 68.3008L379.71 65.1524L382.338 68.9101ZM132.783 74.4673C134.479 76.271 136.216 77.3904 136.641 76.9554C137.069 76.519 135.681 75.044 133.559 73.6752L129.701 71.1871L132.783 74.4673ZM255.954 75.7708C254.568 77.3337 254.08 78.6132 254.868 78.6132C256.613 78.6132 260.073 74.5636 259.141 73.6115C258.773 73.236 257.339 74.2066 255.954 75.7708ZM427.837 77.5505C427.278 79.3032 425.076 86.7874 422.943 94.1809C420.81 101.573 418.452 107.832 417.702 108.087C416.95 108.343 416.649 109.386 417.033 110.408C417.416 111.428 412.957 128.761 407.125 148.927C401.291 169.092 388.434 213.646 378.55 247.935C354.454 331.537 356.874 324.483 353.379 321.35L350.514 318.781L352.991 323.154C355.443 327.484 355.411 327.722 349.614 347.95C346.395 359.184 343.304 369.22 342.745 370.253C342.053 371.533 332.768 361.595 313.617 339.08C298.156 320.903 283.536 303.785 281.131 301.042C250.014 265.566 185.088 188.136 184.748 186.094C184.502 184.624 183.771 183.757 183.123 184.167C182.475 184.575 171.503 172.63 158.738 157.621C145.974 142.611 133.953 128.584 132.023 126.448C130.095 124.315 128.81 122.266 129.171 121.897C129.974 121.078 173.928 113.795 175.643 114.198C176.317 114.356 177.806 114.12 178.95 113.672C180.095 113.224 190.083 111.511 201.147 109.865C212.211 108.22 222.807 106.524 224.694 106.097C228.084 105.331 228.094 105.356 225.519 108.262C224.086 109.879 223.599 111.202 224.437 111.202C225.275 111.202 226.864 109.887 227.965 108.281C229.759 105.664 240.025 103.758 326.196 90.0393C379.121 81.6142 423.869 74.6401 425.637 74.541C428.373 74.3894 428.7 74.8385 427.837 77.5505ZM459.404 142.933C467.323 160.143 471.87 171.471 470.268 169.989C468.752 168.588 467.51 168.078 467.51 168.857C467.51 170.644 473.047 175.861 473.095 174.121C473.116 173.415 474.299 175.389 475.726 178.506C478.303 184.14 478.301 184.191 475.343 186.889C472.785 189.221 472.732 189.467 474.961 188.639C476.98 187.888 477.41 188.229 476.901 190.175C476.54 191.55 462.907 242.265 446.605 302.875C423.57 388.517 416.533 412.905 415.031 412.315C413.749 411.814 413.362 412.266 413.884 413.654C414.316 414.806 414.093 416.114 413.388 416.56C412.283 417.258 326.852 438.431 218.716 464.807C201.291 469.056 186.483 472.186 185.808 471.759C185.133 471.333 182.721 471.968 180.447 473.168C174.551 476.282 173.638 475.959 172.616 470.392C172.115 467.665 171.17 465.433 170.515 465.433C169.862 465.433 169.676 466.549 170.103 467.913C171.237 471.523 170.56 470.752 84.9365 370.853C33.5687 310.92 7.74118 279.776 9.34491 279.7C10.8279 279.63 10.0178 278.797 7.27088 277.572C4.79038 276.464 2.76214 274.749 2.76214 273.762C2.76214 271.862 124.643 123.246 126.201 123.246C128.345 123.246 181.71 187.237 181.737 189.842C181.755 191.576 182.163 192.049 182.786 191.06C183.42 190.056 190.631 197.479 201.841 210.67C211.76 222.343 233.091 247.299 249.244 266.129C275.701 296.968 278.381 300.554 276.296 302.31C274.21 304.065 274.297 304.181 277.174 303.486C279.941 302.817 284.19 307.198 308.957 336.252C324.683 354.699 338.422 370.841 339.491 372.123C341.244 374.228 334.922 378.449 274.412 415.574C237.55 438.191 202.519 459.692 196.566 463.353C190.613 467.014 186.017 470.289 186.351 470.63C186.686 470.972 221.717 449.857 264.199 423.709C306.681 397.561 342.039 376.167 342.773 376.167C343.506 376.167 359.447 385.137 378.197 396.101C396.947 407.066 412.557 415.761 412.889 415.424C413.219 415.087 397.863 405.721 378.764 394.611C359.666 383.502 344.04 374.078 344.04 373.672C344.04 372.882 347.583 360.362 353.326 340.85L356.842 328.912L359.561 332.348C362.438 335.986 362.423 335.24 359.497 329.318C357.895 326.073 358.692 322.225 366.998 293.186C373.671 269.854 377.124 259.951 379.241 258.076C381.344 256.214 381.533 255.677 379.902 256.206C377.937 256.842 377.79 256.308 378.865 252.441C394.38 196.624 419.086 114.828 420.339 115.134C421.36 115.384 421.611 114.473 421.034 112.614C420.509 110.929 422.044 103.011 424.674 93.8168L429.22 77.9302L437.501 95.629C442.056 105.363 451.911 126.65 459.404 142.933ZM138.718 80.689C138.718 81.0503 140.124 82.1116 141.84 83.0467C144.67 84.5869 144.784 84.5246 143.058 82.3879C141.285 80.1931 138.718 79.1885 138.718 80.689ZM248.877 84.6351L246.235 87.8232L249.356 85.1239C251.073 83.639 252.477 82.2051 252.477 81.9359C252.477 80.8023 251.361 81.6397 248.877 84.6351ZM395.37 83.9777C395.37 84.6819 396.709 86.4729 398.347 87.9578C401.302 90.6386 401.312 90.6358 399.726 87.5483C397.957 84.1038 395.37 81.9826 395.37 83.9777ZM149.131 89.9571C150.516 91.5213 151.95 92.4919 152.318 92.1165C153.25 91.1643 149.79 87.1147 148.045 87.1147C147.257 87.1147 147.745 88.3942 149.131 89.9571ZM240.554 93.1366L237.911 96.3247L241.032 93.6255C242.75 92.1405 244.154 90.7066 244.154 90.4374C244.154 89.3039 243.037 90.1413 240.554 93.1366ZM402.307 92.3432C402.307 93.1225 403.555 94.9149 405.081 96.3247C406.607 97.7346 407.856 98.2517 407.856 97.4724C407.856 96.6931 406.607 94.9007 405.081 93.4909C403.555 92.081 402.307 91.5639 402.307 92.3432ZM155.366 95.2748C155.366 95.8671 156.771 97.233 158.487 98.3098C161.598 100.261 161.599 100.258 158.966 97.2344C156.139 93.9868 155.366 93.5674 155.366 95.2748ZM411.345 103.099C412.685 105.267 414.129 106.684 414.556 106.247C414.982 105.812 413.886 104.038 412.12 102.307L408.909 99.1586L411.345 103.099ZM165.779 105.543C167.164 107.107 168.598 108.078 168.966 107.703C169.898 106.75 166.438 102.701 164.693 102.701C163.905 102.701 164.393 103.98 165.779 105.543ZM218.587 116.262C215.417 119.501 215.912 120.601 219.182 117.579C220.708 116.169 221.957 114.794 221.957 114.525C221.957 113.472 220.671 114.135 218.587 116.262ZM180.337 117.895C180.337 119.677 184.302 123.211 185.235 122.259C185.602 121.883 184.652 120.418 183.12 119.004C181.59 117.588 180.337 117.09 180.337 117.895ZM424.504 118.114C424.504 118.797 425.543 120.232 426.812 121.302C428.904 123.065 428.965 122.949 427.457 120.058C425.737 116.761 424.504 115.949 424.504 118.114ZM210.033 125.726L207.39 128.914L210.511 126.215C212.229 124.73 213.633 123.296 213.633 123.027C213.633 121.893 212.516 122.73 210.033 125.726ZM190.742 128.205C192.123 129.764 193.565 131.039 193.947 131.039C194.328 131.039 193.51 129.764 192.13 128.205C190.749 126.647 189.306 125.372 188.925 125.372C188.543 125.372 189.362 126.647 190.742 128.205ZM431.44 126.349C431.44 127.129 432.689 128.921 434.215 130.331C435.741 131.741 436.989 132.258 436.989 131.479C436.989 130.699 435.741 128.907 434.215 127.497C432.689 126.087 431.44 125.57 431.44 126.349ZM203.199 132.49C201.466 134.446 200.206 134.896 199.238 133.907C196.579 131.191 195.157 132.443 197.675 135.284C200.383 138.341 202.706 137.423 205.434 132.218C207.214 128.822 206.356 128.925 203.199 132.49ZM438.377 134.851C438.377 135.63 439.625 137.423 441.151 138.832C442.677 140.242 443.926 140.759 443.926 139.98C443.926 139.201 442.677 137.408 441.151 135.999C439.625 134.589 438.377 134.072 438.377 134.851ZM202.534 139.368C202.534 140.051 203.573 141.486 204.843 142.556C206.935 144.319 206.996 144.203 205.488 141.312C203.768 138.015 202.534 137.203 202.534 139.368ZM196.985 144.5C196.179 146.665 195.832 148.754 196.214 149.143C196.595 149.533 197.566 148.082 198.372 145.917C199.178 143.752 199.525 141.663 199.144 141.274C198.762 140.884 197.791 142.335 196.985 144.5ZM447.415 145.607C448.755 147.775 450.199 149.191 450.626 148.755C451.052 148.32 449.956 146.546 448.19 144.815L444.979 141.666L447.415 145.607ZM209.471 147.603C209.471 148.382 210.719 150.175 212.246 151.585C213.772 152.995 215.02 153.512 215.02 152.732C215.02 151.953 213.772 150.161 212.246 148.751C210.719 147.341 209.471 146.824 209.471 147.603ZM454.331 153.71C455.711 155.269 457.062 156.544 457.331 156.544C457.602 156.544 457.043 155.269 456.09 153.71C455.137 152.151 453.785 150.876 453.088 150.876C452.391 150.876 452.95 152.151 454.331 153.71ZM193.689 154.474C193.213 155.739 192.863 157.52 192.911 158.431C192.959 159.341 193.597 158.559 194.328 156.693C195.06 154.825 195.409 153.046 195.105 152.735C194.802 152.425 194.163 153.207 193.689 154.474ZM217.601 157.527C219.369 160.972 221.957 163.093 221.957 161.098C221.957 160.394 220.618 158.603 218.98 157.118C216.025 154.437 216.015 154.44 217.601 157.527ZM460.573 160.622C460.573 161.305 461.613 162.74 462.882 163.81C464.974 165.573 465.035 165.456 463.527 162.566C461.807 159.269 460.573 158.457 460.573 160.622ZM189.355 166.462C188.835 168.139 188.72 169.829 189.101 170.219C189.483 170.608 190.222 169.555 190.742 167.879C191.263 166.203 191.378 164.513 190.996 164.123C190.615 163.733 189.875 164.786 189.355 166.462ZM225.572 166.678C227.018 168.745 228.477 170.162 228.816 169.826C229.155 169.492 227.973 167.8 226.188 166.068L222.944 162.92L225.572 166.678ZM232.361 174.964C233.742 176.523 235.11 177.798 235.4 177.798C235.69 177.798 235.26 176.523 234.442 174.964C233.625 173.405 232.259 172.13 231.404 172.13C230.55 172.13 230.981 173.405 232.361 174.964ZM186.322 176.027C185.848 177.391 185.197 179.144 184.877 179.923C184.556 180.702 185.276 180.102 186.478 178.59C188.659 175.842 189.317 173.547 187.925 173.547C187.518 173.547 186.798 174.662 186.322 176.027ZM238.604 181.656C238.604 183.438 242.569 186.972 243.502 186.02C243.869 185.645 242.919 184.18 241.387 182.765C239.857 181.35 238.604 180.851 238.604 181.656ZM245.541 190.111C245.541 190.89 246.789 192.682 248.316 194.092C249.842 195.502 251.09 196.019 251.09 195.24C251.09 194.461 249.842 192.668 248.316 191.258C246.789 189.849 245.541 189.331 245.541 190.111ZM465.945 194.325C464.219 196.461 464.333 196.524 467.163 194.984C470.391 193.227 471.186 191.967 469.067 191.967C468.398 191.967 466.993 193.028 465.945 194.325ZM178.95 196.102C178.95 196.817 178.533 198.516 178.021 199.876C177.437 201.432 177.632 202.009 178.546 201.432C180.465 200.221 181.822 194.801 180.207 194.801C179.516 194.801 178.95 195.386 178.95 196.102ZM254.187 200.468C255.14 202.027 256.491 203.302 257.189 203.302C257.885 203.302 257.326 202.027 255.946 200.468C254.565 198.91 253.214 197.635 252.945 197.635C252.674 197.635 253.234 198.91 254.187 200.468ZM456.973 200.675C454.349 203.693 454.351 203.703 457.374 202.084C460.747 200.277 462.824 197.635 460.87 197.635C460.181 197.635 458.427 199.002 456.973 200.675ZM175.482 207.553C174.962 209.229 174.846 210.92 175.228 211.309C175.61 211.699 176.349 210.646 176.869 208.97C177.389 207.294 177.505 205.603 177.123 205.214C176.742 204.824 176.002 205.877 175.482 207.553ZM448.088 206.845C447.125 208.031 446.974 208.97 447.748 208.97C448.511 208.97 449.912 208.014 450.862 206.845C451.825 205.659 451.976 204.719 451.202 204.719C450.439 204.719 449.038 205.676 448.088 206.845ZM261.495 208.97C262.875 210.529 264.227 211.804 264.496 211.804C264.766 211.804 264.207 210.529 263.254 208.97C262.301 207.411 260.95 206.136 260.252 206.136C259.555 206.136 260.115 207.411 261.495 208.97ZM439.571 213.3C436.468 216.062 436.455 216.135 439.339 214.71C441.014 213.882 442.767 212.572 443.236 211.797C444.6 209.542 443.106 210.156 439.571 213.3ZM267.738 215.707C267.738 216.487 268.674 217.918 269.819 218.888C270.98 219.872 271.9 220.026 271.9 219.236C271.9 218.456 270.963 217.025 269.819 216.055C268.658 215.071 267.738 214.917 267.738 215.707ZM172.123 217.001C172.064 217.912 171.654 219.825 171.215 221.252C170.456 223.719 170.496 223.723 172.007 221.314C172.882 219.921 173.29 218.009 172.915 217.063C172.423 215.824 172.202 215.807 172.123 217.001ZM430.665 219.552C429.184 220.696 428.675 221.653 429.537 221.677C430.397 221.702 431.877 220.766 432.827 219.597C435.021 216.898 434.124 216.879 430.665 219.552ZM274.674 224.164C274.674 225.946 278.639 229.48 279.572 228.528C279.939 228.152 278.989 226.687 277.457 225.273C275.927 223.858 274.674 223.359 274.674 224.164ZM421.536 225.926C419.734 227.458 418.945 228.733 419.78 228.76C420.615 228.786 422.429 227.532 423.81 225.973C427.023 222.347 425.773 222.322 421.536 225.926ZM167.852 229.515C167.046 231.68 166.699 233.769 167.08 234.159C167.462 234.548 168.433 233.097 169.239 230.932C170.045 228.767 170.392 226.679 170.01 226.289C169.629 225.899 168.658 227.35 167.852 229.515ZM412.632 232.233C411.152 233.338 410.252 234.56 410.633 234.945C411.013 235.332 412.797 234.428 414.6 232.936C418.366 229.816 416.676 229.212 412.632 232.233ZM282.804 234.041C284.573 237.486 287.16 239.607 287.16 237.612C287.16 236.907 285.821 235.116 284.183 233.632C281.228 230.951 281.218 230.954 282.804 234.041ZM403.673 238.791C401.777 240.278 400.85 241.49 401.613 241.483C403.448 241.464 408.519 237.512 407.734 236.712C407.397 236.368 405.57 237.303 403.673 238.791ZM164.383 240.142C163.863 241.819 163.748 243.509 164.13 243.899C164.511 244.288 165.25 243.235 165.771 241.559C166.291 239.883 166.406 238.193 166.025 237.803C165.643 237.413 164.904 238.466 164.383 240.142ZM290.628 242.976C292.009 244.535 293.36 245.81 293.629 245.81C293.9 245.81 293.341 244.535 292.387 242.976C291.434 241.418 290.083 240.142 289.385 240.142C288.689 240.142 289.248 241.418 290.628 242.976ZM394.778 245.131C393.307 246.268 392.38 247.479 392.718 247.823C393.055 248.168 394.882 247.233 396.778 245.745C398.675 244.257 399.601 243.046 398.838 243.053C398.075 243.06 396.248 243.996 394.778 245.131ZM161.025 249.59C160.965 250.501 160.556 252.414 160.116 253.841C159.357 256.308 159.397 256.312 160.908 253.903C161.784 252.511 162.191 250.598 161.817 249.653C161.324 248.413 161.104 248.396 161.025 249.59ZM297.565 251.478C298.945 253.036 300.313 254.312 300.603 254.312C300.893 254.312 300.463 253.036 299.646 251.478C298.829 249.919 297.462 248.644 296.608 248.644C295.753 248.644 296.185 249.919 297.565 251.478ZM385.047 252.231C383.565 253.375 382.979 254.312 383.742 254.312C384.505 254.312 386.34 253.375 387.822 252.231C389.302 251.087 389.89 250.151 389.127 250.151C388.364 250.151 386.527 251.087 385.047 252.231ZM303.808 258.17C303.808 259.952 307.773 263.486 308.705 262.534C309.073 262.158 308.122 260.693 306.591 259.279C305.061 257.864 303.808 257.365 303.808 258.17ZM157.265 260.839C156.749 262.314 156.072 264 155.764 264.584C155.455 265.168 155.79 265.647 156.509 265.647C157.894 265.647 159.843 259.829 158.812 258.776C158.479 258.435 157.783 259.364 157.265 260.839ZM367.012 264.984C365.53 266.127 364.944 267.064 365.707 267.064C366.47 267.064 368.305 266.127 369.787 264.984C371.267 263.839 371.855 262.904 371.092 262.904C370.329 262.904 368.492 263.839 367.012 264.984ZM312.132 268.481C312.949 270.039 314.315 271.315 315.17 271.315C316.024 271.315 315.593 270.039 314.213 268.481C312.832 266.922 311.464 265.647 311.174 265.647C310.884 265.647 311.315 266.922 312.132 268.481ZM153.383 272.124C152.874 274.201 152.769 276.219 153.15 276.608C153.532 276.998 154.262 275.618 154.771 273.541C155.281 271.465 155.387 269.447 155.005 269.057C154.624 268.668 153.894 270.048 153.383 272.124ZM359.107 271.394C356.004 274.155 355.991 274.229 358.876 272.804C360.55 271.976 362.304 270.666 362.772 269.891C364.136 267.636 362.642 268.25 359.107 271.394ZM319.39 276.982C320.343 278.541 321.694 279.816 322.392 279.816C323.089 279.816 322.53 278.541 321.149 276.982C319.769 275.424 318.418 274.148 318.148 274.148C317.878 274.148 318.437 275.424 319.39 276.982ZM349.589 277.691C348.626 278.877 348.475 279.816 349.249 279.816C350.012 279.816 351.413 278.86 352.364 277.691C353.326 276.505 353.478 275.565 352.703 275.565C351.94 275.565 350.539 276.522 349.589 277.691ZM150.252 282.296C149.778 283.66 149.076 285.352 148.694 286.058C148.313 286.762 148.646 286.932 149.435 286.433C150.881 285.521 152.854 279.816 151.724 279.816C151.39 279.816 150.728 280.931 150.252 282.296ZM16.6352 282.65C17.7797 283.405 19.6526 283.989 20.7971 283.945C22.1692 283.894 21.9333 283.453 20.1035 282.65C16.2898 280.977 14.0992 280.977 16.6352 282.65ZM326.698 285.484C328.079 287.042 329.447 288.318 329.737 288.318C330.027 288.318 329.596 287.042 328.779 285.484C327.962 283.925 326.596 282.65 325.741 282.65C324.887 282.65 325.318 283.925 326.698 285.484ZM339.878 284.775C338.915 285.961 338.764 286.901 339.538 286.901C340.301 286.901 341.702 285.944 342.652 284.775C343.615 283.589 343.766 282.65 342.992 282.65C342.229 282.65 340.828 283.606 339.878 284.775ZM27.7309 287.433C29.6384 288.571 31.4586 289.236 31.7777 288.91C32.6392 288.03 31.5973 287.36 27.7337 286.31L24.2654 285.366L27.7309 287.433ZM331.554 290.443C328.978 291.946 328.697 292.481 330.465 292.519C331.773 292.546 333.541 293.899 334.392 295.524C335.244 297.149 336.292 298.121 336.72 297.684C337.148 297.246 336.716 295.924 335.759 294.746C334.802 293.569 334.38 291.64 334.824 290.461C335.784 287.904 335.902 287.904 331.554 290.443ZM37.442 291.684C39.3496 292.822 41.1697 293.487 41.4888 293.161C42.3503 292.281 41.3085 291.611 37.4448 290.561L33.9765 289.617L37.442 291.684ZM146.604 291.693C146.082 293.081 145.695 295.28 145.742 296.581C145.8 298.147 146.283 297.79 147.17 295.524C147.906 293.642 148.293 291.443 148.03 290.636C147.766 289.829 147.124 290.306 146.604 291.693ZM320.829 293.55C322.179 293.91 324.051 293.886 324.991 293.498C325.93 293.11 324.826 292.816 322.536 292.845C320.247 292.873 319.479 293.19 320.829 293.55ZM47.156 296.111C51.6952 298.76 54.1549 298.729 50.7061 296.065C49.2244 294.922 47.0394 294.008 45.8505 294.035C44.4646 294.068 44.9335 294.813 47.156 296.111ZM309.357 295.402C306.499 296.337 306.377 296.558 308.663 296.656C310.189 296.721 312.374 296.157 313.519 295.402C315.95 293.798 314.263 293.798 309.357 295.402ZM297.688 298.032C297.285 298.698 298.497 298.943 300.381 298.575C302.267 298.206 303.808 297.661 303.808 297.362C303.808 296.267 298.399 296.857 297.688 298.032ZM56.0694 299.482C56.4842 300.167 58.2378 301.093 59.9664 301.538C62.999 302.317 63.0157 302.273 60.4172 300.291C57.4345 298.015 54.8971 297.543 56.0694 299.482ZM288.547 299.653C285.319 300.709 285.289 300.798 288.119 300.928C289.79 301.006 291.544 300.432 292.016 299.653C292.487 298.874 292.68 298.3 292.444 298.378C292.209 298.456 290.455 299.03 288.547 299.653ZM338.49 300.642C338.49 302.539 342.304 307.567 343.113 306.735C343.492 306.347 342.607 304.524 341.146 302.684C339.685 300.845 338.49 299.925 338.49 300.642ZM142.88 302.371C142.88 303.086 142.463 304.785 141.951 306.145C141.367 307.701 141.562 308.278 142.476 307.701C144.395 306.49 145.752 301.07 144.137 301.07C143.446 301.07 142.88 301.655 142.88 302.371ZM65.7806 303.732C66.1954 304.418 67.9489 305.343 69.6775 305.788C72.7102 306.568 72.7268 306.524 70.1284 304.541C67.1457 302.266 64.6083 301.794 65.7806 303.732ZM266.724 304.886C268.074 305.246 269.946 305.222 270.886 304.833C271.825 304.445 270.721 304.152 268.431 304.18C266.142 304.208 265.374 304.526 266.724 304.886ZM254.558 306.738L251.784 307.955L254.558 308.033C256.084 308.077 258.269 307.493 259.414 306.738C261.263 305.516 261.263 305.373 259.414 305.443C258.269 305.485 256.084 306.067 254.558 306.738ZM75.6651 307.996C76.3893 308.687 78.5438 309.671 80.4513 310.179L83.9196 311.106L80.4513 308.972C76.5863 306.593 73.5467 305.972 75.6651 307.996ZM242.766 309.375C242.766 310.046 244.327 310.291 246.235 309.919C248.142 309.546 249.703 308.996 249.703 308.697C249.703 308.4 248.142 308.155 246.235 308.155C244.327 308.155 242.766 308.704 242.766 309.375ZM234.442 310.988C231.214 312.044 231.184 312.133 234.014 312.264C235.685 312.342 237.439 311.768 237.911 310.988C238.382 310.209 238.575 309.635 238.339 309.713C238.104 309.791 236.35 310.365 234.442 310.988ZM346.276 313.158C347.543 315.13 348.848 316.468 349.18 316.13C350.002 315.289 346.412 309.571 345.061 309.571C344.464 309.571 345.011 311.185 346.276 313.158ZM86.0006 312.271C86.0006 313.447 91.6913 315.566 92.5362 314.705C92.7623 314.473 91.3861 313.554 89.4744 312.666C87.5641 311.776 86.0006 311.599 86.0006 312.271ZM139.584 313.169C139.108 314.434 138.758 316.215 138.806 317.126C138.854 318.036 139.492 317.254 140.223 315.388C140.955 313.52 141.304 311.741 141 311.43C140.697 311.12 140.058 311.902 139.584 313.169ZM221.957 313.887C220.438 314.937 220.998 315.069 224.038 314.375C229.139 313.209 230.246 312.398 226.697 312.427C225.235 312.439 223.101 313.095 221.957 313.887ZM212.939 315.239C210.264 316.414 210.274 316.461 213.204 316.557C214.876 316.611 216.629 316.018 217.101 315.239C218.115 313.563 216.757 313.563 212.939 315.239ZM97.7108 317.435C100.694 319.711 103.231 320.183 102.059 318.244C101.644 317.559 99.8903 316.633 98.1617 316.188C95.129 315.409 95.1124 315.453 97.7108 317.435ZM201.147 318.073C199.298 319.294 199.298 319.446 201.147 319.446C202.292 319.446 204.164 318.828 205.309 318.073C207.158 316.852 207.158 316.7 205.309 316.7C204.164 316.7 202.292 317.318 201.147 318.073ZM188.661 320.71C188.661 321.382 190.222 321.627 192.13 321.254C194.037 320.881 195.598 320.332 195.598 320.033C195.598 319.735 194.037 319.49 192.13 319.49C190.222 319.49 188.661 320.04 188.661 320.71ZM108.197 322.324C109.342 323.079 111.215 323.697 112.359 323.697C114.209 323.697 114.209 323.545 112.359 322.324C111.215 321.569 109.342 320.951 108.197 320.951C106.348 320.951 106.348 321.102 108.197 322.324ZM179.644 322.324L176.869 323.541L179.644 323.619C181.17 323.663 183.355 323.079 184.499 322.324C186.349 321.102 186.349 320.959 184.499 321.029C183.355 321.071 181.17 321.654 179.644 322.324ZM135.25 325.158C134.73 326.834 134.615 328.524 134.996 328.914C135.378 329.304 136.117 328.251 136.637 326.575C137.158 324.898 137.273 323.208 136.891 322.818C136.51 322.429 135.77 323.481 135.25 325.158ZM167.123 325.214C166.539 326.181 167.585 326.356 170.163 325.723C175.479 324.419 175.981 323.741 171.633 323.741C169.643 323.741 167.614 324.404 167.123 325.214ZM117.909 326.575C119.053 327.33 120.926 327.948 122.071 327.948C123.92 327.948 123.92 327.796 122.071 326.575C120.926 325.819 119.053 325.202 117.909 325.202C116.059 325.202 116.059 325.353 117.909 326.575ZM159.528 326.575C156.3 327.63 156.269 327.719 159.099 327.85C160.771 327.928 162.524 327.354 162.996 326.575C163.468 325.795 163.661 325.221 163.425 325.299C163.189 325.377 161.435 325.951 159.528 326.575ZM147.042 329.408C145.193 330.63 145.193 330.781 147.042 330.781C148.187 330.781 150.059 330.164 151.204 329.408C153.053 328.187 153.053 328.035 151.204 328.035C150.059 328.035 148.187 328.653 147.042 329.408ZM127.62 330.825C128.764 331.581 130.637 332.198 131.782 332.198C133.631 332.198 133.631 332.047 131.782 330.825C130.637 330.07 128.764 329.452 127.62 329.452C125.771 329.452 125.771 329.604 127.62 330.825ZM134.556 332.045C134.556 332.717 136.117 332.962 138.025 332.589C139.932 332.217 141.493 331.667 141.493 331.368C141.493 331.07 139.932 330.825 138.025 330.825C136.117 330.825 134.556 331.375 134.556 332.045ZM134.653 337.472C134.601 339.179 135.181 340.97 135.944 341.452C137.585 342.488 137.585 341.101 135.944 337.201C134.794 334.47 134.748 334.48 134.653 337.472ZM364.799 340.511C365.714 342.331 366.841 343.432 367.306 342.957C367.772 342.482 367.025 340.993 365.646 339.647C363.248 337.309 363.211 337.347 364.799 340.511ZM137.374 347.828C137.374 348.997 137.979 350.91 138.718 352.079C139.914 353.968 140.063 353.968 140.063 352.079C140.063 350.91 139.458 348.997 138.718 347.828C137.522 345.94 137.374 345.94 137.374 347.828ZM370.204 348.812C371.973 352.256 374.56 354.377 374.56 352.382C374.56 351.678 373.222 349.887 371.583 348.402C368.628 345.721 368.619 345.724 370.204 348.812ZM140.225 357.747C140.266 358.916 140.837 361.147 141.493 362.706L142.685 365.54L142.761 362.706C142.804 361.147 142.232 358.916 141.493 357.747C140.297 355.858 140.157 355.858 140.225 357.747ZM377.285 358.931C378.199 360.751 379.327 361.852 379.792 361.377C380.258 360.902 379.51 359.413 378.131 358.067C375.734 355.729 375.697 355.767 377.285 358.931ZM382.884 367.492C382.884 368.175 383.923 369.611 385.193 370.68C387.285 372.443 387.346 372.327 385.838 369.436C384.118 366.139 382.884 365.327 382.884 367.492ZM142.999 368.374C143.144 371.057 145.455 375.577 145.535 373.333C145.578 372.164 145.007 370.251 144.267 369.082C143.528 367.913 142.956 367.594 142.999 368.374ZM388.434 375.82C388.434 376.599 389.37 378.03 390.514 379.001C391.676 379.984 392.595 380.138 392.595 379.348C392.595 378.568 391.659 377.137 390.514 376.167C389.353 375.183 388.434 375.029 388.434 375.82ZM146.799 382.79C147.39 385.755 147.74 386.112 148.144 384.164C148.445 382.717 148.084 380.915 147.345 380.16C146.476 379.273 146.282 380.204 146.799 382.79ZM395.37 385.912C395.37 386.595 396.409 388.031 397.679 389.1C399.771 390.863 399.832 390.747 398.324 387.856C396.603 384.559 395.37 383.747 395.37 385.912ZM148.527 389.898C148.581 390.529 149.16 392.32 149.817 393.878C150.967 396.61 151.013 396.6 151.107 393.608C151.16 391.9 150.58 390.109 149.817 389.628C149.054 389.146 148.474 389.268 148.527 389.898ZM401.008 393.878C401.008 394.658 401.924 396.534 403.045 398.046C404.164 399.559 405.081 400.158 405.081 399.379C405.081 398.599 404.164 396.725 403.045 395.212C401.924 393.7 401.008 393.099 401.008 393.878ZM152.195 403.111C153.268 407.302 155.077 407.852 154.31 403.754C153.949 401.829 153.161 400.254 152.559 400.254C151.957 400.254 151.792 401.54 152.195 403.111ZM407.856 404.332C407.856 405.015 408.895 406.451 410.164 407.52C412.256 409.283 412.317 409.167 410.809 406.276C409.089 402.979 407.856 402.167 407.856 404.332ZM155.485 413.007C155.442 414.176 156.014 416.089 156.753 417.258C158.392 419.848 158.392 417.61 156.753 413.715C155.967 411.846 155.535 411.605 155.485 413.007ZM158.26 422.925C158.217 424.094 158.788 426.007 159.528 427.176C161.166 429.766 161.166 427.529 159.528 423.634C158.741 421.765 158.31 421.524 158.26 422.925ZM160.958 434.261C160.958 435.43 161.563 437.342 162.302 438.511C163.498 440.4 163.647 440.4 163.647 438.511C163.647 437.342 163.042 435.43 162.302 434.261C161.107 432.372 160.958 432.372 160.958 434.261ZM163.809 444.179C163.851 445.348 164.421 447.58 165.077 449.138L166.269 451.972L166.345 449.138C166.388 447.58 165.817 445.348 165.077 444.179C163.881 442.29 163.741 442.29 163.809 444.179ZM166.561 455.077C166.616 455.707 167.195 457.498 167.852 459.057C169.002 461.789 169.048 461.779 169.142 458.786C169.195 457.079 168.615 455.288 167.852 454.806C167.089 454.324 166.509 454.446 166.561 455.077Z" fill="#98A4D7" fill-opacity="0.5"/>
</svg>
