<svg width="80" height="80" viewBox="0 0 80 80" fill="none" xmlns="http://www.w3.org/2000/svg">
<path d="M39.9046 53.75L54.0713 39.5833L39.9046 25.4167L36.5713 28.75L45.113 37.1875H25.0088V41.9792H45.113L36.5713 50.4167L39.9046 53.75ZM39.9046 79.1667C34.488 79.1667 29.3664 78.125 24.54 76.0417C19.7136 73.9583 15.5123 71.1285 11.9359 67.5521C8.35948 63.9757 5.52962 59.7743 3.44629 54.9479C1.36296 50.1215 0.321289 45 0.321289 39.5833C0.321289 34.0972 1.36296 28.941 3.44629 24.1146C5.52962 19.2882 8.35948 15.1042 11.9359 11.5625C15.5123 8.02083 19.7136 5.20833 24.54 3.125C29.3664 1.04167 34.488 0 39.9046 0C45.3907 0 50.547 1.04167 55.3734 3.125C60.1998 5.20833 64.3838 8.02083 67.9255 11.5625C71.4671 15.1042 74.2796 19.2882 76.363 24.1146C78.4463 28.941 79.488 34.0972 79.488 39.5833C79.488 45 78.4463 50.1215 76.363 54.9479C74.2796 59.7743 71.4671 63.9757 67.9255 67.5521C64.3838 71.1285 60.1998 73.9583 55.3734 76.0417C50.547 78.125 45.3907 79.1667 39.9046 79.1667ZM39.9046 74.4792C49.6268 74.4792 57.8734 71.0764 64.6442 64.2708C71.415 57.4653 74.8005 49.2361 74.8005 39.5833C74.8005 29.8611 71.415 21.6146 64.6442 14.8437C57.8734 8.07292 49.6268 4.6875 39.9046 4.6875C30.2518 4.6875 22.0227 8.07292 15.2171 14.8437C8.41157 21.6146 5.00879 29.8611 5.00879 39.5833C5.00879 49.2361 8.41157 57.4653 15.2171 64.2708C22.0227 71.0764 30.2518 74.4792 39.9046 74.4792Z" fill="#98A4D7" fill-opacity="0.5"/>
</svg>
