<svg width="60" height="60" viewBox="0 0 60 60" fill="none" xmlns="http://www.w3.org/2000/svg">
<mask id="mask0_339_2533" style="mask-type:alpha" maskUnits="userSpaceOnUse" x="0" y="0" width="60" height="60">
<rect y="60" width="60" height="60" transform="rotate(-90 0 60)" fill="#4F5A68" fill-opacity="0.75"/>
</mask>
<g mask="url(#mask0_339_2533)">
<path d="M38.5 29.1584L30 20.7529L21.5 29.1584L23.5 31.1362L28.5625 26.0681V37.9966H31.4375V26.0681L36.5 31.1362L38.5 29.1584ZM53.75 29.1584C53.75 32.3723 53.125 35.4111 51.875 38.2747C50.625 41.1384 48.9271 43.6312 46.7812 45.7532C44.6354 47.8752 42.1146 49.5543 39.2188 50.7904C36.3229 52.0265 33.25 52.6445 30 52.6445C26.7083 52.6445 23.6146 52.0265 20.7188 50.7904C17.8229 49.5543 15.3125 47.8752 13.1875 45.7532C11.0625 43.6312 9.375 41.1384 8.125 38.2747C6.875 35.4111 6.25 32.3723 6.25 29.1584C6.25 25.9033 6.875 22.844 8.125 19.9803C9.375 17.1166 11.0625 14.6341 13.1875 12.5327C15.3125 10.4313 17.8229 8.76258 20.7188 7.52647C23.6146 6.29036 26.7083 5.67231 30 5.67231C33.25 5.67231 36.3229 6.29036 39.2188 7.52647C42.1146 8.76258 44.6354 10.4313 46.7812 12.5327C48.9271 14.6341 50.625 17.1166 51.875 19.9803C53.125 22.844 53.75 25.9033 53.75 29.1584ZM50.9375 29.1584C50.9375 23.3899 48.8958 18.497 44.8125 14.4796C40.7292 10.4622 35.7917 8.45356 30 8.45356C24.1667 8.45356 19.2188 10.4622 15.1563 14.4796C11.0938 18.497 9.0625 23.3899 9.0625 29.1584C9.0625 34.8857 11.0938 39.7684 15.1562 43.8063C19.2188 47.8443 24.1667 49.8633 30 49.8633C35.7917 49.8633 40.7292 47.8443 44.8125 43.8063C48.8958 39.7684 50.9375 34.8857 50.9375 29.1584Z" fill="#98A4D7" fill-opacity="0.75"/>
</g>
</svg>
