<svg width="480" height="480" viewBox="0 0 480 480" fill="none" xmlns="http://www.w3.org/2000/svg">
<path fill-rule="evenodd" clip-rule="evenodd" d="M162.738 2.26449C162.086 3.54465 161.519 5.30488 161.479 6.17477C161.44 7.04586 137.147 26.1665 107.495 48.6657C63.706 81.8923 52.9941 89.5071 50.4465 89.2208C46.1317 88.7359 44.2086 91.5032 45.161 96.8272C45.7787 100.285 43.9622 107.466 35.6467 134.439C29.9944 152.777 20.8675 182.397 15.3654 200.264C7.6194 225.417 4.75203 233.248 2.66168 234.955C-0.834851 237.813 -0.897882 242.609 2.5402 244.288C4.73255 245.359 8.17751 255.452 25.5605 311.738C44.6407 373.515 45.9059 378.174 44.549 381.612C43.223 384.974 43.3285 385.495 45.7546 387.557C47.2181 388.801 49.3188 389.517 50.4258 389.148C53.1981 388.224 161.552 470.84 161.552 473.878C161.552 476.134 164.933 480 166.908 480C167.549 480 169.006 478.917 170.147 477.594C172.176 475.239 173.677 475.187 239.519 475.187C297.94 475.187 307.004 475.426 308.243 476.992C311.131 480.646 316.576 478.744 317.574 473.733C317.8 472.601 342.13 453.275 371.643 430.787C415.786 397.148 426.048 389.832 429.517 389.529L433.733 389.161L433.852 382.544C433.942 377.539 437.623 364.204 448.966 327.8C457.213 301.33 466.287 272.135 469.131 262.924C473.199 249.737 474.974 245.609 477.471 243.518C480.332 241.124 480.508 240.555 479.273 237.709C478.52 235.974 477.22 234.555 476.385 234.555C475.389 234.555 467.687 211.383 454.055 167.376C437.392 113.593 433.374 99.349 433.9 95.9404C434.626 91.2481 433.502 89.8837 428.654 89.5745C424.272 89.2954 317.842 7.92056 316.944 4.16308C316.042 0.389959 312.303 -0.767485 308.8 1.64245C306.354 3.32448 298.222 3.54706 239.09 3.54706C180.982 3.54706 171.959 3.30883 170.72 1.74232C168.71 -0.801174 164.148 -0.502789 162.738 2.26449ZM307.617 8.48725C310.188 10.079 312.705 10.7576 314.389 10.3137C317.659 9.45219 318.985 10.5808 317.261 12.7609C316.423 13.8197 316.394 14.3755 317.175 14.3755C317.831 14.3755 318.564 13.7523 318.806 12.9919C319.141 11.9355 417.025 85.1023 422.213 90.2868C422.81 90.8847 419.458 90.0521 414.764 88.4375C410.07 86.8241 396.43 82.1462 384.454 78.0446C369.279 72.8469 361.914 69.7247 360.156 67.7467C357.318 64.5559 357.012 64.4657 354.254 66.0165C352.817 66.8239 337.71 62.152 298.541 48.7872C252.44 33.0571 244.633 30.0588 243.629 27.697C242.601 25.2774 241.878 25.0271 237.679 25.6311C233.775 26.193 228.305 24.7588 207.826 17.8082C194.036 13.1267 181.076 8.78925 179.028 8.16962C176.981 7.54999 175.304 6.79801 175.304 6.49842C175.304 6.19883 204.154 5.95339 239.416 5.95339C302.54 5.95339 303.591 5.99189 307.617 8.48725ZM198.224 17.4376C210.516 21.5969 223.532 25.9548 227.15 27.1231C231.141 28.4104 233.975 30.0648 234.358 31.3317C234.787 32.7515 228.544 42.6667 214.812 62.3758C203.714 78.3033 194.256 91.5802 193.793 91.881C192.196 92.9169 128.152 70.3155 127.102 68.3459C125.533 65.4029 163.069 11.5553 167.829 9.91902C172.047 8.47041 170.847 8.17323 198.224 17.4376ZM296.783 10.2354C296.783 11.2666 297.307 11.7707 297.947 11.3556C298.588 10.9393 298.816 10.0959 298.453 9.47986C297.47 7.81107 296.783 8.12149 296.783 10.2354ZM291.626 11.9692C292.015 12.6309 292.85 13.1724 293.48 13.1724C294.11 13.1724 294.307 12.6309 293.918 11.9692C293.528 11.3075 292.694 10.766 292.063 10.766C291.433 10.766 291.236 11.3075 291.626 11.9692ZM287.042 13.1724C287.431 13.8341 287.977 14.3755 288.255 14.3755C288.534 14.3755 288.761 13.8341 288.761 13.1724C288.761 12.5106 288.214 11.9692 287.547 11.9692C286.88 11.9692 286.652 12.5106 287.042 13.1724ZM159.26 13.4816C159.26 13.6512 156.037 18.4651 152.097 24.1801C148.158 29.8939 140.293 41.3685 134.62 49.68C128.625 58.4631 123.5 64.8158 122.381 64.8495C119.437 64.9397 116.789 68.3747 117.399 71.3117C118.171 75.0331 52.1185 170.008 48.3676 170.57C45.4486 171.007 43.2001 174.554 44.1662 177.197C44.5627 178.281 38.0155 188.797 27.2944 204.293C17.6586 218.22 9.63411 229.469 9.46336 229.289C9.29145 229.11 10.4054 224.942 11.9376 220.028C14.1838 212.821 34.0709 148.301 44.8229 113.336C46.4308 108.108 47.7189 105.81 49.0483 105.798C50.6287 105.782 50.6768 105.591 49.3256 104.693C47.9985 103.812 48.3744 102.791 51.3312 99.2563C53.3333 96.8621 54.971 94.2163 54.971 93.3753C54.971 92.5343 73.924 77.4322 97.0875 59.8166C120.252 42.1999 143.33 24.5411 148.372 20.5718C156.441 14.2215 159.26 12.3867 159.26 13.4816ZM283.03 15.6497C283.03 16.3499 283.546 16.5894 284.177 16.1803C284.807 15.7712 285.323 15.1985 285.323 14.9061C285.323 14.6138 284.807 14.3755 284.177 14.3755C283.546 14.3755 283.03 14.9494 283.03 15.6497ZM319.703 18.056C319.703 18.7563 320.219 18.9957 320.849 18.5866C321.48 18.1775 321.995 17.6048 321.995 17.3125C321.995 17.0201 321.48 16.7819 320.849 16.7819C320.219 16.7819 319.703 17.3558 319.703 18.056ZM263.548 21.5945C263.548 22.2563 264.064 22.7977 264.694 22.7977C265.324 22.7977 265.84 22.2563 265.84 21.5945C265.84 20.9328 265.324 20.3914 264.694 20.3914C264.064 20.3914 263.548 20.9328 263.548 21.5945ZM321.995 21.5945C321.995 22.2563 322.511 22.7977 323.141 22.7977C323.772 22.7977 324.288 22.2563 324.288 21.5945C324.288 20.9328 323.772 20.3914 323.141 20.3914C322.511 20.3914 321.995 20.9328 321.995 21.5945ZM258.964 22.7977C258.964 23.4594 259.48 24.0008 260.11 24.0008C260.74 24.0008 261.256 23.4594 261.256 22.7977C261.256 22.1359 260.74 21.5945 260.11 21.5945C259.48 21.5945 258.964 22.1359 258.964 22.7977ZM254.38 24.0008C254.38 24.6626 254.926 25.204 255.593 25.204C256.26 25.204 256.489 24.6626 256.099 24.0008C255.709 23.3391 255.164 22.7977 254.885 22.7977C254.607 22.7977 254.38 23.3391 254.38 24.0008ZM249.796 26.4072C249.796 27.0689 250.311 27.6103 250.942 27.6103C251.572 27.6103 252.088 27.0689 252.088 26.4072C252.088 25.7454 251.572 25.204 250.942 25.204C250.311 25.204 249.796 25.7454 249.796 26.4072ZM245.212 27.6103C245.212 28.2721 245.758 28.8135 246.425 28.8135C247.092 28.8135 247.32 28.2721 246.931 27.6103C246.541 26.9486 245.995 26.4072 245.717 26.4072C245.438 26.4072 245.212 26.9486 245.212 27.6103ZM327.726 30.0167C327.726 30.6784 328.241 31.2198 328.872 31.2198C329.502 31.2198 330.018 30.6784 330.018 30.0167C330.018 29.3549 329.502 28.8135 328.872 28.8135C328.241 28.8135 327.726 29.3549 327.726 30.0167ZM230.886 32.423C231.276 33.0847 232.11 33.6262 232.741 33.6262C233.371 33.6262 233.568 33.0847 233.178 32.423C232.789 31.7613 231.954 31.2198 231.324 31.2198C230.694 31.2198 230.497 31.7613 230.886 32.423ZM226.351 33.5431C225.988 34.1592 226.216 35.0026 226.857 35.4189C227.497 35.834 228.021 35.3298 228.021 34.2987C228.021 32.1848 227.334 31.8744 226.351 33.5431ZM221.767 34.7463C221.404 35.3623 221.632 36.2057 222.273 36.622C222.913 37.0371 223.437 36.533 223.437 35.5019C223.437 33.3879 222.749 33.0775 221.767 34.7463ZM281.302 45.7252C342.25 66.4786 349.672 69.1472 349.667 70.313C349.662 71.4645 289.739 92.5042 286.321 92.5535C285.19 92.5704 276.821 81.5771 265.119 64.7039C243.714 33.8415 243.573 33.6262 244.86 33.6262C245.358 33.6262 261.758 39.0705 281.302 45.7252ZM330.602 34.8486C330.999 35.5211 331.802 35.7606 332.389 35.3792C333.978 34.3481 333.683 33.6262 331.669 33.6262C330.687 33.6262 330.207 34.176 330.602 34.8486ZM261.591 64.1805C272.752 80.3234 281.884 93.8096 281.884 94.1501C281.884 94.4918 273.666 97.531 263.623 100.905C247.982 106.159 244.943 106.84 242.455 105.649C240.224 104.582 239.156 104.601 237.856 105.734C236.487 106.928 232.596 106.023 217.48 100.99C207.205 97.5707 198.36 94.333 197.824 93.7976C197.001 92.9734 205.184 80.6675 232.841 41.1459C235.272 37.6712 238.169 34.8293 239.279 34.8293C240.594 34.8293 248.353 45.0346 261.591 64.1805ZM212.55 38.4388C212.939 39.1006 213.485 39.642 213.763 39.642C214.042 39.642 214.269 39.1006 214.269 38.4388C214.269 37.7771 213.722 37.2357 213.055 37.2357C212.388 37.2357 212.16 37.7771 212.55 38.4388ZM333.456 38.4388C333.456 39.1006 333.971 39.642 334.602 39.642C335.232 39.642 335.748 39.1006 335.748 38.4388C335.748 37.7771 335.232 37.2357 334.602 37.2357C333.971 37.2357 333.456 37.7771 333.456 38.4388ZM207.966 40.8451C208.355 41.5069 208.901 42.0483 209.179 42.0483C209.458 42.0483 209.685 41.5069 209.685 40.8451C209.685 40.1834 209.138 39.642 208.471 39.642C207.804 39.642 207.576 40.1834 207.966 40.8451ZM202.809 42.0483C202.809 42.71 203.324 43.2515 203.955 43.2515C204.585 43.2515 205.101 42.71 205.101 42.0483C205.101 41.3866 204.585 40.8451 203.955 40.8451C203.324 40.8451 202.809 41.3866 202.809 42.0483ZM198.224 43.2515C198.224 43.9132 198.74 44.4546 199.37 44.4546C200.001 44.4546 200.517 43.9132 200.517 43.2515C200.517 42.5897 200.001 42.0483 199.37 42.0483C198.74 42.0483 198.224 42.5897 198.224 43.2515ZM193.64 45.6578C193.64 46.3195 194.156 46.861 194.786 46.861C195.417 46.861 195.932 46.3195 195.932 45.6578C195.932 44.9961 195.417 44.4546 194.786 44.4546C194.156 44.4546 193.64 44.9961 193.64 45.6578ZM189.056 46.861C189.056 47.5227 189.572 48.0641 190.202 48.0641C190.833 48.0641 191.348 47.5227 191.348 46.861C191.348 46.1992 190.833 45.6578 190.202 45.6578C189.572 45.6578 189.056 46.1992 189.056 46.861ZM339.186 46.861C339.186 47.5227 339.702 48.0641 340.332 48.0641C340.962 48.0641 341.478 47.5227 341.478 46.861C341.478 46.1992 340.962 45.6578 340.332 45.6578C339.702 45.6578 339.186 46.1992 339.186 46.861ZM184.472 48.0641C184.472 48.7259 185.019 49.2673 185.686 49.2673C186.353 49.2673 186.581 48.7259 186.191 48.0641C185.802 47.4024 185.256 46.861 184.978 46.861C184.699 46.861 184.472 47.4024 184.472 48.0641ZM179.888 49.2673C179.888 49.929 180.435 50.4705 181.102 50.4705C181.769 50.4705 181.997 49.929 181.607 49.2673C181.217 48.6056 180.672 48.0641 180.393 48.0641C180.115 48.0641 179.888 48.6056 179.888 49.2673ZM342.624 50.4705C342.624 51.1322 343.171 51.6736 343.838 51.6736C344.505 51.6736 344.733 51.1322 344.343 50.4705C343.953 49.8087 343.408 49.2673 343.129 49.2673C342.851 49.2673 342.624 49.8087 342.624 50.4705ZM166.136 54.7525C166.136 55.7836 166.659 56.2878 167.3 55.8727C167.941 55.4564 168.169 54.613 167.805 53.9969C166.823 52.3281 166.136 52.6386 166.136 54.7525ZM344.916 55.2831C344.916 55.9449 345.432 56.4863 346.062 56.4863C346.692 56.4863 347.208 55.9449 347.208 55.2831C347.208 54.6214 346.692 54.0799 346.062 54.0799C345.432 54.0799 344.916 54.6214 344.916 55.2831ZM160.979 56.4863C161.368 57.148 161.914 57.6894 162.192 57.6894C162.471 57.6894 162.698 57.148 162.698 56.4863C162.698 55.8245 162.151 55.2831 161.484 55.2831C160.817 55.2831 160.589 55.8245 160.979 56.4863ZM156.394 57.6894C156.784 58.3512 157.33 58.8926 157.608 58.8926C157.887 58.8926 158.113 58.3512 158.113 57.6894C158.113 57.0277 157.567 56.4863 156.9 56.4863C156.233 56.4863 156.005 57.0277 156.394 57.6894ZM152.474 59.5941C152.529 60.9957 152.8 61.2809 153.166 60.322C153.497 59.4533 153.456 58.415 153.076 58.0155C152.695 57.616 152.425 58.3259 152.474 59.5941ZM147.275 60.0128C146.912 60.6288 147.14 61.4722 147.781 61.8885C148.422 62.3036 148.945 61.7994 148.945 60.7683C148.945 58.6544 148.258 58.344 147.275 60.0128ZM348.14 59.7144C348.966 60.0621 349.955 60.0188 350.336 59.6193C350.716 59.2199 350.04 58.9359 348.832 58.9877C347.497 59.0454 347.225 59.3306 348.14 59.7144ZM142.069 62.5021C142.069 63.1638 142.585 63.7053 143.215 63.7053C143.845 63.7053 144.361 63.1638 144.361 62.5021C144.361 61.8404 143.845 61.2989 143.215 61.2989C142.585 61.2989 142.069 61.8404 142.069 62.5021ZM350.646 63.7762C350.646 64.4765 351.162 64.7159 351.792 64.3068C352.422 63.8978 352.938 63.3251 352.938 63.0327C352.938 62.7403 352.422 62.5021 351.792 62.5021C351.162 62.5021 350.646 63.076 350.646 63.7762ZM132.901 66.1116C132.901 66.7733 133.417 67.3148 134.047 67.3148C134.677 67.3148 135.193 66.7733 135.193 66.1116C135.193 65.4498 134.677 64.9084 134.047 64.9084C133.417 64.9084 132.901 65.4498 132.901 66.1116ZM128.317 67.3148C128.317 67.9765 128.863 68.5179 129.53 68.5179C130.197 68.5179 130.425 67.9765 130.036 67.3148C129.646 66.653 129.101 66.1116 128.822 66.1116C128.544 66.1116 128.317 66.653 128.317 67.3148ZM110.071 74.032C110.126 75.4337 110.397 75.7189 110.763 74.7599C111.094 73.8913 111.053 72.8529 110.673 72.4535C110.292 72.054 110.022 72.7639 110.071 74.032ZM159.119 83.7536C175.9 89.4867 190.052 94.5592 190.568 95.026C192.06 96.376 167.43 131.082 164.979 131.082C163.83 131.082 161.943 132.376 160.787 133.958C159.257 136.052 154.289 138.34 142.501 142.38C133.599 145.43 125.735 147.927 125.024 147.927C123.065 147.927 123.204 74.9585 125.165 74.1271C127.706 73.0514 128.19 73.1874 159.119 83.7536ZM353.855 74.7744C355.404 76.401 355.91 147.927 354.372 147.927C353.9 147.927 345.528 145.133 335.77 141.718C323.097 137.284 317.422 134.704 315.916 132.695C314.756 131.146 312.942 129.85 311.884 129.814C310.197 129.758 289.821 101.694 288.152 97.128C287.702 95.8959 295.612 92.7039 319.384 84.5224C336.894 78.4982 351.503 73.5147 351.849 73.4497C352.197 73.3835 353.099 73.9803 353.855 74.7744ZM392.901 83.839C412.584 90.4576 424.511 95.0585 424.919 96.1907C425.277 97.1833 426.254 98.5369 427.091 99.1986C428.308 100.16 428.552 107.377 428.308 135.164C428.048 164.822 427.745 170.095 426.25 171.085C424.986 171.921 415.22 169.062 391.296 160.849L358.095 149.452L357.792 112.508L357.489 75.5637L360.076 76.4251C362.376 77.1915 362.488 77.0688 361.098 75.3086C360.237 74.2209 359.984 73.3222 360.534 73.3113C361.083 73.3017 375.649 78.0386 392.901 83.839ZM104.823 75.7369C105.213 76.3986 105.758 76.9401 106.037 76.9401C106.315 76.9401 106.542 76.3986 106.542 75.7369C106.542 75.0752 105.996 74.5337 105.329 74.5337C104.662 74.5337 104.434 75.0752 104.823 75.7369ZM100.239 76.9401C100.629 77.6018 101.463 78.1432 102.093 78.1432C102.724 78.1432 102.921 77.6018 102.531 76.9401C102.141 76.2783 101.307 75.7369 100.677 75.7369C100.047 75.7369 99.8494 76.2783 100.239 76.9401ZM121.17 112.698L120.868 149.66L87.8643 160.968C69.7123 167.187 54.5882 171.989 54.2536 171.637C53.5064 170.854 119.262 75.7369 120.551 75.7369C121.059 75.7369 121.337 92.3694 121.17 112.698ZM95.655 78.1432C95.2653 78.805 95.4934 79.3464 96.1604 79.3464C96.8274 79.3464 97.374 78.805 97.374 78.1432C97.374 77.4815 97.1471 76.9401 96.8686 76.9401C96.5901 76.9401 96.0446 77.4815 95.655 78.1432ZM362.679 80.5496C363.069 81.2113 363.615 81.7527 363.893 81.7527C364.172 81.7527 364.398 81.2113 364.398 80.5496C364.398 79.8878 363.852 79.3464 363.185 79.3464C362.518 79.3464 362.29 79.8878 362.679 80.5496ZM85.9137 81.7527C85.9137 82.4145 86.4294 82.9559 87.0598 82.9559C87.6901 82.9559 88.2058 82.4145 88.2058 81.7527C88.2058 81.091 87.6901 80.5496 87.0598 80.5496C86.4294 80.5496 85.9137 81.091 85.9137 81.7527ZM81.3296 82.9559C81.3296 83.6176 81.8453 84.159 82.4756 84.159C83.106 84.159 83.6217 83.6176 83.6217 82.9559C83.6217 82.2941 83.106 81.7527 82.4756 81.7527C81.8453 81.7527 81.3296 82.2941 81.3296 82.9559ZM365.545 84.159C365.545 84.8208 366.06 85.3622 366.691 85.3622C367.321 85.3622 367.837 84.8208 367.837 84.159C367.837 83.4973 367.321 82.9559 366.691 82.9559C366.06 82.9559 365.545 83.4973 365.545 84.159ZM76.7455 85.3622C76.7455 86.024 77.2612 86.5654 77.8915 86.5654C78.5219 86.5654 79.0376 86.024 79.0376 85.3622C79.0376 84.7005 78.5219 84.159 77.8915 84.159C77.2612 84.159 76.7455 84.7005 76.7455 85.3622ZM72.1614 86.5654C72.1614 87.2271 72.6771 87.7685 73.3074 87.7685C73.9377 87.7685 74.4535 87.2271 74.4535 86.5654C74.4535 85.9036 73.9377 85.3622 73.3074 85.3622C72.6771 85.3622 72.1614 85.9036 72.1614 86.5654ZM67.5773 87.7685C67.5773 88.4303 68.093 88.9717 68.7233 88.9717C69.3536 88.9717 69.8693 88.4303 69.8693 87.7685C69.8693 87.1068 69.3536 86.5654 68.7233 86.5654C68.093 86.5654 67.5773 87.1068 67.5773 87.7685ZM368.421 88.991C368.818 89.6635 369.621 89.903 370.208 89.5216C371.797 88.4904 371.502 87.7685 369.488 87.7685C368.506 87.7685 368.026 88.3184 368.421 88.991ZM58.4091 91.378C58.4091 92.0398 58.9248 92.5812 59.5551 92.5812C60.1854 92.5812 60.7011 92.0398 60.7011 91.378C60.7011 90.7163 60.1854 90.1749 59.5551 90.1749C58.9248 90.1749 58.4091 90.7163 58.4091 91.378ZM371.275 92.6522C371.275 93.3524 371.79 93.5919 372.421 93.1828C373.051 92.7737 373.567 92.201 373.567 91.9086C373.567 91.6163 373.051 91.378 372.421 91.378C371.79 91.378 371.275 91.9519 371.275 92.6522ZM374.14 96.1907C373.75 96.8524 374.266 97.3939 375.286 97.3939C376.306 97.3939 376.821 96.8524 376.432 96.1907C376.042 95.5289 375.526 94.9875 375.286 94.9875C375.045 94.9875 374.529 95.5289 374.14 96.1907ZM215.44 103.271C226.457 107.166 234.697 110.654 233.751 111.021C231.96 111.716 187.267 127.024 176.692 130.564C173.358 131.68 170.442 132.389 170.212 132.139C169.731 131.617 193.903 96.3603 194.812 96.2581C195.141 96.2208 204.423 99.3767 215.44 103.271ZM295.637 113.285C309.623 133.605 308.989 132.416 305.121 131.1C267.651 118.358 247.88 111.37 247.069 110.579C246.138 109.67 279.183 97.6814 283.03 97.5334C283.976 97.4973 289.649 104.585 295.637 113.285ZM377.005 101.003C377.005 101.665 377.521 102.207 378.151 102.207C378.781 102.207 379.297 101.665 379.297 101.003C379.297 100.342 378.781 99.8002 378.151 99.8002C377.521 99.8002 377.005 100.342 377.005 101.003ZM462.018 201.848C469.901 227.331 471.169 232.489 469.777 233.413C468.273 234.413 469.042 235.069 471.278 234.693C471.757 234.612 471.528 235.59 470.768 236.867C469.721 238.63 469.704 239.916 470.696 242.203C471.81 244.771 471.174 247.863 466.404 263.047C463.324 272.854 454.558 301.18 446.923 325.995C439.288 350.81 432.587 372.197 432.032 373.52C431.417 374.987 430.993 363.083 430.946 343.055C430.881 315.363 431.139 309.898 432.587 308.377C433.533 307.384 434.306 305.594 434.306 304.399C434.306 303.205 433.533 301.553 432.587 300.729C431.102 299.435 430.868 291.243 430.868 240.552C430.868 194.022 431.172 181.75 432.333 181.282C434.452 180.429 434.64 173.778 432.594 171.996C431.127 170.717 430.884 165.421 430.975 136.651L431.082 102.808L441.839 137.098C447.755 155.958 456.836 185.095 462.018 201.848ZM382.735 109.496C382.735 110.197 383.251 110.436 383.881 110.027C384.511 109.618 385.027 109.045 385.027 108.753C385.027 108.461 384.511 108.222 383.881 108.222C383.251 108.222 382.735 108.796 382.735 109.496ZM385.6 113.035C385.21 113.697 385.438 114.238 386.105 114.238C386.772 114.238 387.319 113.697 387.319 113.035C387.319 112.373 387.092 111.832 386.814 111.832C386.535 111.832 385.99 112.373 385.6 113.035ZM242.321 115.467C244.679 113.141 244.86 113.187 275.617 123.896C301.339 132.852 306.733 135.12 307.679 137.382C308.319 138.911 310.163 140.365 311.896 140.704C314.355 141.188 318.801 146.851 333.944 168.786C350.771 193.162 352.767 196.548 351.626 198.784C350.559 200.878 350.756 201.659 352.786 203.384C355.18 205.42 355.23 206.186 355.23 240.452C355.23 273.746 355.123 275.513 353.013 276.895C351.43 277.933 350.964 279.235 351.384 281.442C351.87 283.993 348.689 289.273 333.225 311.576C317.286 334.565 313.966 338.709 311.074 339.232C308.769 339.649 307.561 340.639 307.334 342.3C307.051 344.376 302.324 346.375 276.554 355.319C249.591 364.677 245.746 365.725 242.921 364.496C240.442 363.418 239.202 363.456 237.358 364.665C235.282 366.027 230.98 364.828 202.853 355.057C172.465 344.501 170.72 343.734 170.72 340.96C170.72 338.447 170.181 338.027 166.955 338.027C163.375 338.027 162.334 336.789 145.618 312.647C135.954 298.688 127.788 286.232 127.473 284.967C127.158 283.703 127.529 281.873 128.298 280.9C129.448 279.446 129.167 278.879 126.715 277.705L123.733 276.279V239.922C123.733 204.096 123.768 203.541 126.187 201.855C128.292 200.388 128.449 199.763 127.284 197.479C126.049 195.055 127.603 192.39 144.598 167.786C162.018 142.569 163.494 140.775 166.599 141.033C169.096 141.241 170.006 140.745 170.244 139.046C170.418 137.802 170.983 136.367 171.5 135.858C172.016 135.348 186.621 130.048 203.955 124.08C234.986 113.396 235.505 113.265 237.71 115.517C239.911 117.766 239.99 117.765 242.321 115.467ZM388.465 117.848C388.465 118.509 388.981 119.051 389.611 119.051C390.241 119.051 390.757 118.509 390.757 117.848C390.757 117.186 390.241 116.644 389.611 116.644C388.981 116.644 388.465 117.186 388.465 117.848ZM391.33 121.457C390.94 122.119 391.169 122.66 391.836 122.66C392.503 122.66 393.049 122.119 393.049 121.457C393.049 120.795 392.822 120.254 392.544 120.254C392.265 120.254 391.72 120.795 391.33 121.457ZM238.778 126.796C237.875 129.266 239.147 132.645 240.619 131.689C241.254 131.277 241.774 129.921 241.774 128.676C241.774 125.712 239.659 124.384 238.778 126.796ZM394.195 126.27C394.195 126.932 394.711 127.473 395.341 127.473C395.972 127.473 396.487 126.932 396.487 126.27C396.487 125.608 395.972 125.067 395.341 125.067C394.711 125.067 394.195 125.608 394.195 126.27ZM397.06 129.879C396.671 130.541 397.186 131.082 398.206 131.082C399.226 131.082 399.742 130.541 399.352 129.879C398.963 129.218 398.447 128.676 398.206 128.676C397.966 128.676 397.45 129.218 397.06 129.879ZM48.0948 131.082C48.0948 131.744 48.6105 132.286 49.2408 132.286C49.8712 132.286 50.3869 131.744 50.3869 131.082C50.3869 130.421 49.8712 129.879 49.2408 129.879C48.6105 129.879 48.0948 130.421 48.0948 131.082ZM399.925 134.763C399.925 135.463 400.441 135.703 401.071 135.294C401.702 134.884 402.217 134.312 402.217 134.019C402.217 133.727 401.702 133.489 401.071 133.489C400.441 133.489 399.925 134.063 399.925 134.763ZM48.6678 135.895C48.2782 136.557 48.5062 137.098 49.1732 137.098C49.8402 137.098 50.3869 136.557 50.3869 135.895C50.3869 135.233 50.1599 134.692 49.8815 134.692C49.603 134.692 49.0575 135.233 48.6678 135.895ZM402.79 138.301C402.401 138.963 402.629 139.505 403.296 139.505C403.963 139.505 404.509 138.963 404.509 138.301C404.509 137.64 404.283 137.098 404.004 137.098C403.726 137.098 403.18 137.64 402.79 138.301ZM335.747 144.468C345.518 147.858 353.91 151.012 354.398 151.475C354.886 151.938 355.144 161.701 354.971 173.169L354.657 194.022L345.574 180.901C340.578 173.684 333.849 163.989 330.619 159.357C318.116 141.422 316.101 138.301 317.026 138.301C317.552 138.301 325.976 141.076 335.747 144.468ZM160.406 140.075C160.406 140.633 126.661 189.523 124.716 191.782C124.165 192.423 123.733 183.878 123.733 172.331V151.737L140.637 145.715C157.126 139.843 160.406 138.907 160.406 140.075ZM238.335 143.716C238.335 145.588 238.985 146.724 240.054 146.724C241.124 146.724 241.774 145.588 241.774 143.716C241.774 141.844 241.124 140.708 240.054 140.708C238.985 140.708 238.335 141.844 238.335 143.716ZM48.0948 146.724C48.0948 147.385 48.6105 147.927 49.2408 147.927C49.8712 147.927 50.3869 147.385 50.3869 146.724C50.3869 146.062 49.8712 145.52 49.2408 145.52C48.6105 145.52 48.0948 146.062 48.0948 146.724ZM301.643 147.91C299.431 151.628 299.937 153.383 302.513 150.935C304.773 148.788 305.63 145.52 303.935 145.52C303.456 145.52 302.425 146.596 301.643 147.91ZM408.521 146.724C408.131 147.385 408.359 147.927 409.026 147.927C409.693 147.927 410.24 147.385 410.24 146.724C410.24 146.062 410.013 145.52 409.734 145.52C409.456 145.52 408.91 146.062 408.521 146.724ZM173.754 147.638C173.353 148.32 173.971 150.107 175.127 151.606C177.873 155.166 179.186 152.937 176.524 149.233C175.329 147.571 174.183 146.91 173.754 147.638ZM48.0948 151.536C48.0948 152.198 48.6105 152.739 49.2408 152.739C49.8712 152.739 50.3869 152.198 50.3869 151.536C50.3869 150.874 49.8712 150.333 49.2408 150.333C48.6105 150.333 48.0948 150.874 48.0948 151.536ZM411.386 151.607C411.386 152.307 411.901 152.547 412.532 152.138C413.162 151.729 413.678 151.156 413.678 150.864C413.678 150.571 413.162 150.333 412.532 150.333C411.901 150.333 411.386 150.907 411.386 151.607ZM121.441 172.405C121.441 190.723 121.279 192.225 119.083 194.31C117.57 195.748 116.942 197.453 117.33 199.073C117.774 200.931 114.797 206.12 106.038 218.756C99.4965 228.195 93.8145 236.016 93.4133 236.138C93.0111 236.259 83.7065 223.405 72.7367 207.572C58.2486 186.661 53.0537 178.292 53.7516 176.983C54.5057 175.568 116.911 152.97 120.581 152.783C121.053 152.759 121.441 161.589 121.441 172.405ZM391.501 163.772C417.654 172.7 423.939 175.258 424.415 177.168C424.839 178.868 419.524 187.418 405.464 207.654C394.718 223.121 385.532 236.032 385.051 236.344C384.571 236.655 378.923 229.327 372.502 220.059C363.994 207.779 361.015 202.579 361.524 200.895C361.971 199.419 361.373 197.69 359.873 196.115C357.687 193.82 357.522 192.213 357.522 173.193C357.522 161.944 357.894 152.739 358.349 152.739C358.802 152.739 373.72 157.705 391.501 163.772ZM414.251 155.146C413.861 155.807 414.089 156.349 414.756 156.349C415.423 156.349 415.97 155.807 415.97 155.146C415.97 154.484 415.743 153.943 415.464 153.943C415.186 153.943 414.64 154.484 414.251 155.146ZM238.546 158.191C238.746 159.866 239.424 161.236 240.054 161.236C240.685 161.236 241.363 159.866 241.563 158.191C241.822 156.02 241.388 155.146 240.054 155.146C238.721 155.146 238.287 156.02 238.546 158.191ZM293.057 160.525C291.943 162.134 291.525 163.733 292.118 164.118C292.706 164.499 293.997 163.599 294.986 162.117C298.32 157.119 296.472 155.594 293.057 160.525ZM417.689 158.755C417.299 159.417 417.527 159.958 418.194 159.958C418.861 159.958 419.408 159.417 419.408 158.755C419.408 158.093 419.181 157.552 418.902 157.552C418.624 157.552 418.078 158.093 417.689 158.755ZM182.81 159.861C181.931 161.354 184.085 165.974 185.658 165.974C187.235 165.974 186.961 163.339 185.118 160.789C184.15 159.447 183.263 159.091 182.81 159.861ZM48.0948 162.365C48.0948 163.026 48.6105 163.568 49.2408 163.568C49.8712 163.568 50.3869 163.026 50.3869 162.365C50.3869 161.703 49.8712 161.162 49.2408 161.162C48.6105 161.162 48.0948 161.703 48.0948 162.365ZM420.554 163.639C420.554 164.339 421.07 164.579 421.7 164.169C422.33 163.76 422.846 163.188 422.846 162.895C422.846 162.603 422.33 162.365 421.7 162.365C421.07 162.365 420.554 162.939 420.554 163.639ZM48.0948 167.177C48.0948 167.839 48.6105 168.381 49.2408 168.381C49.8712 168.381 50.3869 167.839 50.3869 167.177C50.3869 166.516 49.8712 165.974 49.2408 165.974C48.6105 165.974 48.0948 166.516 48.0948 167.177ZM423.61 166.777C423.19 167.217 422.846 168.137 422.846 168.822C422.846 169.575 423.38 169.504 424.202 168.642C424.948 167.858 425.292 166.938 424.966 166.596C424.641 166.253 424.03 166.335 423.61 166.777ZM238.778 171.313C237.934 173.619 238.986 176.803 240.592 176.803C242.114 176.803 242.138 171.166 240.619 170.18C239.985 169.768 239.156 170.278 238.778 171.313ZM284.358 172.132C282.172 175.805 284.508 177.83 286.862 174.301C288.559 171.757 288.474 169.584 286.677 169.584C286.235 169.584 285.192 170.73 284.358 172.132ZM190.886 173.494C192.671 176.77 193.95 177.947 194.99 177.272C195.606 176.872 195.222 175.566 194.11 174.277C191.906 171.721 189.618 171.165 190.886 173.494ZM55.2861 187.33C58.0538 191.135 67.371 204.424 75.9914 216.861L91.6633 239.473L71.311 268.862C56.3542 290.46 50.3525 298.243 48.6678 298.226C47.0084 298.208 41.2381 290.757 27.7528 271.215C11.4918 247.652 9.12986 243.652 9.12986 239.674C9.12986 235.684 11.4907 231.726 28.1562 207.766C38.6217 192.722 47.8736 180.412 48.7182 180.412C49.5617 180.412 52.5173 183.526 55.2861 187.33ZM48.0948 182.818C48.0948 183.48 48.6105 184.022 49.2408 184.022C49.8712 184.022 50.3869 183.48 50.3869 182.818C50.3869 182.157 49.8712 181.615 49.2408 181.615C48.6105 181.615 48.0948 182.157 48.0948 182.818ZM276.431 184.005C274.219 187.723 274.724 189.478 277.3 187.03C279.56 184.883 280.418 181.615 278.723 181.615C278.244 181.615 277.212 182.691 276.431 184.005ZM428.576 239.969C428.576 273.057 428.136 298.322 427.561 298.322C427.003 298.322 417.894 285.734 407.321 270.349C396.746 254.964 387.698 241.823 387.212 241.149C386.714 240.455 393.581 229.486 403.03 215.883C412.215 202.66 421.303 189.542 423.228 186.729C425.152 183.916 427.141 181.615 427.651 181.615C428.16 181.615 428.576 207.874 428.576 239.969ZM199.07 183.56C198.703 184.182 199.321 185.967 200.442 187.528C201.637 189.19 202.783 189.851 203.212 189.123C203.613 188.441 202.995 186.654 201.839 185.155C200.683 183.655 199.436 182.936 199.07 183.56ZM434.306 184.022C434.306 184.683 434.822 185.225 435.452 185.225C436.083 185.225 436.598 184.683 436.598 184.022C436.598 183.36 436.083 182.818 435.452 182.818C434.822 182.818 434.306 183.36 434.306 184.022ZM238.546 188.27C238.746 189.945 239.424 191.315 240.054 191.315C240.685 191.315 241.363 189.945 241.563 188.27C241.822 186.1 241.388 185.225 240.054 185.225C238.721 185.225 238.287 186.1 238.546 188.27ZM48.0948 187.631C48.0948 188.293 48.6105 188.834 49.2408 188.834C49.8712 188.834 50.3869 188.293 50.3869 187.631C50.3869 186.969 49.8712 186.428 49.2408 186.428C48.6105 186.428 48.0948 186.969 48.0948 187.631ZM440.036 192.444C440.036 193.106 440.552 193.647 441.182 193.647C441.813 193.647 442.328 193.106 442.328 192.444C442.328 191.782 441.813 191.241 441.182 191.241C440.552 191.241 440.036 191.782 440.036 192.444ZM267.671 196.249C265.254 199.873 266.852 201.903 269.46 198.522C270.621 197.017 271.57 195.305 271.57 194.717C271.57 192.767 269.435 193.607 267.671 196.249ZM206.977 195.786C206.185 197.133 210.509 202.809 211.518 201.749C211.983 201.261 211.673 199.51 210.83 197.856C209.271 194.8 207.969 194.099 206.977 195.786ZM443.474 197.327C443.474 198.028 443.99 198.267 444.62 197.858C445.251 197.449 445.766 196.876 445.766 196.584C445.766 196.292 445.251 196.053 444.62 196.053C443.99 196.053 443.474 196.627 443.474 197.327ZM239.1 200.465C237.6 202.04 238.319 206.882 240.054 206.882C241.201 206.882 241.774 205.679 241.774 203.272C241.774 199.823 240.742 198.74 239.1 200.465ZM445.766 200.866C445.766 201.528 446.282 202.069 446.913 202.069C447.543 202.069 448.059 201.528 448.059 200.866C448.059 200.204 447.543 199.663 446.913 199.663C446.282 199.663 445.766 200.204 445.766 200.866ZM48.0948 203.272C48.0948 203.934 48.6105 204.475 49.2408 204.475C49.8712 204.475 50.3869 203.934 50.3869 203.272C50.3869 202.611 49.8712 202.069 49.2408 202.069C48.6105 202.069 48.0948 202.611 48.0948 203.272ZM135.193 203.249C135.193 204.691 140.726 206.286 141.803 205.156C142.799 204.111 139.799 202.111 137.198 202.087C136.095 202.078 135.193 202.6 135.193 203.249ZM121.441 239.367C121.441 259.219 121.053 275.44 120.581 275.415C119.687 275.366 117.425 272.265 103.313 251.739L94.8608 239.447L107.292 221.426C114.128 211.514 120.109 203.375 120.581 203.338C121.053 203.302 121.441 219.515 121.441 239.367ZM338.566 204.556C338.15 205.261 338.059 206.1 338.363 206.419C339.235 207.334 344.916 205.537 344.916 204.345C344.916 202.827 339.477 203.008 338.566 204.556ZM449.205 205.75C449.205 206.45 449.72 206.689 450.351 206.28C450.981 205.871 451.497 205.298 451.497 205.006C451.497 204.714 450.981 204.475 450.351 204.475C449.72 204.475 449.205 205.049 449.205 205.75ZM259.24 208.068C257.481 211.025 257.459 211.694 259.124 211.694C260.457 211.694 263.446 208.211 263.511 206.581C263.586 204.728 260.61 205.765 259.24 208.068ZM363.426 211.394C365.472 214.538 370.672 222.137 374.982 228.282C379.587 234.852 382.483 240.059 382.005 240.916C380.355 243.883 358.367 275.462 357.952 275.462C357.716 275.462 357.522 259.761 357.522 240.57C357.522 219.285 357.948 205.679 358.613 205.679C359.214 205.679 361.379 208.25 363.426 211.394ZM148.448 207.956C147.728 209.179 153.431 210.997 154.491 209.882C155.298 209.037 152.437 206.927 150.445 206.9C149.695 206.89 148.796 207.365 148.448 207.956ZM216.177 207.765C215.764 208.464 216.374 210.265 217.53 211.764C218.821 213.438 219.923 214 220.383 213.218C220.795 212.519 220.186 210.717 219.029 209.218C217.739 207.545 216.637 206.983 216.177 207.765ZM326.866 208.35C324.188 209.706 323.381 211.694 325.509 211.694C327.469 211.694 331.164 209.309 331.164 208.043C331.164 206.604 330.175 206.675 326.866 208.35ZM452.07 209.288C451.68 209.95 451.908 210.491 452.575 210.491C453.242 210.491 453.789 209.95 453.789 209.288C453.789 208.626 453.562 208.085 453.283 208.085C453.005 208.085 452.459 208.626 452.07 209.288ZM163.203 213.538C165.686 215.51 168.428 215.873 168.428 214.229C168.428 212.96 165.587 211.679 162.89 211.733C161.241 211.765 161.285 212.013 163.203 213.538ZM313.687 213.178C309.526 214.661 309.524 217.034 313.684 215.938C317.361 214.969 317.791 214.633 317.244 213.154C317.001 212.495 315.577 212.505 313.687 213.178ZM454.935 214.172C454.935 214.872 455.45 215.111 456.081 214.702C456.711 214.293 457.227 213.721 457.227 213.428C457.227 213.136 456.711 212.898 456.081 212.898C455.45 212.898 454.935 213.471 454.935 214.172ZM239.068 214.936C237.593 216.485 238.339 221.32 240.054 221.32C241.113 221.32 241.774 220.191 241.774 218.383C241.774 215.364 240.367 213.571 239.068 214.936ZM175.304 217.58C175.304 218.881 181.024 220.529 181.996 219.508C182.925 218.532 179.808 216.548 177.309 216.525C176.206 216.516 175.304 216.99 175.304 217.58ZM300.44 217.606C297.561 218.374 297.319 220.973 300.187 220.316C302.178 219.86 304.329 217.965 303.582 217.325C303.31 217.091 301.895 217.217 300.44 217.606ZM457.227 217.71C457.227 218.372 457.742 218.913 458.373 218.913C459.003 218.913 459.519 218.372 459.519 217.71C459.519 217.048 459.003 216.507 458.373 216.507C457.742 216.507 457.227 217.048 457.227 217.71ZM250.889 220.22C250.185 221.6 249.952 223.088 250.37 223.526C251.147 224.342 254.38 220.439 254.38 218.684C254.38 216.772 252.146 217.755 250.889 220.22ZM224.339 219.57C223.419 220.536 226.671 226.132 228.153 226.132C229.749 226.132 229.346 224.224 227.144 221.37C226.033 219.929 224.77 219.118 224.339 219.57ZM189.056 222.393C189.056 223.694 194.776 225.342 195.748 224.32C196.677 223.345 193.56 221.361 191.062 221.338C189.958 221.328 189.056 221.802 189.056 222.393ZM285.83 223.026C284.607 223.964 283.922 225.063 284.306 225.466C285.423 226.639 291.265 223.856 290.481 222.525C289.52 220.893 288.459 221.007 285.83 223.026ZM460.665 222.594C460.665 223.294 461.181 223.534 461.811 223.124C462.441 222.715 462.957 222.143 462.957 221.85C462.957 221.558 462.441 221.32 461.811 221.32C461.181 221.32 460.665 221.894 460.665 222.594ZM48.0948 223.726C48.0948 224.388 48.6105 224.929 49.2408 224.929C49.8712 224.929 50.3869 224.388 50.3869 223.726C50.3869 223.064 49.8712 222.523 49.2408 222.523C48.6105 222.523 48.0948 223.064 48.0948 223.726ZM462.957 226.132C462.957 226.794 463.473 227.336 464.103 227.336C464.733 227.336 465.249 226.794 465.249 226.132C465.249 225.471 464.733 224.929 464.103 224.929C463.473 224.929 462.957 225.471 462.957 226.132ZM201.663 226.764C201.663 227.111 202.995 227.928 204.624 228.577C207.969 229.913 210.856 228.855 208.375 227.203C206.678 226.075 201.663 225.746 201.663 226.764ZM273.003 227.438C271.584 228.001 270.424 228.945 270.424 229.536C270.424 230.81 275.931 229.891 276.763 228.479C277.704 226.88 275.764 226.343 273.003 227.438ZM215.992 230.938C215.639 231.537 216.363 232.596 217.599 233.291C220.561 234.954 222.591 234.897 222.041 233.166C221.445 231.288 216.795 229.576 215.992 230.938ZM237.636 231.839C236.51 233.715 236.157 233.746 234.292 232.14C232.367 230.481 232.26 230.559 232.902 233.17C233.481 235.527 233.229 235.895 231.381 235.388C229.968 235 229.167 235.392 229.167 236.472C229.167 237.402 229.941 238.164 230.886 238.164C231.832 238.164 232.605 238.976 232.605 239.969C232.605 240.961 232.09 241.774 231.459 241.774C230.829 241.774 230.313 242.315 230.313 242.977C230.313 243.638 231.071 244.18 231.997 244.18C233.046 244.18 233.422 244.882 232.997 246.046C232.455 247.528 232.902 247.757 235.169 247.16C237.425 246.565 238.154 246.93 238.645 248.903C239.379 251.85 241.774 252.265 241.774 249.447C241.774 247.794 242.055 247.74 243.605 249.091C245.223 250.5 245.39 250.27 245.037 247.132C244.758 244.637 245.151 243.53 246.358 243.416C250.097 243.063 250.294 242.841 248.284 241.241C246.289 239.654 246.301 239.548 248.571 238.792C251.915 237.678 251.573 235.331 248.196 236.22C245.123 237.029 243.403 234.528 245.511 232.315C247.36 230.374 245.579 229.127 243.52 230.921C242.326 231.962 241.774 232.016 241.774 231.092C241.774 229.004 239.044 229.498 237.636 231.839ZM259.25 231.794C256.714 232.307 255.844 233.901 257.531 234.944C258.841 235.753 263.548 233.597 263.548 232.187C263.548 231.505 263.161 231.018 262.689 231.109C262.216 231.199 260.669 231.507 259.25 231.794ZM48.0948 239.367C48.0948 240.029 48.6105 240.57 49.2408 240.57C49.8712 240.57 50.3869 240.029 50.3869 239.367C50.3869 238.705 49.8712 238.164 49.2408 238.164C48.6105 238.164 48.0948 238.705 48.0948 239.367ZM109.182 264.79C114.574 272.607 118.003 278.747 118.003 280.584C118.003 282.237 118.776 284.263 119.722 285.087C122.034 287.103 122.307 325.989 120.008 326.005C119.221 326.009 104.045 321.05 86.2862 314.982C62.6264 306.9 53.8593 303.403 53.4857 301.905C53.166 300.619 60.4478 289.095 73.0748 270.907L93.1727 241.954L96.7678 246.977C98.7435 249.74 104.33 257.755 109.182 264.79ZM48.0948 244.18C48.0948 244.842 48.6105 245.383 49.2408 245.383C49.8712 245.383 50.3869 244.842 50.3869 244.18C50.3869 243.518 49.8712 242.977 49.2408 242.977C48.6105 242.977 48.0948 243.518 48.0948 244.18ZM406.796 274.211C421.192 295.129 425.144 301.654 424.282 303.087C423.412 304.535 393.76 315.355 360.101 326.506L357.522 327.361V306.973C357.522 290.319 357.837 286.311 359.241 285.087C360.187 284.263 360.96 281.976 360.96 280.003C360.96 277.366 364.034 271.966 372.578 259.594C383.74 243.429 384.273 242.858 386.195 244.98C387.296 246.194 396.566 259.348 406.796 274.211ZM256.202 245.207C255.4 246.571 261.088 249.244 262.643 248.235C263.36 247.769 262.739 246.796 261.124 245.856C257.864 243.958 257.004 243.845 256.202 245.207ZM217.74 246.539C216.813 247.155 216.402 248.024 216.827 248.47C217.904 249.6 223.437 248.005 223.437 246.563C223.437 245.075 219.967 245.061 217.74 246.539ZM467.541 246.586C467.541 247.248 468.057 247.789 468.687 247.789C469.317 247.789 469.833 247.248 469.833 246.586C469.833 245.924 469.317 245.383 468.687 245.383C468.057 245.383 467.541 245.924 467.541 246.586ZM48.0948 248.993C48.0948 249.654 48.6415 250.196 49.3084 250.196C49.9754 250.196 50.2035 249.654 49.8139 248.993C49.4242 248.331 48.8787 247.789 48.6002 247.789C48.3217 247.789 48.0948 248.331 48.0948 248.993ZM269.815 250.257C269.44 250.895 269.939 251.683 270.925 252.009C271.909 252.335 273.533 252.873 274.532 253.205C277.302 254.124 275.846 251.176 272.98 250.062C271.558 249.51 270.206 249.593 269.815 250.257ZM27.0514 274.56C39.6921 292.715 43.9645 299.734 43.819 302.099C43.615 305.4 46.1122 308.595 49.4689 309.328C52.1987 309.923 117.137 404.042 117.419 407.81C117.776 412.577 117.827 412.661 121.364 414.223C123.715 415.261 129.864 423.104 141.835 440.334C151.247 453.878 158.787 465.157 158.593 465.396C157.773 466.405 58.4091 389.498 58.4091 387.853C58.4091 386.813 57.577 386.198 56.4448 386.401C55.2334 386.619 54.3132 385.833 54.0415 384.348C53.7997 383.025 52.3065 380.497 50.7238 378.731C49.14 376.965 48.2106 374.899 48.6575 374.14C49.1045 373.379 48.7125 372.117 47.7854 371.334C46.8594 370.552 41.355 354.48 35.5538 335.62C21.8439 291.049 10.6231 254.951 9.65474 252.301C9.23071 251.143 9.15507 250.196 9.48628 250.196C9.81748 250.196 17.7216 261.16 27.0514 274.56ZM204.814 251.025C202.415 251.683 202.126 253.805 204.434 253.805C206.919 253.805 209.685 252.47 209.685 251.27C209.685 250.155 208.248 250.083 204.814 251.025ZM465.249 251.47C465.249 252.17 465.765 252.409 466.395 252C467.025 251.591 467.541 251.019 467.541 250.726C467.541 250.434 467.025 250.196 466.395 250.196C465.765 250.196 465.249 250.77 465.249 251.47ZM48.0948 255.008C48.0948 255.67 48.6105 256.211 49.2408 256.211C49.8712 256.211 50.3869 255.67 50.3869 255.008C50.3869 254.347 49.8712 253.805 49.2408 253.805C48.6105 253.805 48.0948 254.347 48.0948 255.008ZM225.676 256.315C224.973 257.695 224.685 259.126 225.036 259.494C225.982 260.488 229.167 257.38 229.167 255.463C229.167 252.971 227.127 253.469 225.676 256.315ZM283.03 254.792C283.03 256.527 288.578 258.698 289.407 257.29C290.318 255.742 290.071 255.533 286.182 254.554C284.449 254.117 283.03 254.224 283.03 254.792ZM461.811 255.008C461.811 255.67 462.327 256.211 462.957 256.211C463.587 256.211 464.103 255.67 464.103 255.008C464.103 254.347 463.587 253.805 462.957 253.805C462.327 253.805 461.811 254.347 461.811 255.008ZM191.382 256.165C190.454 256.781 190.028 257.634 190.436 258.061C191.438 259.112 195.932 257.534 195.932 256.131C195.932 254.699 193.562 254.716 191.382 256.165ZM249.505 255.715C249.1 256.139 249.593 257.807 250.599 259.419C251.891 261.489 252.787 261.975 253.646 261.072C254.506 260.17 254.184 259.081 252.553 257.368C251.281 256.033 249.91 255.29 249.505 255.715ZM459.032 258.472C458.676 259.075 459.157 259.879 460.099 260.259C461.041 260.638 461.811 260.456 461.811 259.855C461.811 258.223 459.774 257.21 459.032 258.472ZM48.0948 259.821C48.0948 260.483 48.6105 261.024 49.2408 261.024C49.8712 261.024 50.3869 260.483 50.3869 259.821C50.3869 259.159 49.8712 258.618 49.2408 258.618C48.6105 258.618 48.0948 259.159 48.0948 259.821ZM179.028 259.908C175.245 261.432 175.719 263.884 179.599 262.861C183.468 261.842 184.052 261.286 182.676 259.927C182.07 259.326 180.491 259.319 179.028 259.908ZM239.068 259.453C237.593 261.003 238.339 265.837 240.054 265.837C241.113 265.837 241.774 264.708 241.774 262.9C241.774 259.881 240.367 258.088 239.068 259.453ZM296.783 259.73C296.783 261.582 301.659 263.457 303.009 262.121C304.384 260.762 303.801 260.206 299.932 259.187C297.876 258.646 296.783 258.833 296.783 259.73ZM456.081 263.43C456.081 264.092 456.596 264.634 457.227 264.634C457.857 264.634 458.373 264.092 458.373 263.43C458.373 262.769 457.857 262.227 457.227 262.227C456.596 262.227 456.081 262.769 456.081 263.43ZM48.0948 264.634C48.0948 265.295 48.6105 265.837 49.2408 265.837C49.8712 265.837 50.3869 265.295 50.3869 264.634C50.3869 263.972 49.8712 263.43 49.2408 263.43C48.6105 263.43 48.0948 263.972 48.0948 264.634ZM309.389 264.611C309.389 266.052 314.922 267.648 315.999 266.518C316.995 265.472 313.995 263.473 311.395 263.449C310.292 263.439 309.389 263.961 309.389 264.611ZM163.877 265.79C162.95 266.406 162.502 267.236 162.882 267.634C163.854 268.656 169.574 267.007 169.574 265.707C169.574 264.308 166.031 264.359 163.877 265.79ZM217.127 268.25C215.983 269.579 215.384 271.019 215.796 271.452C216.633 272.329 221.145 268.449 221.145 266.853C221.145 265.097 219.29 265.742 217.127 268.25ZM257.818 268.658C257.818 269.549 258.849 271.257 260.11 272.454C262.819 275.028 263.325 272.627 260.807 269.146C258.988 266.63 257.818 266.44 257.818 268.658ZM454.362 268.243C454.751 268.905 455.297 269.446 455.575 269.446C455.854 269.446 456.081 268.905 456.081 268.243C456.081 267.581 455.534 267.04 454.867 267.04C454.2 267.04 453.972 267.581 454.362 268.243ZM323.141 269.316C323.141 270.617 328.861 272.265 329.833 271.244C330.763 270.268 327.645 268.284 325.147 268.261C324.045 268.252 323.141 268.726 323.141 269.316ZM150.255 270.517C147.805 272.147 150.796 273.389 153.505 271.866C154.78 271.15 155.821 270.313 155.821 270.006C155.821 269.061 151.902 269.422 150.255 270.517ZM450.924 271.853C451.313 272.514 451.859 273.056 452.137 273.056C452.416 273.056 452.643 272.514 452.643 271.853C452.643 271.191 452.096 270.649 451.429 270.649C450.762 270.649 450.534 271.191 450.924 271.853ZM138.918 274.361C137.5 274.924 136.339 275.979 136.339 276.707C136.339 278.081 140.666 277.201 142.455 275.462C144.001 273.961 141.72 273.25 138.918 274.361ZM336.894 274.106C336.894 275.593 342.356 277.347 343.441 276.208C344.437 275.163 343.673 274.581 340.043 273.625C338.051 273.1 336.894 273.277 336.894 274.106ZM48.0948 275.533C48.0948 276.233 48.6105 276.473 49.2408 276.064C49.8712 275.655 50.3869 275.082 50.3869 274.79C50.3869 274.497 49.8712 274.259 49.2408 274.259C48.6105 274.259 48.0948 274.833 48.0948 275.533ZM238.546 277.304C238.746 278.979 239.424 280.349 240.054 280.349C240.685 280.349 241.363 278.979 241.563 277.304C241.822 275.134 241.388 274.259 240.054 274.259C238.721 274.259 238.287 275.134 238.546 277.304ZM448.059 275.462C448.059 276.124 448.605 276.665 449.272 276.665C449.939 276.665 450.167 276.124 449.778 275.462C449.388 274.8 448.842 274.259 448.564 274.259C448.285 274.259 448.059 274.8 448.059 275.462ZM209.185 280.189C207.997 281.568 207.378 283.066 207.809 283.52C208.896 284.662 212.346 280.834 211.793 279.097C211.51 278.203 210.552 278.604 209.185 280.189ZM265.84 280.69C265.84 282.68 269.77 286.577 270.744 285.554C271.609 284.645 268.265 279.072 266.854 279.072C266.296 279.072 265.84 279.799 265.84 280.69ZM444.62 280.275C444.62 280.937 445.136 281.478 445.766 281.478C446.397 281.478 446.913 280.937 446.913 280.275C446.913 279.613 446.397 279.072 445.766 279.072C445.136 279.072 444.62 279.613 444.62 280.275ZM442.328 283.884C442.328 284.546 442.875 285.087 443.542 285.087C444.209 285.087 444.437 284.546 444.047 283.884C443.658 283.223 443.112 282.681 442.834 282.681C442.555 282.681 442.328 283.223 442.328 283.884ZM150.437 324.19C156.422 332.793 161.15 340.018 160.944 340.246C160.738 340.475 152.28 337.781 142.15 334.26L123.733 327.856V306.794V285.731L131.645 297.141C135.995 303.415 144.453 315.588 150.437 324.19ZM355.23 307.241V328.192L336.112 334.896C325.597 338.583 316.803 341.399 316.57 341.154C316.211 340.778 325.984 326.471 349.728 292.607C352.164 289.134 354.398 286.291 354.694 286.291C354.988 286.291 355.23 295.719 355.23 307.241ZM439.463 288.697C439.853 289.359 440.398 289.9 440.677 289.9C440.955 289.9 441.182 289.359 441.182 288.697C441.182 288.035 440.636 287.494 439.969 287.494C439.302 287.494 439.074 288.035 439.463 288.697ZM239.1 289.499C237.6 291.074 238.319 295.916 240.054 295.916C241.201 295.916 241.774 294.713 241.774 292.306C241.774 288.857 240.742 287.774 239.1 289.499ZM47.5218 291.103C47.9114 291.765 48.457 292.306 48.7354 292.306C49.0139 292.306 49.2408 291.765 49.2408 291.103C49.2408 290.441 48.6942 289.9 48.0272 289.9C47.3602 289.9 47.1321 290.441 47.5218 291.103ZM200.464 292.41C199.76 293.79 199.526 295.278 199.945 295.716C200.722 296.532 203.955 292.629 203.955 290.873C203.955 288.962 201.721 289.945 200.464 292.41ZM274.72 291.824C273.815 293.36 276.855 297.475 278.475 296.909C279.341 296.605 279.034 295.459 277.585 293.579C276.369 292.003 275.079 291.213 274.72 291.824ZM436.025 292.306C435.636 292.968 435.864 293.51 436.531 293.51C437.198 293.51 437.744 292.968 437.744 292.306C437.744 291.645 437.517 291.103 437.239 291.103C436.96 291.103 436.415 291.645 436.025 292.306ZM47.5218 295.916C47.9114 296.578 48.457 297.119 48.7354 297.119C49.0139 297.119 49.2408 296.578 49.2408 295.916C49.2408 295.254 48.6942 294.713 48.0272 294.713C47.3602 294.713 47.1321 295.254 47.5218 295.916ZM433.16 297.119C433.16 297.781 433.676 298.322 434.306 298.322C434.936 298.322 435.452 297.781 435.452 297.119C435.452 296.457 434.936 295.916 434.306 295.916C433.676 295.916 433.16 296.457 433.16 297.119ZM191.624 304.321C189.865 307.279 189.844 307.948 191.509 307.948C192.842 307.948 195.83 304.464 195.896 302.834C195.97 300.981 192.994 302.018 191.624 304.321ZM283.067 304.639C283.087 305.467 283.811 307.122 284.676 308.321C286.699 311.121 288.169 308.879 286.481 305.566C285.106 302.869 283.01 302.299 283.067 304.639ZM238.335 307.346C238.335 309.218 238.985 310.354 240.054 310.354C241.124 310.354 241.774 309.218 241.774 307.346C241.774 305.474 241.124 304.338 240.054 304.338C238.985 304.338 238.335 305.474 238.335 307.346ZM89.6383 319.096L121.441 330.035V367.118C121.441 387.514 121.053 404.183 120.581 404.161C120.109 404.139 106.055 384.302 89.3518 360.078C72.6485 335.854 57.4728 313.877 55.6277 311.241L52.2721 306.447L55.0546 307.303C56.5846 307.773 72.1465 313.08 89.6383 319.096ZM425.138 309.151C425.138 309.812 425.912 310.354 426.857 310.354C428.345 310.354 428.576 314.95 428.576 344.497C428.576 373.378 428.311 378.87 426.857 380.137C425.912 380.962 425.138 382.318 425.138 383.151C425.138 383.992 420.937 386.064 415.683 387.811C410.483 389.541 396.067 394.413 383.647 398.636C362.418 405.856 360.958 406.192 359.277 404.242C357.724 402.44 357.528 397.403 357.792 366.187L358.095 330.206L389.611 319.19C421.613 308.004 425.138 307.008 425.138 309.151ZM422.273 313.963C422.663 314.625 423.208 315.167 423.487 315.167C423.765 315.167 423.992 314.625 423.992 313.963C423.992 313.302 423.445 312.76 422.778 312.76C422.111 312.76 421.883 313.302 422.273 313.963ZM183.273 316.473C182.57 317.853 182.336 319.342 182.754 319.779C183.531 320.595 186.764 316.692 186.764 314.937C186.764 313.025 184.531 314.008 183.273 316.473ZM47.5218 316.37C47.1321 317.031 47.3602 317.573 48.0272 317.573C48.6942 317.573 49.2408 317.031 49.2408 316.37C49.2408 315.708 49.0139 315.167 48.7354 315.167C48.457 315.167 47.9114 315.708 47.5218 316.37ZM291.053 316.14C291.053 318.069 294.147 321.504 295.468 321.04C296.432 320.703 296.303 319.795 295.017 317.868C293.238 315.201 291.053 314.249 291.053 316.14ZM419.408 317.573C419.408 318.235 419.954 318.776 420.621 318.776C421.288 318.776 421.517 318.235 421.127 317.573C420.737 316.911 420.192 316.37 419.913 316.37C419.635 316.37 419.408 316.911 419.408 317.573ZM238.75 320.581C237.869 322.991 239.169 326.34 240.619 325.398C242.138 324.413 242.114 318.776 240.592 318.776C239.941 318.776 239.112 319.588 238.75 320.581ZM415.97 321.182C415.97 321.844 416.516 322.386 417.183 322.386C417.85 322.386 418.078 321.844 417.689 321.182C417.299 320.521 416.754 319.979 416.475 319.979C416.197 319.979 415.97 320.521 415.97 321.182ZM412.532 325.995C412.532 326.657 413.047 327.198 413.678 327.198C414.308 327.198 414.824 326.657 414.824 325.995C414.824 325.333 414.308 324.792 413.678 324.792C413.047 324.792 412.532 325.333 412.532 325.995ZM175.533 327.439C173.884 329.17 173.717 332.011 175.264 332.011C176.285 332.011 178.742 328.243 178.742 326.676C178.742 325.508 176.971 325.929 175.533 327.439ZM299.1 328.101C299.114 328.597 300.072 330.295 301.228 331.874C302.703 333.887 303.585 334.314 304.18 333.302C304.649 332.507 304.129 330.814 303.021 329.529C300.981 327.162 299.054 326.461 299.1 328.101ZM410.24 329.605C410.24 330.266 410.786 330.808 411.453 330.808C412.12 330.808 412.348 330.266 411.959 329.605C411.569 328.943 411.023 328.401 410.745 328.401C410.467 328.401 410.24 328.943 410.24 329.605ZM47.5218 332.011C47.1321 332.673 47.3602 333.214 48.0272 333.214C48.6942 333.214 49.2408 332.673 49.2408 332.011C49.2408 331.349 49.0139 330.808 48.7354 330.808C48.457 330.808 47.9114 331.349 47.5218 332.011ZM143.215 337.387C155.307 341.557 160.404 343.898 161.933 345.986C163.09 347.564 164.895 348.885 165.944 348.923C167.546 348.98 189.84 379.597 191.047 383.399C191.251 384.042 176.927 389.562 159.215 395.665C133.594 404.495 126.678 406.472 125.373 405.335C123.102 403.356 122.897 330.228 125.165 331.104C125.954 331.408 134.076 334.235 143.215 337.387ZM355.23 367.959C355.23 395.959 354.901 404.192 353.743 405.202C352.64 406.163 343.809 403.577 319.648 395.221C301.714 389.018 287.105 383.578 287.183 383.132C287.259 382.686 292.379 375.061 298.559 366.189C305.527 356.185 310.552 350.058 311.788 350.058C312.885 350.058 314.727 348.706 315.884 347.053C317.461 344.794 322.122 342.571 334.602 338.121C343.741 334.862 352.122 332.154 353.225 332.103C355.092 332.017 355.23 334.489 355.23 367.959ZM238.778 334.943C237.934 337.249 238.986 340.433 240.592 340.433C242.114 340.433 242.138 334.796 240.619 333.811C239.985 333.398 239.156 333.908 238.778 334.943ZM407.375 334.417C407.764 335.079 408.31 335.62 408.588 335.62C408.867 335.62 409.094 335.079 409.094 334.417C409.094 333.755 408.547 333.214 407.88 333.214C407.213 333.214 406.985 333.755 407.375 334.417ZM404.509 338.027C404.509 338.688 405.056 339.23 405.723 339.23C406.39 339.23 406.618 338.688 406.229 338.027C405.839 337.365 405.293 336.823 405.015 336.823C404.736 336.823 404.509 337.365 404.509 338.027ZM401.071 342.839C401.071 343.501 401.587 344.042 402.217 344.042C402.848 344.042 403.363 343.501 403.363 342.839C403.363 342.178 402.848 341.636 402.217 341.636C401.587 341.636 401.071 342.178 401.071 342.839ZM398.779 346.449C398.779 347.111 399.326 347.652 399.993 347.652C400.66 347.652 400.888 347.111 400.498 346.449C400.109 345.787 399.563 345.246 399.285 345.246C399.006 345.246 398.779 345.787 398.779 346.449ZM206.533 359.164C221.504 364.392 233.751 368.958 233.751 369.311C233.751 369.665 224.989 373.009 214.28 376.742L194.808 383.53L183.051 366.587C176.584 357.269 170.892 348.947 170.401 348.095C169.306 346.187 169.84 346.35 206.533 359.164ZM307.097 348.394C307.097 349.517 284.002 382.544 283.217 382.544C281.589 382.544 246.358 369.905 246.358 369.32C246.358 368.758 303.944 348.015 306.238 347.751C306.711 347.697 307.097 347.985 307.097 348.394ZM238.335 351.863C238.335 353.735 238.985 354.871 240.054 354.871C241.124 354.871 241.774 353.735 241.774 351.863C241.774 349.991 241.124 348.855 240.054 348.855C238.985 348.855 238.335 349.991 238.335 351.863ZM395.914 351.261C396.304 351.923 396.849 352.465 397.128 352.465C397.406 352.465 397.633 351.923 397.633 351.261C397.633 350.6 397.087 350.058 396.42 350.058C395.753 350.058 395.525 350.6 395.914 351.261ZM393.049 354.871C393.049 355.533 393.596 356.074 394.263 356.074C394.93 356.074 395.158 355.533 394.768 354.871C394.379 354.209 393.833 353.668 393.555 353.668C393.276 353.668 393.049 354.209 393.049 354.871ZM390.196 359.703C390.592 360.375 391.395 360.615 391.982 360.233C393.572 359.202 393.276 358.48 391.263 358.48C390.28 358.48 389.8 359.03 390.196 359.703ZM47.5218 363.293C47.9114 363.955 48.457 364.496 48.7354 364.496C49.0139 364.496 49.2408 363.955 49.2408 363.293C49.2408 362.631 48.6942 362.09 48.0272 362.09C47.3602 362.09 47.1321 362.631 47.5218 363.293ZM387.319 363.293C387.319 363.955 387.866 364.496 388.533 364.496C389.2 364.496 389.428 363.955 389.038 363.293C388.648 362.631 388.103 362.09 387.824 362.09C387.546 362.09 387.319 362.631 387.319 363.293ZM384.454 368.106C384.844 368.767 385.389 369.309 385.668 369.309C385.946 369.309 386.173 368.767 386.173 368.106C386.173 367.444 385.626 366.903 384.959 366.903C384.292 366.903 384.064 367.444 384.454 368.106ZM381.589 371.715C381.589 372.377 382.136 372.918 382.803 372.918C383.47 372.918 383.698 372.377 383.308 371.715C382.918 371.053 382.373 370.512 382.094 370.512C381.816 370.512 381.589 371.053 381.589 371.715ZM265.534 379.391L281.847 385.137L279.286 389.029C277.879 391.169 268.749 404.392 258.997 418.412C240.461 445.065 238.912 446.53 234.919 441.198C229.952 434.566 198 388.141 197.544 386.894C197.226 386.027 203.582 383.22 214.535 379.39C237.752 371.274 242.484 371.274 265.534 379.391ZM378.724 376.528C379.113 377.19 379.659 377.731 379.937 377.731C380.216 377.731 380.443 377.19 380.443 376.528C380.443 375.866 379.896 375.325 379.229 375.325C378.562 375.325 378.334 375.866 378.724 376.528ZM372.421 383.747C372.421 384.409 372.967 384.95 373.634 384.95C374.301 384.95 374.529 384.409 374.14 383.747C373.75 383.085 373.205 382.544 372.926 382.544C372.648 382.544 372.421 383.085 372.421 383.747ZM319.13 397.871C335.519 403.474 349.358 408.483 349.885 409C350.411 409.517 347.317 411.124 343.009 412.568C334.996 415.254 262.709 439.783 250.456 443.974C246.722 445.25 243.559 446.163 243.426 446.002C243.294 445.841 252.513 432.308 263.912 415.928C281.729 390.328 284.97 386.253 286.987 386.915C288.277 387.338 302.742 392.269 319.13 397.871ZM61.2741 388.56C60.8845 389.221 61.1125 389.763 61.7795 389.763C62.4465 389.763 62.9932 389.221 62.9932 388.56C62.9932 387.898 62.7663 387.356 62.4878 387.356C62.2093 387.356 61.6638 387.898 61.2741 388.56ZM214.648 416.758C227.92 435.944 234.391 446.281 234.031 447.726C233.618 449.382 226.315 452.336 203.126 460.224C177.265 469.02 172.164 470.404 168.728 469.551C165.121 468.654 162.655 465.617 145.459 440.886C134.881 425.672 126.696 413.044 127.272 412.824C127.846 412.602 128.317 411.68 128.317 410.772C128.317 409.025 189.018 387.325 192.75 387.739C193.889 387.865 203.16 400.152 214.648 416.758ZM369.556 388.56C369.945 389.221 370.78 389.763 371.41 389.763C372.04 389.763 372.237 389.221 371.848 388.56C371.458 387.898 370.624 387.356 369.993 387.356C369.363 387.356 369.166 387.898 369.556 388.56ZM421.07 389.632C420.471 390.221 406.83 400.672 390.757 412.855C374.684 425.037 351.819 442.443 339.946 451.534C323.326 464.26 317.82 467.885 316.022 467.286C314.465 466.766 313.948 466.952 314.471 467.84C314.965 468.678 314.19 469.172 312.379 469.172C310.798 469.172 308.971 470.12 308.321 471.277C307.286 473.122 306.984 473.159 305.885 471.578C304.94 470.218 304.488 470.144 304.05 471.277C303.594 472.456 289.711 472.758 239.673 472.675L175.877 472.57L205.033 462.53C227.753 454.706 234.67 452.759 236.367 453.712C239.032 455.21 245.605 452.733 244.801 450.533C244.447 449.566 253.312 446.005 271.387 439.852C286.3 434.776 310.322 426.581 324.768 421.643C339.271 416.686 351.588 413.091 352.272 413.617C354.572 415.382 359.096 414.151 361.468 411.115C363.167 408.941 367.51 406.881 377.005 403.748C384.253 401.356 397.146 396.974 405.655 394.011C422.669 388.087 422.627 388.099 421.07 389.632ZM69.8693 392.169C69.8693 392.831 70.385 393.372 71.0154 393.372C71.6457 393.372 72.1614 392.831 72.1614 392.169C72.1614 391.507 71.6457 390.966 71.0154 390.966C70.385 390.966 69.8693 391.507 69.8693 392.169ZM366.691 392.169C366.691 392.831 367.237 393.372 367.904 393.372C368.571 393.372 368.799 392.831 368.41 392.169C368.02 391.507 367.474 390.966 367.196 390.966C366.917 390.966 366.691 391.507 366.691 392.169ZM75.0265 393.372C74.6368 394.034 74.8649 394.575 75.5319 394.575C76.1989 394.575 76.7455 394.034 76.7455 393.372C76.7455 392.71 76.5186 392.169 76.2401 392.169C75.9616 392.169 75.4161 392.71 75.0265 393.372ZM79.6599 394.492C79.2966 395.108 79.5246 395.952 80.1653 396.368C80.8059 396.783 81.3296 396.279 81.3296 395.248C81.3296 393.134 80.642 392.824 79.6599 394.492ZM83.6217 396.982C83.6217 397.643 84.1374 398.185 84.7677 398.185C85.398 398.185 85.9137 397.643 85.9137 396.982C85.9137 396.32 85.398 395.779 84.7677 395.779C84.1374 395.779 83.6217 396.32 83.6217 396.982ZM364.398 396.982C364.398 397.643 364.914 398.185 365.545 398.185C366.175 398.185 366.691 397.643 366.691 396.982C366.691 396.32 366.175 395.779 365.545 395.779C364.914 395.779 364.398 396.32 364.398 396.982ZM88.7788 398.185C88.3892 398.847 88.6172 399.388 89.2842 399.388C89.9512 399.388 90.4978 398.847 90.4978 398.185C90.4978 397.523 90.2709 396.982 89.9924 396.982C89.714 396.982 89.1684 397.523 88.7788 398.185ZM94.0265 400.089C94.0815 401.491 94.3531 401.776 94.7187 400.817C95.0499 399.949 95.0086 398.91 94.6281 398.511C94.2476 398.111 93.9772 398.821 94.0265 400.089ZM360.96 400.591C360.96 401.253 361.476 401.794 362.106 401.794C362.737 401.794 363.252 401.253 363.252 400.591C363.252 399.929 362.737 399.388 362.106 399.388C361.476 399.388 360.96 399.929 360.96 400.591ZM98.52 401.865C98.52 402.566 99.0358 402.805 99.6661 402.396C100.296 401.987 100.812 401.414 100.812 401.122C100.812 400.829 100.296 400.591 99.6661 400.591C99.0358 400.591 98.52 401.165 98.52 401.865ZM103.104 402.998C103.104 403.659 103.62 404.201 104.25 404.201C104.88 404.201 105.396 403.659 105.396 402.998C105.396 402.336 104.88 401.794 104.25 401.794C103.62 401.794 103.104 402.336 103.104 402.998ZM107.688 405.475C107.688 406.175 108.204 406.415 108.834 406.005C109.465 405.596 109.98 405.024 109.98 404.731C109.98 404.439 109.465 404.201 108.834 404.201C108.204 404.201 107.688 404.775 107.688 405.475ZM112.272 406.607C112.272 407.269 112.788 407.81 113.418 407.81C114.049 407.81 114.564 407.269 114.564 406.607C114.564 405.945 114.049 405.404 113.418 405.404C112.788 405.404 112.272 405.945 112.272 406.607ZM131.182 412.623C130.792 413.285 131.02 413.826 131.687 413.826C132.354 413.826 132.901 413.285 132.901 412.623C132.901 411.961 132.674 411.42 132.395 411.42C132.117 411.42 131.571 411.961 131.182 412.623ZM135.766 413.826C135.376 414.488 135.604 415.029 136.271 415.029C136.938 415.029 137.485 414.488 137.485 413.826C137.485 413.164 137.258 412.623 136.98 412.623C136.701 412.623 136.156 413.164 135.766 413.826ZM140.35 416.232C139.96 416.894 140.188 417.435 140.855 417.435C141.522 417.435 142.069 416.894 142.069 416.232C142.069 415.571 141.842 415.029 141.564 415.029C141.285 415.029 140.74 415.571 140.35 416.232ZM144.361 417.435C144.361 418.097 144.877 418.639 145.507 418.639C146.137 418.639 146.653 418.097 146.653 417.435C146.653 416.774 146.137 416.232 145.507 416.232C144.877 416.232 144.361 416.774 144.361 417.435ZM349.5 417.435C349.5 418.097 350.016 418.639 350.646 418.639C351.276 418.639 351.792 418.097 351.792 417.435C351.792 416.774 351.276 416.232 350.646 416.232C350.016 416.232 349.5 416.774 349.5 417.435ZM149.568 418.556C149.204 419.172 149.432 420.015 150.073 420.431C150.714 420.846 151.237 420.342 151.237 419.311C151.237 417.197 150.55 416.887 149.568 418.556ZM346.635 422.248C347.025 422.91 347.57 423.451 347.849 423.451C348.127 423.451 348.354 422.91 348.354 422.248C348.354 421.586 347.807 421.045 347.14 421.045C346.473 421.045 346.245 421.586 346.635 422.248ZM163.844 423.451C163.844 424.113 164.39 424.654 165.057 424.654C165.724 424.654 165.952 424.113 165.563 423.451C165.173 422.79 164.627 422.248 164.349 422.248C164.071 422.248 163.844 422.79 163.844 423.451ZM168.428 425.929C168.428 426.629 168.943 426.868 169.574 426.459C170.204 426.05 170.72 425.477 170.72 425.185C170.72 424.893 170.204 424.654 169.574 424.654C168.943 424.654 168.428 425.228 168.428 425.929ZM343.77 425.858C343.77 426.519 344.286 427.061 344.916 427.061C345.546 427.061 346.062 426.519 346.062 425.858C346.062 425.196 345.546 424.654 344.916 424.654C344.286 424.654 343.77 425.196 343.77 425.858ZM173.012 427.061C173.012 427.723 173.528 428.264 174.158 428.264C174.788 428.264 175.304 427.723 175.304 427.061C175.304 426.399 174.788 425.858 174.158 425.858C173.528 425.858 173.012 426.399 173.012 427.061ZM177.596 428.264C177.596 428.926 178.112 429.467 178.742 429.467C179.372 429.467 179.888 428.926 179.888 428.264C179.888 427.602 179.372 427.061 178.742 427.061C178.112 427.061 177.596 427.602 177.596 428.264ZM182.18 430.67C182.18 431.332 182.696 431.873 183.326 431.873C183.956 431.873 184.472 431.332 184.472 430.67C184.472 430.009 183.956 429.467 183.326 429.467C182.696 429.467 182.18 430.009 182.18 430.67ZM191.921 433.077C191.532 433.738 191.76 434.28 192.427 434.28C193.094 434.28 193.64 433.738 193.64 433.077C193.64 432.415 193.413 431.873 193.135 431.873C192.856 431.873 192.311 432.415 191.921 433.077ZM338.04 434.28C338.04 434.942 338.556 435.483 339.186 435.483C339.816 435.483 340.332 434.942 340.332 434.28C340.332 433.618 339.816 433.077 339.186 433.077C338.556 433.077 338.04 433.618 338.04 434.28ZM195.932 435.483C195.932 436.145 196.448 436.686 197.078 436.686C197.709 436.686 198.224 436.145 198.224 435.483C198.224 434.821 197.709 434.28 197.078 434.28C196.448 434.28 195.932 434.821 195.932 435.483ZM201.09 436.686C200.7 437.348 200.928 437.889 201.595 437.889C202.262 437.889 202.809 437.348 202.809 436.686C202.809 436.024 202.582 435.483 202.303 435.483C202.025 435.483 201.479 436.024 201.09 436.686ZM205.674 437.889C205.284 438.551 205.512 439.092 206.179 439.092C206.846 439.092 207.393 438.551 207.393 437.889C207.393 437.228 207.166 436.686 206.887 436.686C206.609 436.686 206.063 437.228 205.674 437.889ZM335.175 437.889C334.785 438.551 335.301 439.092 336.321 439.092C337.341 439.092 337.856 438.551 337.467 437.889C337.077 437.228 336.561 436.686 336.321 436.686C336.08 436.686 335.564 437.228 335.175 437.889ZM210.258 440.296C210.647 440.957 211.193 441.499 211.471 441.499C211.75 441.499 211.977 440.957 211.977 440.296C211.977 439.634 211.43 439.092 210.763 439.092C210.096 439.092 209.868 439.634 210.258 440.296ZM332.31 442.702C332.31 443.364 332.825 443.905 333.456 443.905C334.086 443.905 334.602 443.364 334.602 442.702C334.602 442.04 334.086 441.499 333.456 441.499C332.825 441.499 332.31 442.04 332.31 442.702ZM224.583 444.578C224.583 445.609 225.107 446.113 225.747 445.698C226.388 445.281 226.616 444.438 226.253 443.822C225.271 442.153 224.583 442.464 224.583 444.578ZM229.167 446.311C229.167 446.973 229.683 447.515 230.313 447.515C230.944 447.515 231.459 446.973 231.459 446.311C231.459 445.65 230.944 445.108 230.313 445.108C229.683 445.108 229.167 445.65 229.167 446.311ZM329.445 446.311C329.055 446.973 329.283 447.515 329.95 447.515C330.617 447.515 331.164 446.973 331.164 446.311C331.164 445.65 330.937 445.108 330.658 445.108C330.38 445.108 329.834 445.65 329.445 446.311ZM326.58 451.124C326.58 451.786 327.095 452.327 327.726 452.327C328.356 452.327 328.872 451.786 328.872 451.124C328.872 450.462 328.356 449.921 327.726 449.921C327.095 449.921 326.58 450.462 326.58 451.124ZM248.077 452.327C247.687 452.989 247.915 453.53 248.582 453.53C249.249 453.53 249.796 452.989 249.796 452.327C249.796 451.665 249.569 451.124 249.29 451.124C249.012 451.124 248.466 451.665 248.077 452.327ZM252.088 454.734C252.088 455.395 252.603 455.937 253.234 455.937C253.864 455.937 254.38 455.395 254.38 454.734C254.38 454.072 253.864 453.53 253.234 453.53C252.603 453.53 252.088 454.072 252.088 454.734ZM323.714 454.734C323.325 455.395 323.553 455.937 324.22 455.937C324.887 455.937 325.434 455.395 325.434 454.734C325.434 454.072 325.207 453.53 324.928 453.53C324.65 453.53 324.104 454.072 323.714 454.734ZM256.672 455.937C256.672 456.598 257.188 457.14 257.818 457.14C258.448 457.14 258.964 456.598 258.964 455.937C258.964 455.275 258.448 454.734 257.818 454.734C257.188 454.734 256.672 455.275 256.672 455.937ZM261.878 457.057C261.515 457.673 261.743 458.516 262.384 458.933C263.024 459.348 263.548 458.844 263.548 457.812C263.548 455.698 262.86 455.388 261.878 457.057ZM266.413 459.546C266.803 460.208 267.348 460.749 267.627 460.749C267.905 460.749 268.132 460.208 268.132 459.546C268.132 458.884 267.585 458.343 266.918 458.343C266.252 458.343 266.023 458.884 266.413 459.546ZM320.849 459.546C320.849 460.208 321.365 460.749 321.995 460.749C322.626 460.749 323.141 460.208 323.141 459.546C323.141 458.884 322.626 458.343 321.995 458.343C321.365 458.343 320.849 458.884 320.849 459.546ZM270.424 460.749C270.424 461.411 270.94 461.953 271.57 461.953C272.201 461.953 272.716 461.411 272.716 460.749C272.716 460.088 272.201 459.546 271.57 459.546C270.94 459.546 270.424 460.088 270.424 460.749ZM280.829 463.857C280.884 465.259 281.156 465.544 281.521 464.585C281.852 463.716 281.811 462.678 281.431 462.279C281.05 461.879 280.78 462.589 280.829 463.857ZM317.411 463.156C317.411 463.817 317.927 464.359 318.557 464.359C319.188 464.359 319.703 463.817 319.703 463.156C319.703 462.494 319.188 461.953 318.557 461.953C317.927 461.953 317.411 462.494 317.411 463.156ZM285.323 465.633C285.323 466.333 285.838 466.573 286.469 466.164C287.099 465.755 287.615 465.182 287.615 464.889C287.615 464.597 287.099 464.359 286.469 464.359C285.838 464.359 285.323 464.933 285.323 465.633ZM289.907 466.765C289.907 467.427 290.422 467.968 291.053 467.968C291.683 467.968 292.199 467.427 292.199 466.765C292.199 466.103 291.683 465.562 291.053 465.562C290.422 465.562 289.907 466.103 289.907 466.765ZM294.491 469.243C294.491 469.943 295.007 470.182 295.637 469.773C296.267 469.364 296.783 468.791 296.783 468.499C296.783 468.207 296.267 467.968 295.637 467.968C295.007 467.968 294.491 468.542 294.491 469.243ZM299.075 470.375C299.075 471.036 299.591 471.578 300.221 471.578C300.851 471.578 301.367 471.036 301.367 470.375C301.367 469.713 300.851 469.172 300.221 469.172C299.591 469.172 299.075 469.713 299.075 470.375Z" fill="#98A4D7" fill-opacity="0.5"/>
</svg>
