<svg width="46" height="45" viewBox="0 0 46 45" fill="none" xmlns="http://www.w3.org/2000/svg">
<path d="M7.82129 28.6364V30.6818C7.82129 31.2614 7.58212 31.7468 7.10379 32.1382C6.62379 32.5309 6.02962 32.7273 5.32129 32.7273H2.82129C2.11296 32.7273 1.51962 32.5309 1.04129 32.1382C0.561289 31.7468 0.321289 31.2614 0.321289 30.6818V14.3182L5.57129 2.04545C5.82129 1.43182 6.26962 0.9375 6.91629 0.5625C7.56129 0.1875 8.27962 0 9.07129 0H36.5713C37.363 0 38.0821 0.1875 38.7288 0.5625C39.3738 0.9375 39.8213 1.43182 40.0713 2.04545L45.3213 14.3182V30.6818C45.3213 31.2614 45.0813 31.7468 44.6013 32.1382C44.123 32.5309 43.5296 32.7273 42.8213 32.7273H40.3213C39.613 32.7273 39.0196 32.5309 38.5413 32.1382C38.0613 31.7468 37.8213 31.2614 37.8213 30.6818V28.6364H7.82129ZM7.32129 10.2273H38.3213L35.6963 4.09091H9.94629L7.32129 10.2273ZM11.5713 22.5C12.613 22.5 13.498 22.2014 14.2263 21.6041C14.9563 21.0082 15.3213 20.2841 15.3213 19.4318C15.3213 18.5795 14.9563 17.8555 14.2263 17.2595C13.498 16.6623 12.613 16.3636 11.5713 16.3636C10.5296 16.3636 9.64462 16.6623 8.91629 17.2595C8.18629 17.8555 7.82129 18.5795 7.82129 19.4318C7.82129 20.2841 8.18629 21.0082 8.91629 21.6041C9.64462 22.2014 10.5296 22.5 11.5713 22.5ZM34.0713 22.5C35.113 22.5 35.998 22.2014 36.7263 21.6041C37.4563 21.0082 37.8213 20.2841 37.8213 19.4318C37.8213 18.5795 37.4563 17.8555 36.7263 17.2595C35.998 16.6623 35.113 16.3636 34.0713 16.3636C33.0296 16.3636 32.1446 16.6623 31.4163 17.2595C30.6863 17.8555 30.3213 18.5795 30.3213 19.4318C30.3213 20.2841 30.6863 21.0082 31.4163 21.6041C32.1446 22.2014 33.0296 22.5 34.0713 22.5ZM25.3213 45L10.3213 38.8636H20.3213V34.7727L35.3213 40.9091H25.3213V45ZM5.32129 24.5455H40.3213V14.3182H5.32129V24.5455Z" fill="#98A4D7"/>
</svg>
