<svg width="123" height="51" viewBox="0 0 123 51" fill="none" xmlns="http://www.w3.org/2000/svg">
<mask id="mask0_356_3480" style="mask-type:alpha" maskUnits="userSpaceOnUse" x="48" y="12" width="26" height="25">
<rect x="48.4673" y="12" width="25" height="25" fill="#4F5A68"/>
</mask>
<g mask="url(#mask0_356_3480)">
<path d="M57.841 26.0609L58.8826 26.0608L58.8827 23.8907L59.9244 23.8906C60.2195 23.8906 60.4671 23.7864 60.6671 23.5781C60.8664 23.3705 60.9661 23.1129 60.9661 22.8055L60.9662 21.7204C60.9662 21.413 60.8665 21.1551 60.6672 20.9468C60.4672 20.7392 60.2197 20.6354 59.9245 20.6354L57.8412 20.6355L57.841 26.0609ZM58.8828 22.8056L58.8828 21.7205L59.9245 21.7205L59.9244 22.8056L58.8828 22.8056ZM62.0076 26.0607L64.091 26.0606C64.3861 26.0606 64.6337 25.9564 64.8337 25.748C65.033 25.5404 65.1327 25.2829 65.1327 24.9754L65.1328 21.7202C65.1328 21.4128 65.0332 21.1549 64.8339 20.9466C64.6339 20.739 64.3863 20.6352 64.0912 20.6352L62.0079 20.6353L62.0076 26.0607ZM63.0493 24.9755L63.0495 21.7203L64.0912 21.7203L64.091 24.9755L63.0493 24.9755ZM66.1743 26.0605L67.216 26.0604L67.2161 23.8903L68.2577 23.8902L68.2578 22.8052L67.2161 22.8052L67.2162 21.7201L68.2578 21.7201L68.2579 20.635L66.1745 20.6351L66.1743 26.0605ZM56.799 32.0288C56.2261 32.0288 55.7358 31.8165 55.3282 31.3919C54.9199 30.9666 54.7158 30.4555 54.7158 29.8587L54.7164 16.8379C54.7164 16.2411 54.9206 15.73 55.3289 15.3047C55.7366 14.88 56.2269 14.6677 56.7998 14.6677L69.2998 14.6671C69.8727 14.6671 70.3633 14.8794 70.7717 15.304C71.1793 15.7293 71.3831 16.2403 71.383 16.8371L71.3825 29.858C71.3824 30.4548 71.1786 30.9658 70.7709 31.3912C70.3626 31.8158 69.8719 32.0282 69.299 32.0282L56.799 32.0288ZM56.7991 29.8586L69.2991 29.8581L69.2997 16.8372L56.7997 16.8378L56.7991 29.8586ZM52.6322 36.3693C52.0592 36.3693 51.569 36.157 51.1614 35.7324C50.753 35.3071 50.5489 34.796 50.5489 34.1992L50.5496 19.0082L52.6329 19.0081L52.6323 34.1991L67.2156 34.1984L67.2155 36.3686L52.6322 36.3693Z" fill="#98A4D7"/>
</g>
</svg>
