<svg width="45" height="45" viewBox="0 0 45 45" fill="none" xmlns="http://www.w3.org/2000/svg">
<path d="M43.0091 10.575L43.0364 10.55L32.8909 1.25L30 3.9L35.7545 9.175C33.1909 10.075 31.3636 12.325 31.3636 15C31.3636 15.8208 31.54 16.6335 31.8826 17.3918C32.2253 18.1501 32.7275 18.8391 33.3606 19.4194C34.6393 20.5915 36.3735 21.25 38.1818 21.25C39.1636 21.25 40.0636 21.05 40.9091 20.725V38.75C40.9091 39.413 40.6218 40.0489 40.1103 40.5178C39.5988 40.9866 38.9051 41.25 38.1818 41.25C37.4585 41.25 36.7648 40.9866 36.2533 40.5178C35.7419 40.0489 35.4545 39.413 35.4545 38.75V27.5C35.4545 26.1739 34.8799 24.9021 33.8569 23.9645C32.834 23.0268 31.4466 22.5 30 22.5H27.2727V5C27.2727 3.67392 26.6981 2.40215 25.6751 1.46447C24.6522 0.526784 23.2648 0 21.8182 0H5.45455C4.00791 0 2.62052 0.526784 1.5976 1.46447C0.574673 2.40215 0 3.67392 0 5V45H27.2727V26.25H31.3636V38.75C31.3636 40.4076 32.082 41.9973 33.3606 43.1694C34.6393 44.3415 36.3735 45 38.1818 45C39.0772 45 39.9638 44.8383 40.791 44.5242C41.6182 44.2102 42.3699 43.7498 43.003 43.1694C43.6361 42.5891 44.1383 41.9001 44.481 41.1418C44.8236 40.3835 45 39.5708 45 38.75V15C45 13.275 44.2364 11.7 43.0091 10.575ZM38.1818 17.5C37.4585 17.5 36.7648 17.2366 36.2533 16.7678C35.7419 16.2989 35.4545 15.663 35.4545 15C35.4545 14.337 35.7419 13.7011 36.2533 13.2322C36.7648 12.7634 37.4585 12.5 38.1818 12.5C38.9051 12.5 39.5988 12.7634 40.1103 13.2322C40.6218 13.7011 40.9091 14.337 40.9091 15C40.9091 15.663 40.6218 16.2989 40.1103 16.7678C39.5988 17.2366 38.9051 17.5 38.1818 17.5ZM10.9091 37.5V26.25H5.45455L16.3636 7.5V20H21.8182L10.9091 37.5Z" fill="#98A4D7"/>
</svg>
