<svg width="480" height="480" viewBox="0 0 480 480" fill="none" xmlns="http://www.w3.org/2000/svg">
<path fill-rule="evenodd" clip-rule="evenodd" d="M264.008 2.34141C263.308 3.6293 262.987 5.32732 263.295 6.11493C263.607 6.91606 253.959 17.289 241.367 29.689L218.883 51.831H158.163C105.585 51.831 97.2526 51.6045 96.0203 50.1408C94.3114 48.1104 90.1482 47.929 88.2473 49.8028C86.3943 51.6293 86.5166 55.2056 88.5056 57.3758C89.8202 58.8101 90.1894 65.2338 90.4146 90.507L90.6935 121.859L47.9244 164.028C16.9464 194.572 4.44437 206.197 2.57769 206.197C0.284632 206.197 0 206.757 0 211.268C0 215.781 0.283489 216.338 2.5834 216.338C4.41465 216.338 11.567 222.655 27.16 238.038L49.1533 259.74V319.922C49.1533 373.795 48.9589 380.316 47.3026 382.119C42.7885 387.037 49.9157 393.714 54.9168 389.253C56.9161 387.469 60.5614 387.193 88.5262 386.711L119.894 386.17L163.416 428.999C195.902 460.967 206.755 472.304 206.211 473.703C205.313 476.008 208.745 480 211.624 480C214.116 480 217.726 475.008 216.569 473.163C216.069 472.364 224.549 463.18 238.464 449.451L261.176 427.042H321.917C374.515 427.042 382.849 427.269 384.081 428.732C385.79 430.763 389.953 430.944 391.854 429.07C393.755 427.197 393.571 423.093 391.512 421.408C390.063 420.223 389.797 415.172 389.797 388.871V357.735L432.657 315.499C456.28 292.22 476.419 273.257 477.524 273.251C479.104 273.242 479.604 272.104 479.879 267.887C480.2 262.945 480.024 262.535 477.581 262.535C475.668 262.535 468.702 256.384 452.371 240.272L429.805 218.008V158.756C429.805 100.935 429.86 99.4546 432.092 97.4648C435.2 94.693 434.964 91.698 431.461 89.4355C428.686 87.6439 428.379 87.6699 425.219 89.973C422.011 92.311 420.826 92.3944 390.706 92.3944H359.516L316.462 49.9673C292.127 25.9854 273.65 6.91831 273.964 6.11155C275.041 3.3431 272.123 0 268.628 0C266.407 0 264.852 0.788732 264.008 2.34141ZM313.781 51.0107L354.932 91.831L330.636 92.1352C309.527 92.3989 305.957 92.1927 303.428 90.5589C300.66 88.7707 300.35 88.7977 297.192 91.0997C293.9 93.4986 293.362 93.5211 238.382 93.5211C207.865 93.5211 182.896 93.173 182.896 92.747C182.896 92.3211 201.286 73.6237 223.762 51.1955C261.524 13.5155 264.932 10.4101 268.628 10.3042C272.417 10.1972 274.818 12.3628 313.781 51.0107ZM207.309 63.3803C202.85 67.8727 195.053 75.733 189.983 80.8451C183.569 87.3127 179.941 90.1408 178.058 90.1408C174.597 90.1408 172.608 92.1183 172.608 95.5606C172.608 97.6259 163.297 107.441 133.684 136.593C112.276 157.666 94.58 174.723 94.3571 174.497C94.1354 174.27 93.7867 148.393 93.5821 116.994C93.2266 62.3707 93.3032 59.8017 95.3642 57.5572C97.4927 55.2383 98.1945 55.2113 156.467 55.2113H215.417L207.309 63.3803ZM425.243 96.9115C427.492 99.1279 427.534 100.391 427.244 157.031L426.948 214.888L410.087 198.901C396.705 186.213 393.226 182.3 393.226 179.934C393.226 176.656 388.555 172.752 386.286 174.134C385.047 174.889 306.351 98.6096 306.351 96.6535C306.351 95.7161 326.292 95.2608 383.224 94.8991C421.66 94.6558 423.021 94.7211 425.243 96.9115ZM294.92 96.6287C294.92 97.8648 240.239 151.545 239.602 150.934C235.018 146.55 200.417 112.611 193.209 105.43L183.518 95.7746H239.219C269.854 95.7746 294.92 96.1589 294.92 96.6287ZM174.161 175.95C172.382 177.89 169.742 178.028 134.709 178.028C114.058 178.028 97.1634 177.651 97.1634 177.189C97.1634 176.728 114.781 158.978 136.315 137.745L175.466 99.1414L175.768 136.507C176.038 170.08 175.875 174.083 174.161 175.95ZM210.031 126.465L237.754 153.776L225.491 165.902L213.227 178.028L198.919 177.991C186.634 177.958 184.247 177.654 182.039 175.838L179.467 173.723V136.439C179.467 107.483 179.784 99.1549 180.886 99.1549C181.668 99.1549 194.783 111.445 210.031 126.465ZM300.365 136.818C300.656 172.465 300.58 173.967 298.413 175.958C296.464 177.748 294.174 178.024 281.536 177.997L266.914 177.966L259.484 170.83C255.397 166.907 249.751 161.334 246.938 158.448L241.823 153.201L269.228 126.157C284.76 110.83 297.377 99.2496 298.349 99.4299C299.825 99.7037 300.106 104.918 300.365 136.818ZM381.795 177.177C381.795 177.645 365.207 178.011 344.93 177.991C310.578 177.956 307.89 177.81 305.493 175.838L302.921 173.723V136.163V98.6039L342.358 137.465C364.049 158.838 381.795 176.709 381.795 177.177ZM91.4479 150.423C91.4479 170.946 91.1919 174.648 89.7733 174.648C88.1227 174.648 85.7324 177.91 85.7324 180.163C85.7324 180.8 86.7658 182.27 88.0301 183.43C90.2774 185.495 90.3208 186.71 90.0305 240.256L89.7333 294.97L48.2674 254.809C11.8791 219.565 6.80487 214.234 6.83002 211.273C6.85517 208.353 12.4266 202.408 48.2902 167.048C71.0779 144.58 90.1105 126.197 90.5849 126.197C91.0593 126.197 91.4479 137.099 91.4479 150.423ZM260.627 177.161C260.627 177.638 251.11 178.028 239.479 178.028C227.848 178.028 218.332 177.657 218.332 177.204C218.332 176.752 223.08 171.68 228.884 165.936L239.435 155.492L250.031 165.893C255.859 171.614 260.627 176.684 260.627 177.161ZM173.947 182.146C175.777 183.779 176.037 185.921 176.037 199.35V214.688L164.047 226.466L152.058 238.243L123.882 210.533C107.081 194.01 96.0272 182.31 96.5016 181.552C97.0663 180.651 108.147 180.282 134.577 180.282C167.662 180.282 172.091 180.491 173.947 182.146ZM209.187 181.143C209.187 181.617 202.5 188.581 194.327 196.62L179.467 211.235V198.012C179.467 180.326 179.301 180.5 196.327 180.375C203.401 180.323 209.187 180.669 209.187 181.143ZM282.619 198.015L300.635 215.749V239.974V264.199L282.645 281.959L264.654 299.718H240.077H215.501L197.483 281.985L179.467 264.251V239.463V214.674L196.885 197.478L214.304 180.282H239.453H264.601L282.619 198.015ZM298.189 182.931C300.529 185.386 300.69 186.499 300.388 198.161L300.064 210.744L284.648 195.512L269.232 180.282H282.448C294.844 180.282 295.82 180.446 298.189 182.931ZM382.938 181.699C382.938 182.478 370.464 195.401 355.218 210.414L327.498 237.713L315.21 225.708L302.921 213.703V199.687C302.921 186.694 303.109 185.474 305.493 182.995L308.065 180.321L345.502 180.301C374.821 180.286 382.938 180.589 382.938 181.699ZM432.028 224.724C464.804 256.932 473.243 265.815 473.243 268.11C473.243 270.405 464.687 279.429 431.567 312.066L389.889 353.137L389.558 329.725C389.257 308.607 389.421 306.14 391.226 304.532C393.915 302.135 393.765 297.829 390.94 296.338C388.702 295.157 388.654 293.979 388.654 240.148C388.654 192.27 388.97 182.588 390.494 183.944C390.669 184.098 409.359 202.45 432.028 224.724ZM122.022 267.884L93.7341 295.769V240V184.231L122.022 212.116L150.312 240L122.022 267.884ZM386.101 267.66L385.796 295.318L358.362 268.185C343.273 253.261 330.693 240.795 330.407 240.482C330.121 240.17 342.467 227.506 357.842 212.343L385.796 184.77L386.101 212.384C386.27 227.573 386.27 252.446 386.101 267.66ZM175.794 249.801L175.466 260.845L164.778 250.275L154.09 239.705L164.778 229.121L175.466 218.536L175.794 228.647C175.974 234.207 175.974 243.726 175.794 249.801ZM314.06 250.979L302.921 261.957V240V218.043L314.06 229.021L325.197 240L314.06 250.979ZM164.301 253.783L176.037 265.312V280.454C176.037 292.963 175.708 295.956 174.145 297.657C172.386 299.574 169.633 299.718 134.776 299.718C108.48 299.718 97.064 299.344 96.5119 298.464C96.0501 297.727 107.24 285.852 123.584 269.732C138.907 254.619 151.695 242.254 152.004 242.254C152.312 242.254 157.846 247.441 164.301 253.783ZM382.938 298.301C382.938 299.411 374.754 299.718 345.216 299.718C298.924 299.718 302.921 301.501 302.921 280.863V266.516L315.196 254.38L327.469 242.242L355.204 269.564C370.458 284.589 382.938 297.522 382.938 298.301ZM86.8755 299.905C86.8755 303.616 89.9128 306.843 92.7225 306.118C94.2577 305.723 104.925 315.548 133.704 343.869C155.101 364.927 172.608 382.622 172.608 383.191C172.608 383.805 149.176 384.225 114.881 384.225C58.6787 384.225 57.0944 384.166 54.8688 381.972C52.642 379.777 52.5826 378.216 52.5826 321.423V263.127L69.7291 280C83.3411 293.395 86.8755 297.499 86.8755 299.905ZM197.241 299.472C179.465 299.902 179.467 299.903 179.467 281.988V268.764L194.918 283.959L210.369 299.155L197.241 299.472ZM300.635 282.817C300.635 299.679 300.593 299.718 282.647 299.718H269.233L284.06 285.07C292.215 277.014 299.281 270.423 299.762 270.423C300.242 270.423 300.635 276 300.635 282.817ZM173.496 303.726C176.036 305.479 176.037 305.491 176.037 343.438V381.396L136.666 342.599C115.011 321.261 97.5521 303.39 97.8676 302.887C98.1831 302.384 114.757 301.972 134.699 301.972C165.665 301.972 171.327 302.228 173.496 303.726ZM220.378 309.085C224.596 312.996 230.257 318.424 232.957 321.145L237.864 326.092L209.942 353.617C193.5 369.823 181.494 380.82 180.742 380.363C179.846 379.816 179.467 368.701 179.467 342.931C179.467 298.273 177.688 302.065 198.659 302.009L212.707 301.972L220.378 309.085ZM260.627 302.841C260.627 303.318 255.997 308.251 250.339 313.803L240.051 323.896L229.763 313.803C224.105 308.251 219.475 303.318 219.475 302.841C219.475 302.363 228.734 301.972 240.051 301.972C251.368 301.972 260.627 302.363 260.627 302.841ZM297.99 304.421L300.635 306.872V343.228C300.635 368.719 300.254 379.817 299.363 380.361C298.616 380.816 286.557 369.781 270.191 353.666L242.291 326.197L254.703 314.084L267.115 301.972H281.229C294.148 301.972 295.568 302.179 297.99 304.421ZM381.795 302.941C381.795 304.251 305.264 380.845 303.955 380.845C303.36 380.845 302.921 365.101 302.921 343.744V306.642L305.933 304.308C308.837 302.055 310.251 301.972 345.37 301.972C365.404 301.972 381.795 302.408 381.795 302.941ZM386.702 361.856L387.407 418.359L384.886 421.512L382.367 424.664L323.783 424.727C291.562 424.761 265.199 424.415 265.199 423.957C265.199 422.141 298.781 390.094 300.145 390.61C302.79 391.61 306.351 388.805 306.351 385.721C306.351 383.374 314.158 375.055 345.439 344.07C366.937 322.775 384.859 305.352 385.263 305.352C385.668 305.352 386.316 330.779 386.702 361.856ZM268.405 355.602C283.617 370.226 296.063 382.649 296.063 383.208C296.063 383.799 272.486 384.225 239.774 384.225H183.485L211.473 356.62C226.867 341.437 239.751 329.014 240.105 329.014C240.458 329.014 253.193 340.979 268.405 355.602ZM173.751 387.566C173.751 388.163 174.814 389.214 176.114 389.9C177.95 390.868 179.092 390.749 181.234 389.366C183.669 387.793 190.534 387.618 239.9 387.877L295.809 388.169L255.491 428.732C221.853 462.575 214.629 469.317 211.894 469.425C209.047 469.538 203.169 464.206 167.178 428.868C144.388 406.49 125.741 387.797 125.741 387.33C125.741 386.862 136.543 386.479 149.746 386.479C164.404 386.479 173.751 386.902 173.751 387.566Z" fill="#98A4D7" fill-opacity="0.5"/>
</svg>
