<svg width="35" height="35" viewBox="0 0 35 35" fill="#98a4d7" xmlns="http://www.w3.org/2000/svg">
<path fill-rule="evenodd" clip-rule="evenodd" d="M14.2954 0.323197C13.2278 0.494774 11.1633 1.21737 9.7075 1.92905C-1.04085 7.18346 -3.34432 21.604 5.22372 29.999C15.4198 39.9888 32.661 34.1686 34.812 20.0109C36.1686 11.0843 30.0368 2.33808 21.096 0.446507C18.4453 -0.114025 17.1621 -0.137277 14.2954 0.323197ZM11.4463 8.2559C12.3494 9.40163 12.3706 10.1831 11.5271 11.2227C10.1582 12.9103 7.2371 11.7907 7.2371 9.57849C7.2371 7.46496 10.1116 6.56163 11.4463 8.2559ZM25.1644 14.587C27.025 15.8028 27.3504 16.9658 27.3518 22.4066L27.3532 27.4447L25.3239 27.339L23.2947 27.2333L23.1182 22.8879C22.9651 19.1128 22.8518 18.4769 22.2568 18.0435C21.4602 17.4633 20.1714 17.3974 19.2499 17.8896C18.2374 18.4307 17.8245 20.1824 17.8245 23.9388V27.4095H15.8835H13.9425V20.7155V14.0215H15.8835C17.6244 14.0215 17.8245 14.0983 17.8245 14.7667C17.8245 15.4928 17.8485 15.496 18.7647 14.897C20.7675 13.5868 23.4359 13.4575 25.1644 14.587ZM11.825 20.7155V27.4095H9.7075H7.59001V20.7155V14.0215H9.7075H11.825V20.7155Z" fill="#98A4D7"/>
</svg>
