<svg width="38" height="39" viewBox="0 0 38 39" fill="#98a4d7" xmlns="http://www.w3.org/2000/svg">
<path fill-rule="evenodd" clip-rule="evenodd" d="M15.8333 0.23241C15.8333 0.38441 15.5232 0.473076 14.7842 0.532451C14.2072 0.578843 13.6816 0.703135 13.6164 0.808902C13.551 0.914669 13.1681 1.03817 12.7655 1.08361C12.2913 1.13697 12.0333 1.24258 12.0333 1.38302C12.0333 1.51855 11.8549 1.59993 11.5583 1.59993C11.2417 1.59993 11.0833 1.6791 11.0833 1.83743C11.0833 1.99624 10.9245 2.07493 10.6034 2.07493C10.3319 2.07493 10.0854 2.17389 10.036 2.30278C9.98783 2.42802 9.74082 2.57622 9.4867 2.63195C9.23273 2.68784 9.025 2.83462 9.025 2.95828C9.025 3.1098 8.84402 3.18327 8.47083 3.18327C8.08387 3.18327 7.91667 3.25483 7.91667 3.42077C7.91667 3.55139 7.81802 3.65827 7.69769 3.65827C7.5772 3.65827 7.44135 3.80077 7.39575 3.97493C7.35031 4.1491 7.19942 4.2916 7.06072 4.2916C6.92186 4.2916 6.80833 4.39848 6.80833 4.5291C6.80833 4.65973 6.70146 4.7666 6.57083 4.7666C6.44021 4.7666 6.33333 4.87348 6.33333 5.0041C6.33333 5.13473 6.25432 5.2416 6.15774 5.2416C5.91454 5.2416 5.23102 5.91072 5.22769 6.15202C5.22627 6.26095 5.11812 6.34993 4.9875 6.34993C4.85687 6.34993 4.75 6.45681 4.75 6.58743C4.75 6.71806 4.64313 6.82493 4.5125 6.82493C4.38188 6.82493 4.275 6.93846 4.275 7.07732C4.275 7.21602 4.1325 7.36691 3.95833 7.41235C3.78417 7.45795 3.64167 7.5938 3.64167 7.71429C3.64167 7.83463 3.53479 7.93327 3.40417 7.93327C3.23823 7.93327 3.16667 8.10047 3.16667 8.48743C3.16667 8.86063 3.0932 9.0416 2.94167 9.0416C2.81802 9.0416 2.67124 9.24934 2.61535 9.5033C2.55962 9.75743 2.41142 10.0044 2.28617 10.0526C2.15729 10.102 2.05833 10.3485 2.05833 10.62C2.05833 10.9411 1.97964 11.0999 1.82083 11.0999C1.6625 11.0999 1.58333 11.2583 1.58333 11.5749C1.58333 11.8715 1.50195 12.0499 1.36642 12.0499C1.22598 12.0499 1.12037 12.3079 1.06701 12.7821C1.02157 13.1847 0.898067 13.5676 0.7923 13.633C0.686534 13.6982 0.562242 14.2239 0.51585 14.8008C0.456475 15.5398 0.367808 15.8499 0.215808 15.8499C0.0408501 15.8499 0 16.4488 0 19.0166C0 21.5845 0.0408501 22.1833 0.215808 22.1833C0.367808 22.1833 0.456475 22.4934 0.51585 23.2324C0.562242 23.8094 0.686534 24.335 0.7923 24.4003C0.898067 24.4656 1.02157 24.8485 1.06701 25.2511C1.12037 25.7253 1.22598 25.9833 1.36642 25.9833C1.50195 25.9833 1.58333 26.1617 1.58333 26.4583C1.58333 26.7749 1.6625 26.9333 1.82083 26.9333C1.97964 26.9333 2.05833 27.0921 2.05833 27.4132C2.05833 27.6847 2.15729 27.9312 2.28617 27.9806C2.41142 28.0288 2.55962 28.2758 2.61535 28.5299C2.67124 28.7839 2.81802 28.9916 2.94167 28.9916C3.0932 28.9916 3.16667 29.1726 3.16667 29.5458C3.16667 29.9327 3.23823 30.0999 3.40417 30.0999C3.53479 30.0999 3.64167 30.1986 3.64167 30.3189C3.64167 30.4394 3.78417 30.5753 3.95833 30.6208C4.1325 30.6663 4.275 30.8172 4.275 30.9559C4.275 31.0947 4.38188 31.2083 4.5125 31.2083C4.64313 31.2083 4.75 31.3151 4.75 31.4458C4.75 31.5764 4.85687 31.6833 4.9875 31.6833C5.11812 31.6833 5.22627 31.7724 5.22769 31.8812C5.23102 32.1225 5.91454 32.7916 6.15774 32.7916C6.25432 32.7916 6.33333 32.8985 6.33333 33.0291C6.33333 33.1597 6.44021 33.2666 6.57083 33.2666C6.70146 33.2666 6.80833 33.3735 6.80833 33.5041C6.80833 33.6347 6.91742 33.7416 7.05074 33.7416C7.18422 33.7416 7.33432 33.8485 7.38435 33.9791C7.43454 34.1097 7.57483 34.2166 7.69611 34.2166C7.81739 34.2166 7.91667 34.3591 7.91667 34.5333C7.91667 34.7896 8.02227 34.8499 8.47083 34.8499C8.84402 34.8499 9.025 34.9234 9.025 35.0749C9.025 35.1986 9.23273 35.3454 9.4867 35.4012C9.74082 35.457 9.98783 35.6052 10.036 35.7304C10.0854 35.8593 10.3319 35.9583 10.6034 35.9583C10.9245 35.9583 11.0833 36.037 11.0833 36.1958C11.0833 36.3617 11.2505 36.4333 11.6375 36.4333C12.0009 36.4333 12.1917 36.5078 12.1917 36.6499C12.1917 36.7843 12.441 36.9 12.8478 36.9547C13.2086 37.003 13.556 37.1268 13.6195 37.2295C13.683 37.3324 14.2072 37.4544 14.7842 37.5008C15.5232 37.5601 15.8333 37.6488 15.8333 37.8008C15.8333 37.9757 16.4321 38.0166 19 38.0166C21.5679 38.0166 22.1667 37.9757 22.1667 37.8008C22.1667 37.6488 22.4768 37.5601 23.2158 37.5008C23.7928 37.4544 24.317 37.3324 24.3805 37.2295C24.444 37.1268 24.7914 37.003 25.1522 36.9547C25.559 36.9 25.8083 36.7843 25.8083 36.6499C25.8083 36.4955 26.0357 36.4333 26.6 36.4333C27.1982 36.4333 27.3917 36.3752 27.3917 36.1958C27.3917 36.0651 27.5008 35.9583 27.6341 35.9583C27.7676 35.9583 27.9159 35.8557 27.964 35.7304C28.0122 35.6052 28.2592 35.457 28.5133 35.4012C28.7673 35.3454 28.975 35.1986 28.975 35.0749C28.975 34.9234 29.156 34.8499 29.5292 34.8499C29.9161 34.8499 30.0833 34.7784 30.0833 34.6124C30.0833 34.4818 30.1902 34.3749 30.3208 34.3749C30.4515 34.3749 30.5583 34.2614 30.5583 34.1226C30.5583 33.9839 30.7008 33.833 30.875 33.7875C31.0492 33.7419 31.1917 33.6061 31.1917 33.4856C31.1917 33.3652 31.2985 33.2666 31.4292 33.2666C31.5598 33.2666 31.6667 33.1597 31.6667 33.0291C31.6667 32.8985 31.7457 32.7916 31.8423 32.7916C32.0855 32.7916 32.769 32.1225 32.7723 31.8812C32.7737 31.7724 32.8819 31.6833 33.0125 31.6833C33.1431 31.6833 33.25 31.5764 33.25 31.4458C33.25 31.3151 33.3569 31.2083 33.4875 31.2083C33.6181 31.2083 33.725 31.0947 33.725 30.9559C33.725 30.8172 33.8675 30.6663 34.0417 30.6208C34.2158 30.5753 34.3583 30.4394 34.3583 30.3189C34.3583 30.1986 34.4652 30.0999 34.5958 30.0999C34.7618 30.0999 34.8333 29.9327 34.8333 29.5458C34.8333 29.1726 34.9068 28.9916 35.0583 28.9916C35.182 28.9916 35.3288 28.7839 35.3846 28.5299C35.4404 28.2758 35.5886 28.0288 35.7138 27.9806C35.8427 27.9312 35.9417 27.6847 35.9417 27.4132C35.9417 27.0921 36.0204 26.9333 36.1792 26.9333C36.3451 26.9333 36.4167 26.7661 36.4167 26.3791C36.4167 26.0157 36.4912 25.8249 36.6333 25.8249C36.7677 25.8249 36.8834 25.5756 36.9381 25.1688C36.9864 24.808 37.1102 24.4606 37.2129 24.3971C37.3158 24.3336 37.4378 23.8094 37.4841 23.2324C37.5435 22.4934 37.6322 22.1833 37.7842 22.1833C37.9591 22.1833 38 21.5845 38 19.0166C38 16.4488 37.9591 15.8499 37.7842 15.8499C37.6322 15.8499 37.5435 15.5398 37.4841 14.8008C37.4378 14.2239 37.3158 13.6996 37.2129 13.6361C37.1102 13.5726 36.9864 13.2252 36.9381 12.8644C36.8834 12.4576 36.7677 12.2083 36.6333 12.2083C36.4912 12.2083 36.4167 12.0175 36.4167 11.6541C36.4167 11.2671 36.3451 11.0999 36.1792 11.0999C36.0204 11.0999 35.9417 10.9411 35.9417 10.62C35.9417 10.3485 35.8427 10.102 35.7138 10.0526C35.5886 10.0044 35.4404 9.75743 35.3846 9.5033C35.3288 9.24934 35.182 9.0416 35.0583 9.0416C34.9068 9.0416 34.8333 8.86063 34.8333 8.48743C34.8333 8.10047 34.7618 7.93327 34.5958 7.93327C34.4652 7.93327 34.3583 7.82639 34.3583 7.69577C34.3583 7.56514 34.2448 7.45827 34.1059 7.45827C33.9673 7.45827 33.8164 7.31577 33.7709 7.1416C33.7253 6.96743 33.5895 6.82493 33.469 6.82493C33.3486 6.82493 33.25 6.71806 33.25 6.58743C33.25 6.45681 33.1431 6.34993 33.0125 6.34993C32.8819 6.34993 32.7737 6.26095 32.7723 6.15202C32.769 5.91072 32.0855 5.2416 31.8423 5.2416C31.7457 5.2416 31.6667 5.13473 31.6667 5.0041C31.6667 4.87348 31.5598 4.7666 31.4292 4.7666C31.2985 4.7666 31.1917 4.65973 31.1917 4.5291C31.1917 4.39848 31.0781 4.2916 30.9393 4.2916C30.8006 4.2916 30.6497 4.1491 30.6042 3.97493C30.5586 3.80077 30.4228 3.65827 30.3023 3.65827C30.182 3.65827 30.0833 3.55139 30.0833 3.42077C30.0833 3.25483 29.9161 3.18327 29.5292 3.18327C29.156 3.18327 28.975 3.1098 28.975 2.95828C28.975 2.83462 28.7673 2.68784 28.5133 2.63195C28.2592 2.57622 28.0122 2.42802 27.964 2.30278C27.9159 2.17753 27.7676 2.07493 27.6341 2.07493C27.5008 2.07493 27.3917 1.96806 27.3917 1.83743C27.3917 1.65804 27.1982 1.59993 26.6 1.59993C26.0357 1.59993 25.8083 1.53771 25.8083 1.38333C25.8083 1.24891 25.559 1.13317 25.1522 1.07854C24.7914 1.03025 24.444 0.906435 24.3805 0.803677C24.317 0.70076 23.7928 0.578843 23.2158 0.532451C22.4768 0.473076 22.1667 0.38441 22.1667 0.23241C22.1667 0.0574517 21.5679 0.0166016 19 0.0166016C16.4321 0.0166016 15.8333 0.0574517 15.8333 0.23241ZM12.6667 8.71243C12.6667 8.79254 12.8758 8.90401 13.1314 8.96022C13.4803 9.03685 13.6214 9.17793 13.698 9.52689C13.7543 9.78244 13.9014 9.9916 14.025 9.9916C14.1765 9.9916 14.25 10.1726 14.25 10.5458C14.25 10.9327 14.1784 11.0999 14.0125 11.0999C13.8526 11.0999 13.775 11.2599 13.775 11.5898C13.775 11.9464 13.6889 12.102 13.4583 12.1624C13.2842 12.208 13.1417 12.3438 13.1417 12.4643C13.1417 12.6324 12.848 12.6833 11.875 12.6833C10.902 12.6833 10.6083 12.6324 10.6083 12.4643C10.6083 12.3438 10.4658 12.208 10.2917 12.1624C10.1175 12.1169 9.975 11.966 9.975 11.8273C9.975 11.6885 9.86812 11.5749 9.7375 11.5749C9.55083 11.5749 9.5 11.355 9.5 10.5458C9.5 9.73653 9.55083 9.5166 9.7375 9.5166C9.86812 9.5166 9.975 9.41764 9.975 9.29668C9.975 9.1708 10.2117 9.03242 10.5292 8.97289C10.834 8.91573 11.0833 8.80093 11.0833 8.71781C11.0833 8.63469 11.4396 8.5666 11.875 8.5666C12.3104 8.5666 12.6667 8.63215 12.6667 8.71243ZM14.25 20.5999V26.9333H11.875H9.5V20.5999V14.2666H11.875H14.25V20.5999ZM22.1667 14.8208C22.1667 15.2703 22.2268 15.3749 22.4849 15.3749C22.6599 15.3749 22.9251 15.2324 23.0742 15.0583C23.2246 14.8827 23.5413 14.7416 23.7852 14.7416C24.0706 14.7416 24.225 14.6582 24.225 14.5041C24.225 14.3089 24.5065 14.2666 25.8083 14.2666C27.0538 14.2666 27.3917 14.3135 27.3917 14.4865C27.3917 14.6124 27.6284 14.7508 27.9458 14.8103C28.2775 14.8725 28.5 15.0068 28.5 15.1446C28.5 15.2712 28.6012 15.3749 28.725 15.3749C28.8486 15.3749 28.9954 15.5827 29.0513 15.8366C29.107 16.0908 29.2553 16.3378 29.3805 16.3859C29.5323 16.4442 29.6083 16.7127 29.6083 17.1909C29.6083 17.723 29.6696 17.9083 29.8458 17.9083C30.0513 17.9083 30.0833 18.5152 30.0833 22.4208V26.9333H27.9458H25.8083V23.4499C25.8083 20.4592 25.7748 19.9666 25.5708 19.9666C25.3914 19.9666 25.3333 19.7731 25.3333 19.1749C25.3333 18.5768 25.2752 18.3833 25.0958 18.3833C24.9652 18.3833 24.8583 18.2764 24.8583 18.1458C24.8583 18.0139 24.7176 17.9083 24.5417 17.9083C24.3658 17.9083 24.225 17.8027 24.225 17.6708C24.225 17.5401 24.1181 17.4333 23.9875 17.4333C23.8569 17.4333 23.75 17.5401 23.75 17.6708C23.75 17.8307 23.5901 17.9083 23.2601 17.9083C22.9036 17.9083 22.7479 17.9944 22.6876 18.2249C22.642 18.3991 22.5061 18.5416 22.3856 18.5416C22.2047 18.5416 22.1667 19.2706 22.1667 22.7374V26.9333H19.7917H17.4167V20.5999V14.2666H19.7917H22.1667V14.8208Z" fill="#98A4D7"/>
</svg>
