<svg width="158" height="52" viewBox="0 0 158 52" fill="none" xmlns="http://www.w3.org/2000/svg">
<rect x="0.5" y="0.5" width="156.66" height="51" rx="8.5" stroke="#98A4D7"/>
<path d="M38.6984 15.9439L38.6793 33.0063L34.5777 33.0017L34.5969 15.9393L38.6984 15.9439ZM45.2764 23.0411L45.2652 33.0137L41.316 33.0093L41.3302 20.3296L45.0333 20.3338L45.2764 23.0411ZM44.8041 26.2398L43.8783 26.2622C43.8793 25.2934 43.9975 24.4303 44.2327 23.6727C44.468 22.9074 44.8007 22.2593 45.231 21.7285C45.6613 21.1978 46.1735 20.796 46.7675 20.5232C47.3694 20.2426 48.0375 20.1028 48.7719 20.1036C49.3578 20.1042 49.8929 20.1908 50.3771 20.3632C50.8691 20.5356 51.2906 20.8134 51.6418 21.1966C52.0007 21.5799 52.2736 22.088 52.4604 22.721C52.655 23.3462 52.7518 24.1198 52.7507 25.0416L52.7418 33.0221L48.7691 33.0177L48.7781 25.0255C48.7787 24.5177 48.7088 24.1309 48.5685 23.8651C48.4281 23.5915 48.2252 23.4038 47.9597 23.3019C47.6942 23.2 47.37 23.1489 46.9872 23.1485C46.581 23.148 46.2371 23.2257 45.9557 23.3817C45.6743 23.5376 45.4475 23.7561 45.2753 24.0372C45.1109 24.3104 44.9895 24.6345 44.9109 25.0094C44.8402 25.3843 44.8046 25.7945 44.8041 26.2398ZM58.8233 23.0563L58.8121 33.0289L54.8629 33.0245L54.8771 20.3448L58.5802 20.349L58.8233 23.0563ZM58.3509 26.255L57.4251 26.2773C57.4262 25.3086 57.5444 24.4455 57.7796 23.6879C58.0148 22.9225 58.3476 22.2745 58.7779 21.7437C59.2082 21.2129 59.7203 20.8112 60.3144 20.5384C60.9163 20.2578 61.5844 20.1179 62.3188 20.1188C62.9047 20.1194 63.4398 20.206 63.9239 20.3784C64.4159 20.5508 64.8375 20.8286 65.1886 21.2118C65.5476 21.595 65.8204 22.1032 66.0072 22.7362C66.2018 23.3614 66.2986 24.135 66.2976 25.0568L66.2887 33.0373L62.316 33.0328L62.325 25.0407C62.3255 24.5328 62.2556 24.146 62.1153 23.8803C61.975 23.6067 61.7721 23.4189 61.5066 23.3171C61.2411 23.2152 60.9169 23.1641 60.5341 23.1636C60.1278 23.1632 59.784 23.2409 59.5026 23.3969C59.2212 23.5528 58.9943 23.7713 58.8222 24.0524C58.6578 24.3256 58.5363 24.6497 58.4578 25.0246C58.3871 25.3995 58.3514 25.8096 58.3509 26.255ZM67.9948 26.8283L67.9951 26.5822C67.9961 25.6525 68.1299 24.7972 68.3964 24.0162C68.6629 23.2274 69.0543 22.5443 69.5706 21.9667C70.0869 21.3892 70.7241 20.9407 71.4823 20.6212C72.2404 20.294 73.1156 20.1309 74.1078 20.132C75.1078 20.1331 75.9865 20.2982 76.744 20.6271C77.5092 20.9483 78.1494 21.3982 78.6643 21.9769C79.1793 22.5556 79.5692 23.2397 79.8339 24.029C80.0987 24.8106 80.2305 25.6662 80.2295 26.5959L80.2292 26.842C80.2282 27.7638 80.0944 28.6192 79.8279 29.4079C79.5614 30.1889 79.17 30.872 78.6537 31.4574C78.1374 32.0349 77.5002 32.4834 76.742 32.8029C75.9839 33.1224 75.1087 33.2816 74.1165 33.2804C73.1243 33.2793 72.2456 33.1182 71.4803 32.797C70.7151 32.4758 70.0749 32.0259 69.56 31.4472C69.045 30.8607 68.6551 30.1767 68.3904 29.3951C68.1257 28.6058 67.9938 27.7501 67.9948 26.8283ZM71.9443 26.5866L71.944 26.8327C71.9435 27.3092 71.9782 27.7546 72.048 28.1687C72.1179 28.5829 72.2346 28.9463 72.3984 29.259C72.5621 29.5638 72.7845 29.8024 73.0655 29.9746C73.3466 30.1468 73.698 30.2331 74.1199 30.2336C74.534 30.234 74.8778 30.1485 75.1515 29.9769C75.4329 29.8053 75.6558 29.5673 75.8202 29.2628C75.9846 28.9505 76.1022 28.5873 76.173 28.1734C76.2438 27.7594 76.2794 27.3141 76.28 26.8375L76.2803 26.5915C76.2808 26.1305 76.2461 25.6969 76.1762 25.2906C76.1064 24.8764 75.9896 24.513 75.8259 24.2003C75.6622 23.8798 75.4398 23.6296 75.1588 23.4496C74.8777 23.2696 74.5263 23.1793 74.1044 23.1789C73.6903 23.1784 73.3426 23.2678 73.0611 23.4472C72.7875 23.6266 72.5685 23.8764 72.404 24.1965C72.2396 24.5088 72.122 24.8719 72.0512 25.2859C71.9805 25.6921 71.9448 26.1257 71.9443 26.5866ZM86.3659 30.3528L88.8732 20.3829L93.0333 20.3876L88.8707 33.0626L86.4097 33.0598L86.3659 30.3528ZM84.9005 20.3785L87.3503 30.3539L87.3238 33.0609L84.8511 33.0581L80.7286 20.3738L84.9005 20.3785ZM100.593 29.8882L100.599 24.6617C100.599 24.3023 100.549 23.9937 100.448 23.7357C100.346 23.4778 100.186 23.2784 99.9677 23.1375C99.7492 22.9889 99.4563 22.9143 99.0891 22.9139C98.7922 22.9136 98.5382 22.9641 98.3272 23.0654C98.1161 23.1667 97.9558 23.3189 97.8462 23.5219C97.7366 23.7249 97.6816 23.9826 97.6813 24.2951L93.7321 24.2907C93.7327 23.7048 93.8622 23.1619 94.1206 22.6622C94.3868 22.1547 94.7623 21.7137 95.2471 21.3393C95.7397 20.9648 96.326 20.6764 97.0059 20.4741C97.6936 20.2639 98.4594 20.1593 99.3031 20.1602C100.311 20.1614 101.209 20.3303 101.998 20.6672C102.794 21.004 103.423 21.5086 103.883 22.181C104.343 22.8456 104.573 23.6818 104.571 24.6896L104.566 29.881C104.565 30.7091 104.611 31.3381 104.704 31.7678C104.797 32.1898 104.93 32.5611 105.101 32.8816L105.101 33.0808L101.14 33.0764C100.953 32.6855 100.813 32.2088 100.72 31.6462C100.635 31.0758 100.592 30.4898 100.593 29.8882ZM101.079 25.3302L101.1 27.4396L99.3535 27.4376C98.9864 27.4372 98.6738 27.4876 98.4159 27.5889C98.1658 27.6902 97.9625 27.8306 97.806 28.0101C97.6574 28.1818 97.5478 28.377 97.4772 28.5957C97.4145 28.8144 97.383 29.0448 97.3827 29.287C97.3825 29.5214 97.4369 29.7324 97.5461 29.92C97.6631 30.0998 97.8191 30.2406 98.0143 30.3424C98.2095 30.4442 98.4282 30.4952 98.6704 30.4955C99.1079 30.4959 99.4791 30.4143 99.784 30.2506C100.097 30.0791 100.335 29.8723 100.5 29.6303C100.664 29.3883 100.746 29.1618 100.746 28.9509L101.612 30.5691C101.455 30.8814 101.275 31.1976 101.072 31.5177C100.876 31.8378 100.63 32.1344 100.332 32.4075C100.043 32.6728 99.6873 32.8911 99.2652 33.0625C98.8431 33.2261 98.3313 33.3076 97.7298 33.3069C96.9485 33.306 96.23 33.1451 95.5741 32.824C94.926 32.503 94.407 32.0571 94.017 31.4863C93.627 30.9078 93.4324 30.2435 93.4333 29.4935C93.434 28.8372 93.5518 28.2514 93.7868 27.7361C94.0296 27.2207 94.3933 26.7836 94.8781 26.4248C95.3629 26.066 95.9804 25.7932 96.7306 25.6066C97.4808 25.4199 98.3637 25.3271 99.3793 25.3283L101.079 25.3302ZM113.447 20.4105L113.444 23.1526L105.804 23.1441L105.807 20.4019L113.447 20.4105ZM107.416 17.2513L111.365 17.2558L111.352 28.9511C111.351 29.287 111.39 29.5488 111.468 29.7364C111.546 29.9161 111.679 30.0452 111.866 30.1235C112.061 30.1941 112.319 30.2295 112.639 30.2299C112.866 30.2301 113.054 30.2264 113.202 30.2188C113.35 30.2033 113.491 30.1839 113.624 30.1607L113.621 32.9849C113.285 33.0939 112.933 33.1755 112.566 33.2298C112.199 33.2919 111.808 33.3227 111.394 33.3222C110.55 33.3213 109.828 33.1877 109.226 32.9214C108.633 32.6551 108.18 32.2366 107.868 31.6659C107.556 31.0953 107.401 30.3529 107.402 29.4388L107.416 17.2513ZM120.98 18.6509L120.983 16.0283L120.115 18.65L119.665 18.6495L118.796 16.0188L118.793 18.6485L118.013 18.6476L118.017 14.8578L118.98 14.8588L119.891 17.5528L120.836 14.8609L121.765 14.862L121.76 18.6518L120.98 18.6509ZM117.49 14.8572L117.489 15.5181L116.526 15.517L116.522 18.6389L115.678 18.638L115.682 15.5161L114.69 15.515L114.691 14.854L117.49 14.8572Z" fill="#98A4D7"/>
</svg>
