<svg width="45" height="45" viewBox="0 0 45 45" fill="none" xmlns="http://www.w3.org/2000/svg">
<path d="M15.6118 30.3062V15.6123H30.3057V30.3062H15.6118ZM20.5098 25.4083H25.4078V20.5103H20.5098V25.4083ZM15.6118 45.0001V40.1021H10.7139C9.36695 40.1021 8.21429 39.6229 7.25593 38.6646C6.29593 37.7046 5.81593 36.5511 5.81593 35.2042V30.3062H0.917969V25.4083H5.81593V20.5103H0.917969V15.6123H5.81593V10.7144C5.81593 9.36744 6.29593 8.21478 7.25593 7.25642C8.21429 6.29642 9.36695 5.81642 10.7139 5.81642H15.6118V0.918457H20.5098V5.81642H25.4078V0.918457H30.3057V5.81642H35.2037C36.5506 5.81642 37.7041 6.29642 38.6641 7.25642C39.6225 8.21478 40.1016 9.36744 40.1016 10.7144V15.6123H44.9996V20.5103H40.1016V25.4083H44.9996V30.3062H40.1016V35.2042C40.1016 36.5511 39.6225 37.7046 38.6641 38.6646C37.7041 39.6229 36.5506 40.1021 35.2037 40.1021H30.3057V45.0001H25.4078V40.1021H20.5098V45.0001H15.6118ZM35.2037 35.2042V10.7144H10.7139V35.2042H35.2037Z" fill="#98A4D7"/>
<mask id="mask0_302_1870" style="mask-type:alpha" maskUnits="userSpaceOnUse" x="0" y="0" width="45" height="45">
<rect width="44.0816" height="44.0816" fill="#D9D9D9"/>
</mask>
<g mask="url(#mask0_302_1870)">
</g>
</svg>
