<svg width="480" height="480" viewBox="0 0 480 480" fill="none" xmlns="http://www.w3.org/2000/svg">
<mask id="path-1-inside-1_302_1913" fill="white">
<path fill-rule="evenodd" clip-rule="evenodd" d="M229.76 16.4679L220.423 32.9072H169.964H119.503L107.961 52.8257C101.613 63.7801 90.6468 82.6775 83.5914 94.8187L70.7637 116.893L51.793 117.194C41.3587 117.359 32.8312 117.853 32.8411 118.292C32.8522 118.73 36.8339 125.978 41.6894 134.4C46.546 142.82 50.5188 150.191 50.5188 150.781C50.5188 151.719 35.1638 178.401 7.62803 225.312C3.10767 233.014 -0.314391 240.031 0.022949 240.905C0.570435 242.319 24.4806 283.74 39.9761 310.116C43.1682 315.551 46.8922 322.016 48.2515 324.484L50.7235 328.97L41.7723 344.588C36.8505 353.178 32.8223 360.421 32.8223 360.686C32.8223 360.951 41.0003 361.167 50.9967 361.167H69.171L71.2581 364.186C72.4061 365.846 83.7297 385.114 96.4214 407.002L119.497 446.8H170.075H220.654L225.879 455.857C228.753 460.838 233.084 468.309 235.504 472.457L239.904 480L249.771 463.41L259.637 446.822L310.158 446.536L360.677 446.251L385.264 403.983L409.851 361.716L431.592 361.418C450.416 361.159 453.247 360.898 452.694 359.467C452.343 358.558 448.142 351.283 443.359 343.298C438.577 335.313 434.055 327.643 433.312 326.253C432.077 323.944 434.038 320.149 455.995 282.359C469.213 259.608 480.015 240.49 480 239.874C479.984 239.259 471.781 224.676 461.77 207.467C433.892 159.541 432.1 156.402 432.1 155.485C432.1 155.014 436.552 147.127 441.992 137.957C447.433 128.788 452.214 120.421 452.618 119.364C453.301 117.574 451.846 117.442 431.359 117.442H409.365L384.914 75.4492L360.463 33.4561L310.162 33.1707L259.86 32.8853L250.224 16.4284C244.924 7.37763 240.252 -0.0153461 239.843 2.39224e-05C239.432 0.0153939 234.896 7.42593 229.76 16.4679ZM244.472 29.8881C245.207 32.8468 245.122 32.9072 240.224 32.9072C237.311 32.9072 235.226 32.4011 235.226 31.693C235.226 30.3152 238.31 17.8457 239.27 15.3415C239.827 13.8879 242.006 19.9832 244.472 29.8881ZM248.963 25.9194C252.366 31.9642 252.471 32.9072 249.741 32.9072C248.127 32.9072 247.293 31.4438 245.997 26.3332C244.086 18.8041 244.893 18.6922 248.963 25.9194ZM233.722 26.9074C232.596 31.3043 231.821 32.4307 229.71 32.7349C227.21 33.0939 227.169 32.9983 228.785 30.5391C229.714 29.124 231.331 26.3157 232.378 24.2967C234.935 19.3717 235.414 20.3016 233.722 26.9074ZM160.721 58.2271C178.558 68.5294 193.372 77.3112 193.639 77.7415C193.907 78.1719 189.139 87.2808 183.043 97.9838L171.959 117.442H158.276H144.594L142.983 111.679C142.097 108.508 137.588 91.8347 132.961 74.6258C128.335 57.4169 124.285 42.4718 123.959 41.4156C122.618 37.0582 129.59 40.2464 160.721 58.2271ZM216.095 40.3178C214.708 42.8099 196.155 75.2187 195.985 75.4459C195.753 75.7588 135.992 41.2641 134.918 40.1981C134.528 39.8116 152.736 39.4944 175.381 39.4944C198.026 39.4944 216.347 39.8643 216.095 40.3178ZM229.696 40.5955C229.696 41.2015 227.767 48.7361 225.408 57.3378C223.05 65.9407 220.235 76.3286 219.152 80.4236C218.068 84.5186 216.887 87.7299 216.527 87.5597C216.166 87.3895 212.522 85.3618 208.429 83.053L200.988 78.8548L204.3 73.1723C206.122 70.0467 211.188 61.1913 215.557 53.4921C222.777 40.769 223.782 39.4944 226.598 39.4944C228.302 39.4944 229.696 39.9895 229.696 40.5955ZM247.79 41.4156C251.75 55.365 260.894 91.209 260.557 91.4692C260.312 91.658 255.993 94.1424 250.958 96.9881L241.805 102.164L230.773 95.9638C224.706 92.5538 219.742 89.167 219.742 88.4369C219.742 87.238 231.248 44.1493 232.445 40.8667C232.774 39.9621 235.379 39.4944 240.094 39.4944C245.958 39.4944 247.342 39.8402 247.79 41.4156ZM265.44 54.041C270.112 62.0422 275.43 71.116 277.261 74.2053L280.587 79.8242L272.692 84.3605C268.35 86.856 264.383 88.898 263.879 88.898C263.375 88.898 262.398 86.7989 261.708 84.2321C257.843 69.86 250.543 43.0657 250.04 41.4156C249.564 39.8501 250.149 39.4944 253.2 39.4944C256.841 39.4944 257.183 39.9017 265.44 54.041ZM347.459 40.9666C342.022 44.6356 287.42 75.7237 286.411 75.7237C285.788 75.7237 281.545 69.4253 276.98 61.726C272.415 54.0267 267.574 45.8762 266.223 43.6113L263.764 39.4944H306.702C342.957 39.4944 349.3 39.7238 347.459 40.9666ZM355.784 40.6361C355.784 41.2652 353.129 51.5159 349.885 63.4167C346.64 75.3186 342.037 92.342 339.654 101.248L335.322 117.439L322.603 117.438L309.883 117.436L298.663 98.5009C291.513 86.4355 287.819 79.1699 288.481 78.4749C289.704 77.1893 353.736 39.7348 354.954 39.5921C355.411 39.5383 355.784 40.0082 355.784 40.6361ZM131.917 79.8406L141.951 116.893L110.446 117.185C93.1188 117.346 78.7271 117.263 78.4639 117.003C77.9208 116.463 120.45 42.8231 121.318 42.8022C121.63 42.7945 126.399 59.4622 131.917 79.8406ZM372.698 66.3919C379.676 78.4683 389.147 94.7715 393.745 102.621L402.104 116.893L370.482 117.185C353.089 117.346 338.663 117.283 338.426 117.046C338.187 116.809 341.777 102.598 346.402 85.465C357.608 43.9659 358.075 42.4213 359.114 43.5015C359.606 44.0153 365.719 54.3154 372.698 66.3919ZM214.547 89.4238C216.238 90.6523 216.1 91.7996 212.809 103.826L209.234 116.893L194.094 117.199L178.954 117.504L187.858 101.829C192.755 93.2071 197.477 85.0214 198.352 83.6392L199.943 81.124L206.326 84.6076C209.836 86.5233 213.536 88.6905 214.547 89.4238ZM292.353 99.6175L302.472 116.893L286.945 117.199C278.406 117.367 271.215 117.302 270.967 117.055C270.005 116.102 264.076 92.8305 264.647 92.253C265.988 90.8961 280.098 82.4645 281.127 82.4052C281.735 82.3701 286.786 90.1155 292.353 99.6175ZM229.137 97.8027C234.42 100.889 238.324 103.813 237.813 104.303C235.715 106.312 215.305 117.442 213.717 117.442C211.543 117.442 211.491 117.991 214.83 105.514C218.213 92.8711 218.429 92.1916 219.05 92.1916C219.316 92.1916 223.855 94.7166 229.137 97.8027ZM265.08 105.692C266.949 112.325 267.621 116.325 266.862 116.292C264.821 116.203 245.967 104.895 245.898 103.719C245.824 102.428 259.646 94.2336 261.093 94.7122C261.636 94.8912 263.43 99.8326 265.08 105.692ZM252.238 111.13L262.324 116.893L252.151 117.208C246.555 117.382 237.226 117.382 231.418 117.208L220.859 116.893L231.084 111.145C236.708 107.983 241.5 105.39 241.731 105.381C241.963 105.372 246.691 107.959 252.238 111.13ZM66.0033 124.993C66.0033 127.903 62.8876 128.302 55.9727 126.279L48.8598 124.197L57.4315 124.113C62.1466 124.067 66.0033 124.463 66.0033 124.993ZM147.529 137.687C149.501 144.898 150.94 150.97 150.726 151.182C150.321 151.585 71.3012 130.698 70.5546 129.991C70.3201 129.769 70.9583 128.33 71.9726 126.793L73.8163 123.999L108.88 124.289L143.942 124.578L147.529 137.687ZM167.758 124.448C167.758 124.678 164.545 130.456 160.618 137.288C156.459 144.521 153.247 149.046 152.929 148.122C151.951 145.287 146.745 125.7 146.745 124.853C146.744 124.401 151.472 124.029 157.251 124.029C163.03 124.029 167.758 124.217 167.758 124.448ZM203.059 124.471C202.214 125.279 162.404 148.182 161.843 148.182C161.54 148.182 164.364 142.761 168.12 136.134L174.947 124.088L189.234 124.058C197.091 124.043 203.313 124.228 203.059 124.471ZM275.255 143.242C278.109 153.507 280.473 162.488 280.508 163.2C280.578 164.59 275.79 166.132 253.832 171.791L239.81 175.404L219.545 170.027C208.399 167.071 199.195 164.651 199.091 164.651C198.863 164.65 204.976 141.322 206.427 136.655C206.99 134.843 207.998 131.253 208.667 128.678L209.883 123.994L239.974 124.286L270.066 124.578L275.255 143.242ZM298.217 137.753C310.108 144.641 320.736 150.93 321.834 151.729C323.582 153.001 321.323 153.84 303.754 158.443C292.711 161.337 283.535 163.547 283.363 163.354C282.975 162.92 272.831 125.512 272.831 124.515C272.831 123.241 276.185 124.99 298.217 137.753ZM313.601 135.557C317.266 141.897 320.014 147.084 319.707 147.084C318.836 147.084 280.574 124.981 280.574 124.477C280.574 124.231 286.505 124.029 293.755 124.029H306.937L313.601 135.557ZM330.493 134.916C328.913 140.902 327.3 145.606 326.909 145.365C326.517 145.125 324.061 141.337 321.449 136.949C318.838 132.561 315.981 127.858 315.101 126.5L313.5 124.029H323.432H333.366L330.493 134.916ZM407.766 126.772C408.58 128.281 409.033 129.726 408.773 129.984C408.337 130.417 387.225 136.206 346.935 146.94C338.115 149.289 330.481 150.834 329.972 150.369C329.227 149.692 331.661 138.857 335.459 125.951C335.982 124.173 338.65 124.029 371.155 124.029H406.287L407.766 126.772ZM426.017 125.616C416.602 128.531 415.673 128.58 414.409 126.235C413.263 124.111 413.535 124.034 421.83 124.138C430.397 124.246 430.418 124.253 426.017 125.616ZM441.812 126.5C440.931 127.858 438.058 132.675 435.429 137.204C427.462 150.926 428.648 150.621 422.743 140.459C419.886 135.543 417.874 131.197 418.271 130.803C419.033 130.047 439.328 124.323 441.905 124.138C443.149 124.048 443.134 124.463 441.812 126.5ZM56.8785 129.118L62.6863 130.772L59.7454 135.909C54.5813 144.928 54.6244 144.928 49.5466 135.798C47.0404 131.291 44.9887 127.238 44.9887 126.794C44.9887 125.943 47.3855 126.412 56.8785 129.118ZM206.193 128.146C205.899 129.204 203.772 137.231 201.467 145.987C199.162 154.742 196.944 162.286 196.539 162.753C195.813 163.589 161.363 155.133 159.728 153.718C158.944 153.039 203.67 126.378 205.769 126.273C206.296 126.247 206.487 127.089 206.193 128.146ZM110.188 143.321C131.801 149.101 149.697 154.042 149.958 154.3C150.64 154.977 152.287 153.97 117.012 174.451C99.1389 184.829 83.9232 193.093 83.1977 192.817C82.1469 192.417 65.1483 163.788 59.4777 152.87C58.3772 150.75 58.8993 149.238 63.3599 141.617C66.1946 136.774 69.0493 132.812 69.703 132.812C70.3577 132.812 88.5752 137.541 110.188 143.321ZM418.044 144.273L424.451 155.696L413.086 175.013C405.174 188.463 401.253 194.152 400.178 193.742C395.602 192 331.639 154.162 332.312 153.597C332.751 153.227 349.535 148.604 369.609 143.322C389.684 138.04 406.316 133.515 406.569 133.266C406.823 133.016 408.067 132.821 409.334 132.831C411.104 132.845 413.124 135.499 418.044 144.273ZM177.989 161.463C187.57 163.997 195.409 166.456 195.409 166.928C195.409 168.208 190.028 187.924 189.548 188.399C188.828 189.114 166.135 195.242 165.722 194.832C164.634 193.753 155.623 157.803 156.206 156.867C156.578 156.268 157.713 156.02 158.726 156.316C159.74 156.613 168.409 158.929 177.989 161.463ZM324.367 157.789C324.038 158.846 321.766 167.12 319.316 176.178C316.866 185.235 314.658 193.187 314.408 193.849C313.905 195.184 292.49 190.122 290.658 188.234C289.678 187.225 283.633 166.671 284.189 166.24C284.33 166.13 291.413 164.21 299.929 161.972C308.446 159.735 316.658 157.484 318.179 156.973C322.92 155.374 325.03 155.653 324.367 157.789ZM66.4977 177.474C77.068 196.072 77.4153 196.892 75.3459 198.384C71.5478 201.121 9.05591 236.922 8.69203 236.57C8.36575 236.254 14.3262 225.824 39.7538 182.216C52.9908 159.515 53.8967 158.059 54.7572 158.09C55.1631 158.106 60.4466 166.828 66.4977 177.474ZM341.191 182.34C348.673 195.089 354.645 205.634 354.46 205.774C354.022 206.105 317.789 196.468 317.173 195.856C316.547 195.234 326.183 159.161 326.974 159.161C327.311 159.161 333.708 169.592 341.191 182.34ZM371.54 180.269C387.203 189.312 399.841 197.031 399.627 197.423C398.419 199.627 389.698 214.661 389.45 214.965C389.214 215.257 374.363 211.553 365.527 208.998C364.072 208.578 351.7 188.646 334.962 159.754C334.626 159.174 336.312 159.853 338.708 161.263C341.103 162.674 355.879 171.226 371.54 180.269ZM134.519 182.965C127.676 194.931 121.503 205.348 120.803 206.113C119.645 207.378 94.8121 214.602 94.2668 213.833C92.8334 211.813 84.8058 197.197 84.8058 196.608C84.8058 195.676 145.963 160.216 146.556 160.803C146.779 161.025 141.363 170.998 134.519 182.965ZM155.962 168.767C162.604 192.479 163.23 195.499 161.631 196.108C158.791 197.19 129.607 205.009 129.318 204.766C128.845 204.367 152.778 162.56 153.51 162.505C153.886 162.478 154.99 165.296 155.962 168.767ZM440.436 182.765C446.387 193.03 454.972 207.851 459.515 215.701C464.059 223.55 468.282 230.602 468.899 231.371C469.516 232.141 469.776 233.013 469.477 233.309C469.044 233.739 418.96 205.358 409.193 199.146C406.752 197.594 406.763 197.565 415.681 182.493C427.723 162.142 427.76 162.088 428.751 163.16C429.229 163.677 434.487 172.5 440.436 182.765ZM233.236 176.855C232.005 177.935 194.06 187.829 193.454 187.228C192.882 186.66 195.721 174.552 197.538 169.807L198.596 167.048L216.304 171.612C226.044 174.121 233.663 176.481 233.236 176.855ZM282.821 171.512C283.497 174.079 284.758 178.608 285.626 181.579C286.493 184.55 287 187.182 286.753 187.426C286.276 187.9 248.68 178.025 246.904 176.96C246.117 176.489 276.541 167.505 280.807 166.948C281.24 166.892 282.146 168.945 282.821 171.512ZM264.536 184.437C276.702 187.641 287.007 190.555 287.436 190.911C287.866 191.268 291.267 202.672 294.994 216.255L301.772 240.951L295.359 264.854L288.945 288.756L281.718 290.863C277.743 292.021 266.685 294.991 257.147 297.462L239.803 301.955L216.223 295.736C203.254 292.316 192.26 289.176 191.79 288.76C191.321 288.343 189.709 283.591 188.208 278.199C186.707 272.809 183.803 262.358 181.757 254.979L178.038 241.558L184.471 217.651C188.011 204.501 191.338 193.024 191.864 192.146C192.878 190.455 237.861 177.695 240.756 178.277C241.669 178.46 252.37 181.232 264.536 184.437ZM188.364 194.018C188.056 195.075 185.446 204.72 182.562 215.451C179.68 226.183 176.975 234.582 176.552 234.115C175.439 232.884 166.46 198.509 167.089 197.885C167.901 197.079 184.634 192.256 186.911 192.171C188.316 192.119 188.754 192.675 188.364 194.018ZM303.088 194.768C308.468 196.237 313.001 197.595 313.163 197.787C313.84 198.588 303.347 234.893 302.663 234.117C302.252 233.649 301.344 231.043 300.646 228.326C299.948 225.609 297.635 216.967 295.505 209.124C291.467 194.246 291.083 192.097 292.471 192.097C292.931 192.097 297.709 193.299 303.088 194.768ZM164.44 199.266C164.44 199.586 166.949 209.183 170.015 220.59L175.588 241.333L170.453 260.355C167.628 270.816 164.994 279.912 164.602 280.567C164.118 281.372 158.269 280.254 146.553 277.117C137.019 274.564 128.736 272.179 128.146 271.816C127.555 271.454 123.002 264.018 118.026 255.293L108.98 239.426L118.073 223.63L127.166 207.834L143.867 203.373C160.443 198.944 164.44 198.146 164.44 199.266ZM338.954 204.367L356.965 209.04L365.957 224.307C372.86 236.025 374.699 239.988 373.875 241.361C373.283 242.343 369.161 249.37 364.714 256.975L356.628 270.802L337.68 275.938C327.258 278.763 317.87 281.063 316.817 281.048C315.659 281.033 314.606 279.831 314.153 278.004C313.74 276.344 311.336 267.394 308.809 258.118L304.217 241.251L309.589 221.34C316.357 196.257 315.536 198.318 318.468 199.064C319.83 199.411 329.049 201.796 338.954 204.367ZM83.6047 207.563C86.09 211.843 88.1239 215.494 88.1239 215.676C88.1239 215.86 84.0172 217.093 78.9992 218.417C73.9811 219.741 58.9645 223.746 45.6302 227.316C32.2959 230.886 21.2046 233.627 20.9834 233.408C20.5631 232.992 77.0669 199.921 78.351 199.832C78.7547 199.805 81.1183 203.284 83.6047 207.563ZM464.194 234.709C463.331 235.007 396.715 217.547 395.822 216.789C395.641 216.634 397.764 212.79 400.543 208.248L405.593 199.99L435.393 217.177C451.783 226.63 464.743 234.519 464.194 234.709ZM117.987 211.222C117.987 211.92 106.884 230.933 105.866 231.982C105.379 232.482 102.962 229.28 100.496 224.865C98.0285 220.45 96.1736 216.677 96.3727 216.479C96.8339 216.02 114.763 211.071 116.604 210.893C117.365 210.821 117.987 210.969 117.987 211.222ZM377.227 214.584C382.634 216.069 387.218 217.443 387.414 217.638C387.83 218.051 379.106 232.717 378.445 232.717C378.201 232.717 375.907 229.136 373.345 224.758C370.784 220.38 367.968 215.687 367.086 214.328C365.106 211.276 365.185 211.278 377.227 214.584ZM95.6339 228.442C98.8027 233.941 101.396 238.927 101.396 239.523C101.396 241.443 89.8217 261.212 88.677 261.247C86.6828 261.309 11.279 241.203 10.3146 240.353C9.79806 239.897 12.0378 238.782 15.2917 237.874C37.8592 231.58 86.7691 218.597 88.1682 218.529C89.1957 218.478 92.1554 222.41 95.6339 228.442ZM429.335 228.393C447.584 233.266 464.507 237.885 466.94 238.658L471.364 240.062L465.281 241.82C452.261 245.582 396.602 260.163 395.309 260.151C394.557 260.144 392.336 257.303 390.373 253.838C388.411 250.373 385.721 245.723 384.397 243.504L381.989 239.469L387.931 229.506C391.199 224.027 394.386 219.541 395.014 219.538C395.641 219.535 411.085 223.52 429.335 228.393ZM58.0498 271.383C68.7219 277.523 76.9685 282.943 76.6865 283.632C74.9024 287.969 55.0149 321.077 54.2384 321.002C53.7142 320.95 50.9967 316.998 48.2017 312.219C31.202 283.152 8.48962 243.722 8.48962 243.275C8.48962 242.987 15.3338 246.714 23.6976 251.559C32.0625 256.404 47.5204 265.325 58.0498 271.383ZM465.022 245.416C464.678 245.759 453.023 252.601 439.123 260.623C425.223 268.644 412.048 276.279 409.844 277.591L405.838 279.977L401.273 272.349C398.762 268.153 396.707 264.257 396.707 263.691C396.707 263.125 408.278 259.595 422.422 255.847C436.566 252.099 451.373 248.118 455.327 247C462.797 244.889 466.097 244.349 465.022 245.416ZM69.5979 259.08C79.1784 261.667 87.0179 264.226 87.0179 264.767C87.0179 266.094 78.9649 279.925 78.1929 279.925C77.3623 279.925 22.576 248.163 21.3107 246.948C20.3408 246.017 32.9329 249.181 69.5979 259.08ZM383.385 253.751C385.895 258.073 387.556 261.966 387.074 262.4C385.78 263.568 366.915 268.285 366.235 267.609C365.776 267.154 377.914 245.892 378.634 245.892C378.736 245.892 380.873 249.429 383.385 253.751ZM449.722 281.134C438.711 300.093 429.312 316.01 428.834 316.505C428.076 317.29 407.767 284.33 407.767 282.313C407.767 281.467 468.874 245.799 469.412 246.333C469.594 246.513 460.734 262.174 449.722 281.134ZM112.627 258.005C117.124 265.873 118.405 268.947 117.185 268.947C114.742 268.947 97.7022 264.347 96.5829 263.385C95.6118 262.551 104.198 246.961 105.593 247.027C106.022 247.047 109.187 251.987 112.627 258.005ZM182.653 267.081C185.552 277.829 187.671 286.874 187.363 287.18C187.055 287.486 182.518 286.62 177.28 285.258C170.708 283.546 167.758 282.272 167.758 281.145C167.758 279.706 174.749 252.199 176.13 248.205C176.421 247.364 176.822 246.87 177.021 247.107C177.22 247.344 179.755 256.332 182.653 267.081ZM308.233 265.001C310.715 274.001 312.351 281.737 311.868 282.19C310.795 283.196 292.796 288.041 292.252 287.47C291.9 287.1 300.895 251.991 302.341 248.087C303.086 246.078 302.751 245.114 308.233 265.001ZM394.951 273.286C397.742 278.09 400.025 282.258 400.025 282.55C400.025 283.588 335.749 320.786 335.088 320.13C334.823 319.868 341.012 308.861 348.839 295.672L363.071 271.691L375.741 268.195C382.71 266.271 388.741 264.666 389.144 264.627C389.548 264.587 392.16 268.484 394.951 273.286ZM107.184 269.006C114.038 270.849 120.242 272.949 120.97 273.672C122.583 275.273 148.074 319.602 147.62 320.017C147.365 320.25 111.027 299.411 87.8651 285.749L83.7794 283.34L88.9778 274.496C91.838 269.633 94.3 265.653 94.4504 265.653C94.6009 265.653 100.331 267.162 107.184 269.006ZM353.572 275.08C353.572 276.139 326.587 321.574 326.192 321.181C325.28 320.276 316.088 284.927 316.626 284.394C317.251 283.774 349.718 274.804 352.189 274.568C352.95 274.495 353.572 274.726 353.572 275.08ZM148.403 280.047C155.702 281.928 162.106 283.863 162.634 284.35C163.436 285.089 156.425 314.754 154.772 317.615C154.308 318.418 130.153 277.496 130.153 275.905C130.153 275.56 131.274 275.581 132.642 275.953C134.01 276.324 141.103 278.166 148.403 280.047ZM150.898 325.57C150.607 325.856 116.832 334.952 87.7158 342.583C78.6718 344.955 70.6276 346.895 69.8401 346.895C68.6202 346.895 58.2611 330.678 58.2611 328.77C58.2611 328.406 63.7492 318.551 70.4573 306.869L82.6524 285.63L116.917 305.46C135.762 316.366 151.054 325.416 150.898 325.57ZM178.664 288.087C183.749 289.527 188.275 291.121 188.721 291.628C189.168 292.136 190.811 297.36 192.375 303.238L195.218 313.925L190.613 315.14C188.08 315.808 179.791 318.039 172.193 320.097C164.595 322.155 158.001 323.84 157.539 323.84C156.063 323.84 156.502 321.464 161.348 303.255C164.834 290.155 166.537 285.421 167.756 285.441C168.67 285.456 173.578 286.646 178.664 288.087ZM314.173 287.336C318.08 300.579 323.764 323.052 323.318 323.495C322.711 324.098 288.172 315.228 286.043 313.922C285.162 313.381 285.641 310.027 287.696 302.367C289.288 296.43 290.762 291.403 290.972 291.194C291.598 290.573 309.722 285.614 311.745 285.51C312.768 285.457 313.861 286.28 314.173 287.336ZM412.848 303.676C418.795 313.72 423.693 322.736 423.733 323.712C423.851 326.644 411.806 346.846 409.925 346.872C408.983 346.885 391.563 342.448 371.214 337.015C350.865 331.581 333.595 327.134 332.834 327.134C332.074 327.133 331.465 326.763 331.482 326.31C331.512 325.523 399.799 285.58 401.307 285.468C401.707 285.439 406.901 293.632 412.848 303.676ZM214.212 297.527C224.249 300.118 232.832 302.55 233.284 302.932C233.736 303.314 226.088 305.745 216.289 308.336C206.489 310.927 198.112 312.634 197.674 312.13C196.924 311.268 192.091 294.33 192.091 292.565C192.091 292.115 192.961 291.986 194.027 292.281C195.092 292.576 204.174 294.936 214.212 297.527ZM287.21 293.139C287.21 296.263 282.375 312.861 281.465 312.861C278.91 312.861 246.372 303.627 246.936 303.062C247.462 302.536 283.822 292.439 286.38 292.108C286.837 292.05 287.21 292.513 287.21 293.139ZM261.261 310.195C271.578 312.957 280.346 315.551 280.744 315.959C281.369 316.603 278.136 329.489 272.225 349.914L270.557 355.677H240.211C212.428 355.677 209.781 355.515 208.868 353.756C207.518 351.152 198.316 316.188 198.853 315.699C199.903 314.744 236.132 305.376 239.14 305.281C240.989 305.223 250.943 307.435 261.261 310.195ZM200.962 334.779C203.589 344.457 205.485 352.629 205.175 352.936C204.865 353.245 194.31 347.502 181.717 340.175C169.126 332.848 159.033 326.645 159.288 326.392C160.085 325.602 194.82 316.413 195.521 316.807C195.887 317.012 198.336 325.1 200.962 334.779ZM304.622 321.759C314.503 324.413 322.591 326.902 322.595 327.289C322.607 328.39 274.895 355.896 274.188 355.195C273.666 354.677 276.282 344.166 283.038 319.635C283.607 317.566 284.613 316.185 285.35 316.456C286.069 316.719 294.741 319.106 304.622 321.759ZM149.926 336.19C148.712 340.569 146.967 346.744 146.047 349.914L144.375 355.677H109.085H73.7964L71.9626 352.899C70.9528 351.371 70.3201 349.961 70.5546 349.768C70.7891 349.574 84.4187 345.874 100.843 341.544C117.268 337.213 134.937 332.482 140.107 331.029C145.278 329.576 150.099 328.353 150.82 328.309C151.744 328.254 151.48 330.589 149.926 336.19ZM352.257 334.436C362.409 337.14 379.176 341.59 389.518 344.326C399.859 347.06 408.526 349.497 408.776 349.738C409.027 349.981 408.664 351.416 407.971 352.928L406.709 355.677H371.357C347.651 355.677 335.767 355.294 335.281 354.514C333.879 352.261 328.486 330.958 328.966 329.563C329.259 328.71 330.312 328.421 331.625 328.835C332.82 329.211 342.104 331.732 352.257 334.436ZM436.335 343.307C440.009 349.484 442.565 354.816 442.016 355.153C440.928 355.819 419.92 350.474 418.523 349.174C418.052 348.736 419.988 344.308 422.826 339.336C425.664 334.364 428.363 330.696 428.822 331.184C429.281 331.674 432.662 337.128 436.335 343.307ZM161.399 343.019C164.896 349.303 167.758 354.722 167.758 355.062C167.758 355.4 163.279 355.677 157.804 355.677C150.957 355.677 147.85 355.278 147.85 354.396C147.85 351.997 153.692 331.525 154.366 331.56C154.737 331.578 157.901 336.735 161.399 343.019ZM200.939 354.865C200.939 355.35 195.167 355.608 188.11 355.438L175.283 355.129L169.202 344.699C165.857 338.963 162.872 333.664 162.567 332.925C162.262 332.187 170.772 336.622 181.476 342.782C192.181 348.942 200.939 354.38 200.939 354.865ZM313.052 344.368L306.565 355.129L293.846 355.368C281.576 355.599 281.218 355.541 283.736 353.721C287.936 350.684 318.693 332.928 319.135 333.283C319.358 333.461 316.62 338.45 313.052 344.368ZM329.651 344.396C331.138 349.907 332.067 354.699 331.718 355.046C330.522 356.234 314.861 355.725 314.861 354.499C314.861 353.19 326.168 333.6 326.648 334.076C326.815 334.242 328.166 338.886 329.651 344.396ZM58.1781 341.442C60.0617 344.48 61.7218 347.498 61.8678 348.148C62.0127 348.798 58.0266 350.462 53.0074 351.845C47.9882 353.228 43.8827 354.119 43.8827 353.824C43.8827 352.378 53.5781 335.916 54.4309 335.916C54.6078 335.916 56.2945 338.403 58.1781 341.442ZM65.3729 354.704C65.0399 355.239 61.9762 355.677 58.5641 355.677C51.6426 355.677 51.6614 354.636 58.615 352.831C63.2072 351.638 66.6813 352.601 65.3729 354.704ZM422.445 353.151C427.922 354.249 426.852 355.677 420.552 355.677C416.165 355.677 414.403 355.258 414.403 354.214C414.403 352.064 415.712 351.127 417.664 351.878C418.607 352.241 420.76 352.814 422.445 353.151ZM142.32 362.896C142.32 363.847 138.38 379.039 133.565 396.655C128.751 414.271 124.235 430.848 123.53 433.49C122.826 436.137 121.834 437.863 121.324 437.333C120.359 436.329 77.0636 362.186 77.0636 361.537C77.0636 361.334 91.7462 361.167 109.692 361.167C138.647 361.167 142.32 361.361 142.32 362.896ZM182.979 380.894C189.208 391.745 194.302 401.008 194.301 401.479C194.299 402.462 127.421 441.31 125.732 441.31C125.123 441.31 124.623 440.722 124.623 440.002C124.623 438.827 140 381.225 144.129 366.931L145.795 361.167H158.725H171.657L182.979 380.894ZM211.633 374.341C213.615 381.285 215.256 387.717 215.278 388.634C215.309 389.925 206.702 395.652 200.781 398.279C200.367 398.462 196.435 392.287 192.042 384.556C187.649 376.824 182.821 368.384 181.313 365.8L178.57 361.101L193.299 361.408L208.029 361.716L211.633 374.341ZM225.855 368.437C232.814 372.436 238.263 376.1 237.965 376.58C237.244 377.738 220.131 387.515 218.825 387.515C218.008 387.515 210.894 364.516 210.894 361.874C210.894 360.245 213.865 361.548 225.855 368.437ZM263.375 362.108C261.482 363.803 242.788 374.341 241.673 374.341C240.499 374.341 219.742 362.264 219.742 361.581C219.742 361.353 229.796 361.167 242.084 361.167C254.576 361.167 263.962 361.582 263.375 362.108ZM302.694 361.676C302.694 362.422 282.955 395.472 281.861 396.557C281.042 397.37 268.339 391.091 265.767 388.602C264.83 387.696 266.38 380.14 270.21 366.931L271.882 361.167H287.288C295.762 361.167 302.694 361.396 302.694 361.676ZM335.73 367.205C340.119 382.41 355.405 439.711 355.158 440.025C354.914 440.332 288.52 402.296 287.347 401.176C286.966 400.813 301.693 375.052 307.887 365.247L310.51 361.093L322.328 361.405L334.146 361.716L335.73 367.205ZM401.829 362.834C401.474 363.752 396.656 372.275 391.121 381.772C385.587 391.271 375.994 407.808 369.804 418.522C363.613 429.236 358.3 438 357.996 437.997C357.692 437.995 354.748 427.994 351.455 415.773C348.161 403.553 343.558 386.553 341.224 377.995C338.89 369.438 336.981 362.15 336.981 361.801C336.981 361.452 351.717 361.167 369.727 361.167C398.567 361.167 402.396 361.365 401.829 362.834ZM265.65 374.552C264.002 380.776 262.502 386.028 262.316 386.222C261.705 386.865 245.2 377.103 245.47 376.259C245.814 375.186 267.679 362.275 268.229 362.819C268.459 363.047 267.299 368.327 265.65 374.552ZM251.436 383.295C256.816 386.409 261.314 389.016 261.433 389.089C261.55 389.162 258.508 400.818 254.671 414.991L247.697 440.761L240.744 441.093C236.921 441.274 233.345 440.98 232.798 440.438C231.479 439.128 218.503 391.672 219.258 390.922C219.745 390.439 240.938 377.808 241.482 377.676C241.577 377.653 246.056 380.182 251.436 383.295ZM272.555 395.653C276.357 397.907 279.467 400.221 279.467 400.796C279.467 401.371 277.561 404.916 275.23 408.677C272.9 412.436 267.561 421.316 263.367 428.411C257.18 438.879 255.268 441.31 253.227 441.31C251.843 441.31 250.711 440.725 250.711 440.011C250.711 438.826 262.239 395.478 263.449 392.112C263.734 391.318 264.345 390.869 264.805 391.112C265.265 391.356 268.753 393.399 272.555 395.653ZM223.115 416.683C226.548 429.322 228.986 440.083 228.533 440.596C226.314 443.102 222.845 438.772 212.715 420.853C204.978 407.167 202.16 401.234 203 400.401C205.102 398.314 214.733 393.034 215.819 393.374C216.398 393.554 219.681 404.044 223.115 416.683ZM206.838 422.428C212.11 431.668 216.424 439.697 216.424 440.269C216.424 440.906 200.564 441.31 175.5 441.31C152.993 441.31 134.577 440.937 134.577 440.482C134.577 439.198 195.877 404.004 196.607 404.868C196.962 405.287 201.565 413.19 206.838 422.428ZM318.634 422.098C335.372 431.759 349.085 440.034 349.107 440.487C349.129 440.94 329.986 441.31 306.565 441.31C282.417 441.31 263.983 440.888 263.983 440.333C263.983 439.482 278.971 413.416 283.502 406.386C284.402 404.991 285.827 404.003 286.67 404.191C287.514 404.378 301.898 412.437 318.634 422.098ZM231.972 449.71C233.67 454.144 232.51 455.502 230.427 451.52C228.284 447.421 228.191 446.8 229.724 446.8C230.346 446.8 231.358 448.109 231.972 449.71ZM245.18 448.589C245.18 451.986 240.387 467.73 239.614 466.873C238.9 466.082 234.12 449.264 234.12 447.548C234.12 447.137 236.609 446.8 239.65 446.8C244.025 446.8 245.18 447.174 245.18 448.589ZM251.782 447.623C251.727 448.928 246.298 457.352 246.299 456.131C246.3 452.796 248.814 446.8 250.21 446.8C251.093 446.8 251.801 447.17 251.782 447.623Z"/>
</mask>
<path fill-rule="evenodd" clip-rule="evenodd" d="M229.76 16.4679L220.423 32.9072H169.964H119.503L107.961 52.8257C101.613 63.7801 90.6468 82.6775 83.5914 94.8187L70.7637 116.893L51.793 117.194C41.3587 117.359 32.8312 117.853 32.8411 118.292C32.8522 118.73 36.8339 125.978 41.6894 134.4C46.546 142.82 50.5188 150.191 50.5188 150.781C50.5188 151.719 35.1638 178.401 7.62803 225.312C3.10767 233.014 -0.314391 240.031 0.022949 240.905C0.570435 242.319 24.4806 283.74 39.9761 310.116C43.1682 315.551 46.8922 322.016 48.2515 324.484L50.7235 328.97L41.7723 344.588C36.8505 353.178 32.8223 360.421 32.8223 360.686C32.8223 360.951 41.0003 361.167 50.9967 361.167H69.171L71.2581 364.186C72.4061 365.846 83.7297 385.114 96.4214 407.002L119.497 446.8H170.075H220.654L225.879 455.857C228.753 460.838 233.084 468.309 235.504 472.457L239.904 480L249.771 463.41L259.637 446.822L310.158 446.536L360.677 446.251L385.264 403.983L409.851 361.716L431.592 361.418C450.416 361.159 453.247 360.898 452.694 359.467C452.343 358.558 448.142 351.283 443.359 343.298C438.577 335.313 434.055 327.643 433.312 326.253C432.077 323.944 434.038 320.149 455.995 282.359C469.213 259.608 480.015 240.49 480 239.874C479.984 239.259 471.781 224.676 461.77 207.467C433.892 159.541 432.1 156.402 432.1 155.485C432.1 155.014 436.552 147.127 441.992 137.957C447.433 128.788 452.214 120.421 452.618 119.364C453.301 117.574 451.846 117.442 431.359 117.442H409.365L384.914 75.4492L360.463 33.4561L310.162 33.1707L259.86 32.8853L250.224 16.4284C244.924 7.37763 240.252 -0.0153461 239.843 2.39224e-05C239.432 0.0153939 234.896 7.42593 229.76 16.4679ZM244.472 29.8881C245.207 32.8468 245.122 32.9072 240.224 32.9072C237.311 32.9072 235.226 32.4011 235.226 31.693C235.226 30.3152 238.31 17.8457 239.27 15.3415C239.827 13.8879 242.006 19.9832 244.472 29.8881ZM248.963 25.9194C252.366 31.9642 252.471 32.9072 249.741 32.9072C248.127 32.9072 247.293 31.4438 245.997 26.3332C244.086 18.8041 244.893 18.6922 248.963 25.9194ZM233.722 26.9074C232.596 31.3043 231.821 32.4307 229.71 32.7349C227.21 33.0939 227.169 32.9983 228.785 30.5391C229.714 29.124 231.331 26.3157 232.378 24.2967C234.935 19.3717 235.414 20.3016 233.722 26.9074ZM160.721 58.2271C178.558 68.5294 193.372 77.3112 193.639 77.7415C193.907 78.1719 189.139 87.2808 183.043 97.9838L171.959 117.442H158.276H144.594L142.983 111.679C142.097 108.508 137.588 91.8347 132.961 74.6258C128.335 57.4169 124.285 42.4718 123.959 41.4156C122.618 37.0582 129.59 40.2464 160.721 58.2271ZM216.095 40.3178C214.708 42.8099 196.155 75.2187 195.985 75.4459C195.753 75.7588 135.992 41.2641 134.918 40.1981C134.528 39.8116 152.736 39.4944 175.381 39.4944C198.026 39.4944 216.347 39.8643 216.095 40.3178ZM229.696 40.5955C229.696 41.2015 227.767 48.7361 225.408 57.3378C223.05 65.9407 220.235 76.3286 219.152 80.4236C218.068 84.5186 216.887 87.7299 216.527 87.5597C216.166 87.3895 212.522 85.3618 208.429 83.053L200.988 78.8548L204.3 73.1723C206.122 70.0467 211.188 61.1913 215.557 53.4921C222.777 40.769 223.782 39.4944 226.598 39.4944C228.302 39.4944 229.696 39.9895 229.696 40.5955ZM247.79 41.4156C251.75 55.365 260.894 91.209 260.557 91.4692C260.312 91.658 255.993 94.1424 250.958 96.9881L241.805 102.164L230.773 95.9638C224.706 92.5538 219.742 89.167 219.742 88.4369C219.742 87.238 231.248 44.1493 232.445 40.8667C232.774 39.9621 235.379 39.4944 240.094 39.4944C245.958 39.4944 247.342 39.8402 247.79 41.4156ZM265.44 54.041C270.112 62.0422 275.43 71.116 277.261 74.2053L280.587 79.8242L272.692 84.3605C268.35 86.856 264.383 88.898 263.879 88.898C263.375 88.898 262.398 86.7989 261.708 84.2321C257.843 69.86 250.543 43.0657 250.04 41.4156C249.564 39.8501 250.149 39.4944 253.2 39.4944C256.841 39.4944 257.183 39.9017 265.44 54.041ZM347.459 40.9666C342.022 44.6356 287.42 75.7237 286.411 75.7237C285.788 75.7237 281.545 69.4253 276.98 61.726C272.415 54.0267 267.574 45.8762 266.223 43.6113L263.764 39.4944H306.702C342.957 39.4944 349.3 39.7238 347.459 40.9666ZM355.784 40.6361C355.784 41.2652 353.129 51.5159 349.885 63.4167C346.64 75.3186 342.037 92.342 339.654 101.248L335.322 117.439L322.603 117.438L309.883 117.436L298.663 98.5009C291.513 86.4355 287.819 79.1699 288.481 78.4749C289.704 77.1893 353.736 39.7348 354.954 39.5921C355.411 39.5383 355.784 40.0082 355.784 40.6361ZM131.917 79.8406L141.951 116.893L110.446 117.185C93.1188 117.346 78.7271 117.263 78.4639 117.003C77.9208 116.463 120.45 42.8231 121.318 42.8022C121.63 42.7945 126.399 59.4622 131.917 79.8406ZM372.698 66.3919C379.676 78.4683 389.147 94.7715 393.745 102.621L402.104 116.893L370.482 117.185C353.089 117.346 338.663 117.283 338.426 117.046C338.187 116.809 341.777 102.598 346.402 85.465C357.608 43.9659 358.075 42.4213 359.114 43.5015C359.606 44.0153 365.719 54.3154 372.698 66.3919ZM214.547 89.4238C216.238 90.6523 216.1 91.7996 212.809 103.826L209.234 116.893L194.094 117.199L178.954 117.504L187.858 101.829C192.755 93.2071 197.477 85.0214 198.352 83.6392L199.943 81.124L206.326 84.6076C209.836 86.5233 213.536 88.6905 214.547 89.4238ZM292.353 99.6175L302.472 116.893L286.945 117.199C278.406 117.367 271.215 117.302 270.967 117.055C270.005 116.102 264.076 92.8305 264.647 92.253C265.988 90.8961 280.098 82.4645 281.127 82.4052C281.735 82.3701 286.786 90.1155 292.353 99.6175ZM229.137 97.8027C234.42 100.889 238.324 103.813 237.813 104.303C235.715 106.312 215.305 117.442 213.717 117.442C211.543 117.442 211.491 117.991 214.83 105.514C218.213 92.8711 218.429 92.1916 219.05 92.1916C219.316 92.1916 223.855 94.7166 229.137 97.8027ZM265.08 105.692C266.949 112.325 267.621 116.325 266.862 116.292C264.821 116.203 245.967 104.895 245.898 103.719C245.824 102.428 259.646 94.2336 261.093 94.7122C261.636 94.8912 263.43 99.8326 265.08 105.692ZM252.238 111.13L262.324 116.893L252.151 117.208C246.555 117.382 237.226 117.382 231.418 117.208L220.859 116.893L231.084 111.145C236.708 107.983 241.5 105.39 241.731 105.381C241.963 105.372 246.691 107.959 252.238 111.13ZM66.0033 124.993C66.0033 127.903 62.8876 128.302 55.9727 126.279L48.8598 124.197L57.4315 124.113C62.1466 124.067 66.0033 124.463 66.0033 124.993ZM147.529 137.687C149.501 144.898 150.94 150.97 150.726 151.182C150.321 151.585 71.3012 130.698 70.5546 129.991C70.3201 129.769 70.9583 128.33 71.9726 126.793L73.8163 123.999L108.88 124.289L143.942 124.578L147.529 137.687ZM167.758 124.448C167.758 124.678 164.545 130.456 160.618 137.288C156.459 144.521 153.247 149.046 152.929 148.122C151.951 145.287 146.745 125.7 146.745 124.853C146.744 124.401 151.472 124.029 157.251 124.029C163.03 124.029 167.758 124.217 167.758 124.448ZM203.059 124.471C202.214 125.279 162.404 148.182 161.843 148.182C161.54 148.182 164.364 142.761 168.12 136.134L174.947 124.088L189.234 124.058C197.091 124.043 203.313 124.228 203.059 124.471ZM275.255 143.242C278.109 153.507 280.473 162.488 280.508 163.2C280.578 164.59 275.79 166.132 253.832 171.791L239.81 175.404L219.545 170.027C208.399 167.071 199.195 164.651 199.091 164.651C198.863 164.65 204.976 141.322 206.427 136.655C206.99 134.843 207.998 131.253 208.667 128.678L209.883 123.994L239.974 124.286L270.066 124.578L275.255 143.242ZM298.217 137.753C310.108 144.641 320.736 150.93 321.834 151.729C323.582 153.001 321.323 153.84 303.754 158.443C292.711 161.337 283.535 163.547 283.363 163.354C282.975 162.92 272.831 125.512 272.831 124.515C272.831 123.241 276.185 124.99 298.217 137.753ZM313.601 135.557C317.266 141.897 320.014 147.084 319.707 147.084C318.836 147.084 280.574 124.981 280.574 124.477C280.574 124.231 286.505 124.029 293.755 124.029H306.937L313.601 135.557ZM330.493 134.916C328.913 140.902 327.3 145.606 326.909 145.365C326.517 145.125 324.061 141.337 321.449 136.949C318.838 132.561 315.981 127.858 315.101 126.5L313.5 124.029H323.432H333.366L330.493 134.916ZM407.766 126.772C408.58 128.281 409.033 129.726 408.773 129.984C408.337 130.417 387.225 136.206 346.935 146.94C338.115 149.289 330.481 150.834 329.972 150.369C329.227 149.692 331.661 138.857 335.459 125.951C335.982 124.173 338.65 124.029 371.155 124.029H406.287L407.766 126.772ZM426.017 125.616C416.602 128.531 415.673 128.58 414.409 126.235C413.263 124.111 413.535 124.034 421.83 124.138C430.397 124.246 430.418 124.253 426.017 125.616ZM441.812 126.5C440.931 127.858 438.058 132.675 435.429 137.204C427.462 150.926 428.648 150.621 422.743 140.459C419.886 135.543 417.874 131.197 418.271 130.803C419.033 130.047 439.328 124.323 441.905 124.138C443.149 124.048 443.134 124.463 441.812 126.5ZM56.8785 129.118L62.6863 130.772L59.7454 135.909C54.5813 144.928 54.6244 144.928 49.5466 135.798C47.0404 131.291 44.9887 127.238 44.9887 126.794C44.9887 125.943 47.3855 126.412 56.8785 129.118ZM206.193 128.146C205.899 129.204 203.772 137.231 201.467 145.987C199.162 154.742 196.944 162.286 196.539 162.753C195.813 163.589 161.363 155.133 159.728 153.718C158.944 153.039 203.67 126.378 205.769 126.273C206.296 126.247 206.487 127.089 206.193 128.146ZM110.188 143.321C131.801 149.101 149.697 154.042 149.958 154.3C150.64 154.977 152.287 153.97 117.012 174.451C99.1389 184.829 83.9232 193.093 83.1977 192.817C82.1469 192.417 65.1483 163.788 59.4777 152.87C58.3772 150.75 58.8993 149.238 63.3599 141.617C66.1946 136.774 69.0493 132.812 69.703 132.812C70.3577 132.812 88.5752 137.541 110.188 143.321ZM418.044 144.273L424.451 155.696L413.086 175.013C405.174 188.463 401.253 194.152 400.178 193.742C395.602 192 331.639 154.162 332.312 153.597C332.751 153.227 349.535 148.604 369.609 143.322C389.684 138.04 406.316 133.515 406.569 133.266C406.823 133.016 408.067 132.821 409.334 132.831C411.104 132.845 413.124 135.499 418.044 144.273ZM177.989 161.463C187.57 163.997 195.409 166.456 195.409 166.928C195.409 168.208 190.028 187.924 189.548 188.399C188.828 189.114 166.135 195.242 165.722 194.832C164.634 193.753 155.623 157.803 156.206 156.867C156.578 156.268 157.713 156.02 158.726 156.316C159.74 156.613 168.409 158.929 177.989 161.463ZM324.367 157.789C324.038 158.846 321.766 167.12 319.316 176.178C316.866 185.235 314.658 193.187 314.408 193.849C313.905 195.184 292.49 190.122 290.658 188.234C289.678 187.225 283.633 166.671 284.189 166.24C284.33 166.13 291.413 164.21 299.929 161.972C308.446 159.735 316.658 157.484 318.179 156.973C322.92 155.374 325.03 155.653 324.367 157.789ZM66.4977 177.474C77.068 196.072 77.4153 196.892 75.3459 198.384C71.5478 201.121 9.05591 236.922 8.69203 236.57C8.36575 236.254 14.3262 225.824 39.7538 182.216C52.9908 159.515 53.8967 158.059 54.7572 158.09C55.1631 158.106 60.4466 166.828 66.4977 177.474ZM341.191 182.34C348.673 195.089 354.645 205.634 354.46 205.774C354.022 206.105 317.789 196.468 317.173 195.856C316.547 195.234 326.183 159.161 326.974 159.161C327.311 159.161 333.708 169.592 341.191 182.34ZM371.54 180.269C387.203 189.312 399.841 197.031 399.627 197.423C398.419 199.627 389.698 214.661 389.45 214.965C389.214 215.257 374.363 211.553 365.527 208.998C364.072 208.578 351.7 188.646 334.962 159.754C334.626 159.174 336.312 159.853 338.708 161.263C341.103 162.674 355.879 171.226 371.54 180.269ZM134.519 182.965C127.676 194.931 121.503 205.348 120.803 206.113C119.645 207.378 94.8121 214.602 94.2668 213.833C92.8334 211.813 84.8058 197.197 84.8058 196.608C84.8058 195.676 145.963 160.216 146.556 160.803C146.779 161.025 141.363 170.998 134.519 182.965ZM155.962 168.767C162.604 192.479 163.23 195.499 161.631 196.108C158.791 197.19 129.607 205.009 129.318 204.766C128.845 204.367 152.778 162.56 153.51 162.505C153.886 162.478 154.99 165.296 155.962 168.767ZM440.436 182.765C446.387 193.03 454.972 207.851 459.515 215.701C464.059 223.55 468.282 230.602 468.899 231.371C469.516 232.141 469.776 233.013 469.477 233.309C469.044 233.739 418.96 205.358 409.193 199.146C406.752 197.594 406.763 197.565 415.681 182.493C427.723 162.142 427.76 162.088 428.751 163.16C429.229 163.677 434.487 172.5 440.436 182.765ZM233.236 176.855C232.005 177.935 194.06 187.829 193.454 187.228C192.882 186.66 195.721 174.552 197.538 169.807L198.596 167.048L216.304 171.612C226.044 174.121 233.663 176.481 233.236 176.855ZM282.821 171.512C283.497 174.079 284.758 178.608 285.626 181.579C286.493 184.55 287 187.182 286.753 187.426C286.276 187.9 248.68 178.025 246.904 176.96C246.117 176.489 276.541 167.505 280.807 166.948C281.24 166.892 282.146 168.945 282.821 171.512ZM264.536 184.437C276.702 187.641 287.007 190.555 287.436 190.911C287.866 191.268 291.267 202.672 294.994 216.255L301.772 240.951L295.359 264.854L288.945 288.756L281.718 290.863C277.743 292.021 266.685 294.991 257.147 297.462L239.803 301.955L216.223 295.736C203.254 292.316 192.26 289.176 191.79 288.76C191.321 288.343 189.709 283.591 188.208 278.199C186.707 272.809 183.803 262.358 181.757 254.979L178.038 241.558L184.471 217.651C188.011 204.501 191.338 193.024 191.864 192.146C192.878 190.455 237.861 177.695 240.756 178.277C241.669 178.46 252.37 181.232 264.536 184.437ZM188.364 194.018C188.056 195.075 185.446 204.72 182.562 215.451C179.68 226.183 176.975 234.582 176.552 234.115C175.439 232.884 166.46 198.509 167.089 197.885C167.901 197.079 184.634 192.256 186.911 192.171C188.316 192.119 188.754 192.675 188.364 194.018ZM303.088 194.768C308.468 196.237 313.001 197.595 313.163 197.787C313.84 198.588 303.347 234.893 302.663 234.117C302.252 233.649 301.344 231.043 300.646 228.326C299.948 225.609 297.635 216.967 295.505 209.124C291.467 194.246 291.083 192.097 292.471 192.097C292.931 192.097 297.709 193.299 303.088 194.768ZM164.44 199.266C164.44 199.586 166.949 209.183 170.015 220.59L175.588 241.333L170.453 260.355C167.628 270.816 164.994 279.912 164.602 280.567C164.118 281.372 158.269 280.254 146.553 277.117C137.019 274.564 128.736 272.179 128.146 271.816C127.555 271.454 123.002 264.018 118.026 255.293L108.98 239.426L118.073 223.63L127.166 207.834L143.867 203.373C160.443 198.944 164.44 198.146 164.44 199.266ZM338.954 204.367L356.965 209.04L365.957 224.307C372.86 236.025 374.699 239.988 373.875 241.361C373.283 242.343 369.161 249.37 364.714 256.975L356.628 270.802L337.68 275.938C327.258 278.763 317.87 281.063 316.817 281.048C315.659 281.033 314.606 279.831 314.153 278.004C313.74 276.344 311.336 267.394 308.809 258.118L304.217 241.251L309.589 221.34C316.357 196.257 315.536 198.318 318.468 199.064C319.83 199.411 329.049 201.796 338.954 204.367ZM83.6047 207.563C86.09 211.843 88.1239 215.494 88.1239 215.676C88.1239 215.86 84.0172 217.093 78.9992 218.417C73.9811 219.741 58.9645 223.746 45.6302 227.316C32.2959 230.886 21.2046 233.627 20.9834 233.408C20.5631 232.992 77.0669 199.921 78.351 199.832C78.7547 199.805 81.1183 203.284 83.6047 207.563ZM464.194 234.709C463.331 235.007 396.715 217.547 395.822 216.789C395.641 216.634 397.764 212.79 400.543 208.248L405.593 199.99L435.393 217.177C451.783 226.63 464.743 234.519 464.194 234.709ZM117.987 211.222C117.987 211.92 106.884 230.933 105.866 231.982C105.379 232.482 102.962 229.28 100.496 224.865C98.0285 220.45 96.1736 216.677 96.3727 216.479C96.8339 216.02 114.763 211.071 116.604 210.893C117.365 210.821 117.987 210.969 117.987 211.222ZM377.227 214.584C382.634 216.069 387.218 217.443 387.414 217.638C387.83 218.051 379.106 232.717 378.445 232.717C378.201 232.717 375.907 229.136 373.345 224.758C370.784 220.38 367.968 215.687 367.086 214.328C365.106 211.276 365.185 211.278 377.227 214.584ZM95.6339 228.442C98.8027 233.941 101.396 238.927 101.396 239.523C101.396 241.443 89.8217 261.212 88.677 261.247C86.6828 261.309 11.279 241.203 10.3146 240.353C9.79806 239.897 12.0378 238.782 15.2917 237.874C37.8592 231.58 86.7691 218.597 88.1682 218.529C89.1957 218.478 92.1554 222.41 95.6339 228.442ZM429.335 228.393C447.584 233.266 464.507 237.885 466.94 238.658L471.364 240.062L465.281 241.82C452.261 245.582 396.602 260.163 395.309 260.151C394.557 260.144 392.336 257.303 390.373 253.838C388.411 250.373 385.721 245.723 384.397 243.504L381.989 239.469L387.931 229.506C391.199 224.027 394.386 219.541 395.014 219.538C395.641 219.535 411.085 223.52 429.335 228.393ZM58.0498 271.383C68.7219 277.523 76.9685 282.943 76.6865 283.632C74.9024 287.969 55.0149 321.077 54.2384 321.002C53.7142 320.95 50.9967 316.998 48.2017 312.219C31.202 283.152 8.48962 243.722 8.48962 243.275C8.48962 242.987 15.3338 246.714 23.6976 251.559C32.0625 256.404 47.5204 265.325 58.0498 271.383ZM465.022 245.416C464.678 245.759 453.023 252.601 439.123 260.623C425.223 268.644 412.048 276.279 409.844 277.591L405.838 279.977L401.273 272.349C398.762 268.153 396.707 264.257 396.707 263.691C396.707 263.125 408.278 259.595 422.422 255.847C436.566 252.099 451.373 248.118 455.327 247C462.797 244.889 466.097 244.349 465.022 245.416ZM69.5979 259.08C79.1784 261.667 87.0179 264.226 87.0179 264.767C87.0179 266.094 78.9649 279.925 78.1929 279.925C77.3623 279.925 22.576 248.163 21.3107 246.948C20.3408 246.017 32.9329 249.181 69.5979 259.08ZM383.385 253.751C385.895 258.073 387.556 261.966 387.074 262.4C385.78 263.568 366.915 268.285 366.235 267.609C365.776 267.154 377.914 245.892 378.634 245.892C378.736 245.892 380.873 249.429 383.385 253.751ZM449.722 281.134C438.711 300.093 429.312 316.01 428.834 316.505C428.076 317.29 407.767 284.33 407.767 282.313C407.767 281.467 468.874 245.799 469.412 246.333C469.594 246.513 460.734 262.174 449.722 281.134ZM112.627 258.005C117.124 265.873 118.405 268.947 117.185 268.947C114.742 268.947 97.7022 264.347 96.5829 263.385C95.6118 262.551 104.198 246.961 105.593 247.027C106.022 247.047 109.187 251.987 112.627 258.005ZM182.653 267.081C185.552 277.829 187.671 286.874 187.363 287.18C187.055 287.486 182.518 286.62 177.28 285.258C170.708 283.546 167.758 282.272 167.758 281.145C167.758 279.706 174.749 252.199 176.13 248.205C176.421 247.364 176.822 246.87 177.021 247.107C177.22 247.344 179.755 256.332 182.653 267.081ZM308.233 265.001C310.715 274.001 312.351 281.737 311.868 282.19C310.795 283.196 292.796 288.041 292.252 287.47C291.9 287.1 300.895 251.991 302.341 248.087C303.086 246.078 302.751 245.114 308.233 265.001ZM394.951 273.286C397.742 278.09 400.025 282.258 400.025 282.55C400.025 283.588 335.749 320.786 335.088 320.13C334.823 319.868 341.012 308.861 348.839 295.672L363.071 271.691L375.741 268.195C382.71 266.271 388.741 264.666 389.144 264.627C389.548 264.587 392.16 268.484 394.951 273.286ZM107.184 269.006C114.038 270.849 120.242 272.949 120.97 273.672C122.583 275.273 148.074 319.602 147.62 320.017C147.365 320.25 111.027 299.411 87.8651 285.749L83.7794 283.34L88.9778 274.496C91.838 269.633 94.3 265.653 94.4504 265.653C94.6009 265.653 100.331 267.162 107.184 269.006ZM353.572 275.08C353.572 276.139 326.587 321.574 326.192 321.181C325.28 320.276 316.088 284.927 316.626 284.394C317.251 283.774 349.718 274.804 352.189 274.568C352.95 274.495 353.572 274.726 353.572 275.08ZM148.403 280.047C155.702 281.928 162.106 283.863 162.634 284.35C163.436 285.089 156.425 314.754 154.772 317.615C154.308 318.418 130.153 277.496 130.153 275.905C130.153 275.56 131.274 275.581 132.642 275.953C134.01 276.324 141.103 278.166 148.403 280.047ZM150.898 325.57C150.607 325.856 116.832 334.952 87.7158 342.583C78.6718 344.955 70.6276 346.895 69.8401 346.895C68.6202 346.895 58.2611 330.678 58.2611 328.77C58.2611 328.406 63.7492 318.551 70.4573 306.869L82.6524 285.63L116.917 305.46C135.762 316.366 151.054 325.416 150.898 325.57ZM178.664 288.087C183.749 289.527 188.275 291.121 188.721 291.628C189.168 292.136 190.811 297.36 192.375 303.238L195.218 313.925L190.613 315.14C188.08 315.808 179.791 318.039 172.193 320.097C164.595 322.155 158.001 323.84 157.539 323.84C156.063 323.84 156.502 321.464 161.348 303.255C164.834 290.155 166.537 285.421 167.756 285.441C168.67 285.456 173.578 286.646 178.664 288.087ZM314.173 287.336C318.08 300.579 323.764 323.052 323.318 323.495C322.711 324.098 288.172 315.228 286.043 313.922C285.162 313.381 285.641 310.027 287.696 302.367C289.288 296.43 290.762 291.403 290.972 291.194C291.598 290.573 309.722 285.614 311.745 285.51C312.768 285.457 313.861 286.28 314.173 287.336ZM412.848 303.676C418.795 313.72 423.693 322.736 423.733 323.712C423.851 326.644 411.806 346.846 409.925 346.872C408.983 346.885 391.563 342.448 371.214 337.015C350.865 331.581 333.595 327.134 332.834 327.134C332.074 327.133 331.465 326.763 331.482 326.31C331.512 325.523 399.799 285.58 401.307 285.468C401.707 285.439 406.901 293.632 412.848 303.676ZM214.212 297.527C224.249 300.118 232.832 302.55 233.284 302.932C233.736 303.314 226.088 305.745 216.289 308.336C206.489 310.927 198.112 312.634 197.674 312.13C196.924 311.268 192.091 294.33 192.091 292.565C192.091 292.115 192.961 291.986 194.027 292.281C195.092 292.576 204.174 294.936 214.212 297.527ZM287.21 293.139C287.21 296.263 282.375 312.861 281.465 312.861C278.91 312.861 246.372 303.627 246.936 303.062C247.462 302.536 283.822 292.439 286.38 292.108C286.837 292.05 287.21 292.513 287.21 293.139ZM261.261 310.195C271.578 312.957 280.346 315.551 280.744 315.959C281.369 316.603 278.136 329.489 272.225 349.914L270.557 355.677H240.211C212.428 355.677 209.781 355.515 208.868 353.756C207.518 351.152 198.316 316.188 198.853 315.699C199.903 314.744 236.132 305.376 239.14 305.281C240.989 305.223 250.943 307.435 261.261 310.195ZM200.962 334.779C203.589 344.457 205.485 352.629 205.175 352.936C204.865 353.245 194.31 347.502 181.717 340.175C169.126 332.848 159.033 326.645 159.288 326.392C160.085 325.602 194.82 316.413 195.521 316.807C195.887 317.012 198.336 325.1 200.962 334.779ZM304.622 321.759C314.503 324.413 322.591 326.902 322.595 327.289C322.607 328.39 274.895 355.896 274.188 355.195C273.666 354.677 276.282 344.166 283.038 319.635C283.607 317.566 284.613 316.185 285.35 316.456C286.069 316.719 294.741 319.106 304.622 321.759ZM149.926 336.19C148.712 340.569 146.967 346.744 146.047 349.914L144.375 355.677H109.085H73.7964L71.9626 352.899C70.9528 351.371 70.3201 349.961 70.5546 349.768C70.7891 349.574 84.4187 345.874 100.843 341.544C117.268 337.213 134.937 332.482 140.107 331.029C145.278 329.576 150.099 328.353 150.82 328.309C151.744 328.254 151.48 330.589 149.926 336.19ZM352.257 334.436C362.409 337.14 379.176 341.59 389.518 344.326C399.859 347.06 408.526 349.497 408.776 349.738C409.027 349.981 408.664 351.416 407.971 352.928L406.709 355.677H371.357C347.651 355.677 335.767 355.294 335.281 354.514C333.879 352.261 328.486 330.958 328.966 329.563C329.259 328.71 330.312 328.421 331.625 328.835C332.82 329.211 342.104 331.732 352.257 334.436ZM436.335 343.307C440.009 349.484 442.565 354.816 442.016 355.153C440.928 355.819 419.92 350.474 418.523 349.174C418.052 348.736 419.988 344.308 422.826 339.336C425.664 334.364 428.363 330.696 428.822 331.184C429.281 331.674 432.662 337.128 436.335 343.307ZM161.399 343.019C164.896 349.303 167.758 354.722 167.758 355.062C167.758 355.4 163.279 355.677 157.804 355.677C150.957 355.677 147.85 355.278 147.85 354.396C147.85 351.997 153.692 331.525 154.366 331.56C154.737 331.578 157.901 336.735 161.399 343.019ZM200.939 354.865C200.939 355.35 195.167 355.608 188.11 355.438L175.283 355.129L169.202 344.699C165.857 338.963 162.872 333.664 162.567 332.925C162.262 332.187 170.772 336.622 181.476 342.782C192.181 348.942 200.939 354.38 200.939 354.865ZM313.052 344.368L306.565 355.129L293.846 355.368C281.576 355.599 281.218 355.541 283.736 353.721C287.936 350.684 318.693 332.928 319.135 333.283C319.358 333.461 316.62 338.45 313.052 344.368ZM329.651 344.396C331.138 349.907 332.067 354.699 331.718 355.046C330.522 356.234 314.861 355.725 314.861 354.499C314.861 353.19 326.168 333.6 326.648 334.076C326.815 334.242 328.166 338.886 329.651 344.396ZM58.1781 341.442C60.0617 344.48 61.7218 347.498 61.8678 348.148C62.0127 348.798 58.0266 350.462 53.0074 351.845C47.9882 353.228 43.8827 354.119 43.8827 353.824C43.8827 352.378 53.5781 335.916 54.4309 335.916C54.6078 335.916 56.2945 338.403 58.1781 341.442ZM65.3729 354.704C65.0399 355.239 61.9762 355.677 58.5641 355.677C51.6426 355.677 51.6614 354.636 58.615 352.831C63.2072 351.638 66.6813 352.601 65.3729 354.704ZM422.445 353.151C427.922 354.249 426.852 355.677 420.552 355.677C416.165 355.677 414.403 355.258 414.403 354.214C414.403 352.064 415.712 351.127 417.664 351.878C418.607 352.241 420.76 352.814 422.445 353.151ZM142.32 362.896C142.32 363.847 138.38 379.039 133.565 396.655C128.751 414.271 124.235 430.848 123.53 433.49C122.826 436.137 121.834 437.863 121.324 437.333C120.359 436.329 77.0636 362.186 77.0636 361.537C77.0636 361.334 91.7462 361.167 109.692 361.167C138.647 361.167 142.32 361.361 142.32 362.896ZM182.979 380.894C189.208 391.745 194.302 401.008 194.301 401.479C194.299 402.462 127.421 441.31 125.732 441.31C125.123 441.31 124.623 440.722 124.623 440.002C124.623 438.827 140 381.225 144.129 366.931L145.795 361.167H158.725H171.657L182.979 380.894ZM211.633 374.341C213.615 381.285 215.256 387.717 215.278 388.634C215.309 389.925 206.702 395.652 200.781 398.279C200.367 398.462 196.435 392.287 192.042 384.556C187.649 376.824 182.821 368.384 181.313 365.8L178.57 361.101L193.299 361.408L208.029 361.716L211.633 374.341ZM225.855 368.437C232.814 372.436 238.263 376.1 237.965 376.58C237.244 377.738 220.131 387.515 218.825 387.515C218.008 387.515 210.894 364.516 210.894 361.874C210.894 360.245 213.865 361.548 225.855 368.437ZM263.375 362.108C261.482 363.803 242.788 374.341 241.673 374.341C240.499 374.341 219.742 362.264 219.742 361.581C219.742 361.353 229.796 361.167 242.084 361.167C254.576 361.167 263.962 361.582 263.375 362.108ZM302.694 361.676C302.694 362.422 282.955 395.472 281.861 396.557C281.042 397.37 268.339 391.091 265.767 388.602C264.83 387.696 266.38 380.14 270.21 366.931L271.882 361.167H287.288C295.762 361.167 302.694 361.396 302.694 361.676ZM335.73 367.205C340.119 382.41 355.405 439.711 355.158 440.025C354.914 440.332 288.52 402.296 287.347 401.176C286.966 400.813 301.693 375.052 307.887 365.247L310.51 361.093L322.328 361.405L334.146 361.716L335.73 367.205ZM401.829 362.834C401.474 363.752 396.656 372.275 391.121 381.772C385.587 391.271 375.994 407.808 369.804 418.522C363.613 429.236 358.3 438 357.996 437.997C357.692 437.995 354.748 427.994 351.455 415.773C348.161 403.553 343.558 386.553 341.224 377.995C338.89 369.438 336.981 362.15 336.981 361.801C336.981 361.452 351.717 361.167 369.727 361.167C398.567 361.167 402.396 361.365 401.829 362.834ZM265.65 374.552C264.002 380.776 262.502 386.028 262.316 386.222C261.705 386.865 245.2 377.103 245.47 376.259C245.814 375.186 267.679 362.275 268.229 362.819C268.459 363.047 267.299 368.327 265.65 374.552ZM251.436 383.295C256.816 386.409 261.314 389.016 261.433 389.089C261.55 389.162 258.508 400.818 254.671 414.991L247.697 440.761L240.744 441.093C236.921 441.274 233.345 440.98 232.798 440.438C231.479 439.128 218.503 391.672 219.258 390.922C219.745 390.439 240.938 377.808 241.482 377.676C241.577 377.653 246.056 380.182 251.436 383.295ZM272.555 395.653C276.357 397.907 279.467 400.221 279.467 400.796C279.467 401.371 277.561 404.916 275.23 408.677C272.9 412.436 267.561 421.316 263.367 428.411C257.18 438.879 255.268 441.31 253.227 441.31C251.843 441.31 250.711 440.725 250.711 440.011C250.711 438.826 262.239 395.478 263.449 392.112C263.734 391.318 264.345 390.869 264.805 391.112C265.265 391.356 268.753 393.399 272.555 395.653ZM223.115 416.683C226.548 429.322 228.986 440.083 228.533 440.596C226.314 443.102 222.845 438.772 212.715 420.853C204.978 407.167 202.16 401.234 203 400.401C205.102 398.314 214.733 393.034 215.819 393.374C216.398 393.554 219.681 404.044 223.115 416.683ZM206.838 422.428C212.11 431.668 216.424 439.697 216.424 440.269C216.424 440.906 200.564 441.31 175.5 441.31C152.993 441.31 134.577 440.937 134.577 440.482C134.577 439.198 195.877 404.004 196.607 404.868C196.962 405.287 201.565 413.19 206.838 422.428ZM318.634 422.098C335.372 431.759 349.085 440.034 349.107 440.487C349.129 440.94 329.986 441.31 306.565 441.31C282.417 441.31 263.983 440.888 263.983 440.333C263.983 439.482 278.971 413.416 283.502 406.386C284.402 404.991 285.827 404.003 286.67 404.191C287.514 404.378 301.898 412.437 318.634 422.098ZM231.972 449.71C233.67 454.144 232.51 455.502 230.427 451.52C228.284 447.421 228.191 446.8 229.724 446.8C230.346 446.8 231.358 448.109 231.972 449.71ZM245.18 448.589C245.18 451.986 240.387 467.73 239.614 466.873C238.9 466.082 234.12 449.264 234.12 447.548C234.12 447.137 236.609 446.8 239.65 446.8C244.025 446.8 245.18 447.174 245.18 448.589ZM251.782 447.623C251.727 448.928 246.298 457.352 246.299 456.131C246.3 452.796 248.814 446.8 250.21 446.8C251.093 446.8 251.801 447.17 251.782 447.623Z" fill="#98A4D7" fill-opacity="0.5" stroke="#98A4D7" mask="url(#path-1-inside-1_302_1913)"/>
</svg>
