<svg width="35" height="35" viewBox="0 0 35 35" fill="#98a4d7" style="#FF0000" xmlns="http://www.w3.org/2000/svg">
<path d="M17.5 0C27.165 0 35 7.83502 35 17.5C35 27.165 27.165 35 17.5 35C7.83502 35 0 27.165 0 17.5C0 7.83502 7.83502 0 17.5 0ZM25.2727 10.5C24.606 10.5118 23.5831 10.863 18.6605 12.8844C16.9364 13.5923 13.4907 15.0577 8.32334 17.2803C7.48424 17.6098 7.04468 17.9321 7.00466 18.2472C6.92784 18.8522 7.8101 19.0405 8.92017 19.3968C9.8252 19.6872 11.0426 20.027 11.6755 20.0405C12.2496 20.0528 12.8904 19.8191 13.5978 19.3395C18.4258 16.122 20.9181 14.4956 21.0746 14.4606C21.185 14.4359 21.3379 14.4047 21.4416 14.4957C21.5452 14.5866 21.535 14.7589 21.524 14.8051C21.4363 15.1746 16.9009 19.2473 16.6399 19.5149L16.5147 19.6408C15.553 20.5907 14.5809 21.2109 16.2581 22.302C17.7724 23.2872 18.6538 23.9157 20.2138 24.9254C21.2108 25.5706 21.9925 26.3357 23.0218 26.2422C23.4955 26.1992 23.9847 25.7595 24.2332 24.448C24.8204 21.3488 25.9747 14.6337 26.2414 11.8665C26.2648 11.6241 26.2354 11.3138 26.2118 11.1776C26.1882 11.0414 26.1389 10.8474 25.9595 10.7037C25.7472 10.5336 25.4193 10.4977 25.2727 10.5Z" fill="#98A4D7"/>
</svg>
