<svg width="35" height="35" viewBox="0 0 35 35" fill="#98a4d7" xmlns="http://www.w3.org/2000/svg">
<path fill-rule="evenodd" clip-rule="evenodd" d="M0 17.5V35H17.5H35V17.5V0H17.5H0V17.5ZM14.9507 9.53229C18.0419 14.0362 18.5755 14.8094 18.5925 14.8094C18.6023 14.8094 18.6482 14.7626 18.6946 14.7055C18.7409 14.6483 18.7888 14.5906 18.8011 14.5773C18.8492 14.5249 19.0032 14.3456 19.898 13.3C19.9238 13.2699 20.0474 13.1272 20.1728 12.9828C20.2981 12.8384 20.743 12.3216 21.1615 11.8344C21.5801 11.3471 21.9692 10.8943 22.0263 10.8281C22.0834 10.762 22.2864 10.5257 22.4773 10.3031C22.6683 10.0805 22.9732 9.72617 23.1549 9.51562C23.3366 9.30508 23.7594 8.81289 24.0944 8.42188C24.4295 8.03086 24.7417 7.66909 24.7882 7.61797L24.8728 7.525H25.7266H26.5805L26.3884 7.74922C26.2827 7.87253 26.1862 7.98437 26.1739 7.99774C26.13 8.04547 25.3992 8.89661 25.0689 9.28476C25.0387 9.32022 24.9789 9.38912 24.9359 9.43788C24.8248 9.56395 24.2293 10.2562 23.6271 10.9594C23.3437 11.2902 23.1018 11.5719 23.0895 11.5853C23.0588 11.6188 22.9049 11.7972 22.4976 12.2719C22.3066 12.4945 21.9721 12.8833 21.7543 13.1359C21.5365 13.3886 21.1129 13.8813 20.8128 14.2308C20.5127 14.5803 20.0629 15.1038 19.8133 15.3942C19.5636 15.6846 19.3594 15.9288 19.3594 15.9368C19.3594 15.9549 19.3055 15.8755 20.3539 17.4016C22.7069 20.8264 23.3625 21.7809 25.1011 24.3141C26.1334 25.818 27.0314 27.1247 27.0967 27.218L27.2155 27.3875L24.321 27.387L21.4266 27.3866L21.3701 27.305C21.3391 27.2601 20.1494 25.5275 18.7263 23.4547C16.5344 20.262 16.1341 19.6902 16.1068 19.7129C16.089 19.7276 15.9648 19.8682 15.8308 20.0253C15.6968 20.1824 15.5142 20.3946 15.425 20.4969C15.3358 20.5991 15.242 20.7074 15.2164 20.7375C15.1909 20.7676 14.9338 21.0666 14.6451 21.402C14.3565 21.7375 14.0859 22.0537 14.0437 22.1047C13.9704 22.1935 13.0135 23.3056 12.5379 23.8547C12.4129 23.9991 12.2144 24.2304 12.0968 24.3687C11.9792 24.5071 11.6836 24.8516 11.4398 25.1344C11.1961 25.4171 10.794 25.8847 10.5462 26.1734C10.0824 26.7141 10.0476 26.7544 9.93256 26.8844C9.89531 26.9265 9.78399 27.0569 9.6852 27.1742L9.50561 27.3875H8.64485H7.78409L7.86518 27.2945C8.00933 27.1292 8.59458 26.4493 9.13235 25.8224C9.42086 25.4861 9.66696 25.2 9.67923 25.1866C9.71047 25.1527 10.2733 24.4979 10.6454 24.0627C10.6712 24.0325 10.8287 23.8497 10.9954 23.6564C11.1621 23.4631 11.4067 23.1789 11.5391 23.0248C11.6714 22.8707 11.7898 22.7335 11.8023 22.72C11.8147 22.7064 11.9716 22.523 12.151 22.3125C12.3304 22.102 12.5171 21.8849 12.5659 21.8302C12.6147 21.7756 12.7049 21.6722 12.7662 21.6006C13.0158 21.3092 13.6132 20.6136 13.6577 20.5625C13.6839 20.5324 13.8785 20.306 14.09 20.0594C14.3016 19.8127 14.6694 19.3845 14.9073 19.1078C15.1452 18.8311 15.3445 18.5927 15.3501 18.578C15.3558 18.5634 15.169 18.273 14.9352 17.9327C14.7013 17.5925 13.0501 15.1878 11.266 12.5891C9.48178 9.99031 7.96856 7.78776 7.90324 7.69453L7.78448 7.525L10.679 7.52526L13.5734 7.52552L14.9507 9.53229ZM10.1624 8.87561C10.1841 8.90879 10.7145 9.6693 11.341 10.5656C11.9675 11.462 13.0559 13.0195 13.7596 14.0268C14.4633 15.0341 15.5509 16.5907 16.1766 17.4859C16.8022 18.3811 18.4215 20.6993 19.775 22.6374L22.2359 26.1612L23.5453 26.1619C24.584 26.1624 24.8525 26.1569 24.8441 26.1352C24.8383 26.1201 24.5206 25.6599 24.138 25.1125C22.1684 22.2944 21.3898 21.1802 19.3 18.1891C18.0475 16.3964 16.0632 13.5565 14.8905 11.8781L12.7582 8.82656L11.4406 8.82092L10.1229 8.81528L10.1624 8.87561Z" fill="#98A4D7"/>
</svg>
