<svg width="35" height="36" viewBox="0 0 35 36" fill="#98a4d7" xmlns="http://www.w3.org/2000/svg">
<path fill-rule="evenodd" clip-rule="evenodd" d="M2.06818 0.755238C2.06818 0.912261 1.91116 0.993874 1.60952 0.993874C1.2845 0.993874 1.12652 1.08662 1.0675 1.31206C1.02184 1.48706 0.870228 1.63024 0.730864 1.63024C0.555228 1.63024 0.477273 1.77692 0.477273 2.10751C0.477273 2.42569 0.397727 2.58478 0.238636 2.58478C0.0281591 2.58478 0 4.40542 0 18.0166C0 31.6278 0.0281591 33.4484 0.238636 33.4484C0.395659 33.4484 0.477273 33.6054 0.477273 33.9071C0.477273 34.2321 0.570023 34.3901 0.795455 34.4491C0.970455 34.4948 1.11364 34.6464 1.11364 34.7857C1.11364 34.9614 1.26032 35.0393 1.59091 35.0393C1.90909 35.0393 2.06818 35.1189 2.06818 35.278C2.06818 35.4884 3.88882 35.5166 17.5 35.5166C31.1112 35.5166 32.9318 35.4884 32.9318 35.278C32.9318 35.1209 33.0888 35.0393 33.3905 35.0393C33.7155 35.0393 33.8735 34.9466 33.9325 34.7211C33.9782 34.5462 34.1298 34.403 34.2691 34.403C34.4448 34.403 34.5227 34.2563 34.5227 33.9257C34.5227 33.6075 34.6023 33.4484 34.7614 33.4484C34.9718 33.4484 35 31.6278 35 18.0166C35 4.40542 34.9718 2.58478 34.7614 2.58478C34.6023 2.58478 34.5227 2.42569 34.5227 2.10751C34.5227 1.77692 34.4448 1.63024 34.2691 1.63024C34.1298 1.63024 33.9782 1.48706 33.9325 1.31206C33.8735 1.08662 33.7155 0.993874 33.3905 0.993874C33.0888 0.993874 32.9318 0.912261 32.9318 0.755238C32.9318 0.544761 31.1112 0.516602 17.5 0.516602C3.88882 0.516602 2.06818 0.544761 2.06818 0.755238ZM14.7955 8.70978C14.7955 8.84103 14.9095 8.94842 15.049 8.94842C15.1884 8.94842 15.34 9.0916 15.3857 9.2666C15.4315 9.4416 15.568 9.58478 15.6891 9.58478C15.8275 9.58478 15.9091 9.76169 15.9091 10.0621C15.9091 10.3802 15.9886 10.5393 16.1477 10.5393C16.279 10.5393 16.3864 10.6489 16.3864 10.7829C16.3864 10.917 16.4895 11.0661 16.6153 11.1144C16.7411 11.1628 16.89 11.411 16.946 11.6663C17.0022 11.9215 17.1497 12.1302 17.2739 12.1302C17.3983 12.1302 17.5 12.2734 17.5 12.4484C17.5 12.6234 17.6017 12.7666 17.7261 12.7666C17.8503 12.7666 17.9992 12.9814 18.0568 13.2439C18.1144 13.5064 18.2633 13.7211 18.3876 13.7211C18.512 13.7211 18.6136 13.8643 18.6136 14.0393C18.6136 14.3833 18.6669 14.4029 19.2102 14.2573C19.4072 14.2045 19.5682 14.0622 19.5682 13.9412C19.5682 13.8203 19.6698 13.7211 19.7943 13.7211C19.9185 13.7211 20.0674 13.5064 20.125 13.2439C20.1826 12.9814 20.3315 12.7666 20.4557 12.7666C20.5802 12.7666 20.6818 12.6675 20.6818 12.5466C20.6818 12.4255 20.825 12.289 21 12.2432C21.175 12.1975 21.3182 12.0459 21.3182 11.9066C21.3182 11.767 21.4256 11.653 21.5568 11.653C21.6881 11.653 21.7955 11.5456 21.7955 11.4143C21.7955 11.2831 21.9028 11.1757 22.0341 11.1757C22.1666 11.1757 22.2727 11.0343 22.2727 10.8575C22.2727 10.6808 22.3788 10.5393 22.5114 10.5393C22.6426 10.5393 22.75 10.4319 22.75 10.3007C22.75 10.1694 22.8491 10.0621 22.97 10.0621C23.0911 10.0621 23.2276 9.91887 23.2734 9.74387C23.3191 9.56887 23.4707 9.42569 23.61 9.42569C23.7857 9.42569 23.8636 9.27901 23.8636 8.94842V8.47115H25.1364C26.1181 8.47115 26.4091 8.52174 26.4091 8.69276C26.4091 8.81462 26.3017 8.95558 26.1705 9.00601C26.0392 9.05628 25.9318 9.2071 25.9318 9.34122C25.9318 9.47517 25.8244 9.58478 25.6932 9.58478C25.5619 9.58478 25.4545 9.69217 25.4545 9.82342C25.4545 9.95467 25.3472 10.0621 25.2159 10.0621C25.0847 10.0621 24.976 10.1516 24.9746 10.2609C24.9712 10.5034 24.2844 11.1757 24.0401 11.1757C23.943 11.1757 23.8636 11.3905 23.8636 11.653C23.8636 11.9155 23.7843 12.1302 23.6872 12.1302C23.4428 12.1302 22.756 12.8026 22.7527 13.045C22.7513 13.1545 22.6426 13.2439 22.5114 13.2439C22.3801 13.2439 22.2727 13.3513 22.2727 13.4825C22.2727 13.6138 22.1653 13.7211 22.0341 13.7211C21.9028 13.7211 21.7955 13.8308 21.7955 13.9647C21.7955 14.0988 21.6881 14.2496 21.5568 14.2999C21.4256 14.3504 21.3182 14.4913 21.3182 14.6132C21.3182 14.735 21.175 14.8348 21 14.8348C20.7525 14.8348 20.6818 14.9409 20.6818 15.3121C20.6818 15.6302 20.6023 15.7893 20.4432 15.7893C20.3107 15.7893 20.2045 15.9308 20.2045 16.1075C20.2045 16.2843 20.3107 16.4257 20.4432 16.4257C20.6023 16.4257 20.6818 16.5848 20.6818 16.903C20.6818 17.2211 20.7614 17.3802 20.9205 17.3802C21.053 17.3802 21.1591 17.5217 21.1591 17.6984C21.1591 17.8734 21.2608 18.0166 21.3852 18.0166C21.5094 18.0166 21.6583 18.2314 21.7159 18.4939C21.7735 18.7564 21.9224 18.9711 22.0467 18.9711C22.1711 18.9711 22.2727 19.1143 22.2727 19.2893C22.2727 19.4661 22.3788 19.6075 22.5114 19.6075C22.6426 19.6075 22.75 19.7171 22.75 19.8511C22.75 19.9852 22.8531 20.1343 22.9789 20.1826C23.1048 20.231 23.2537 20.4792 23.3097 20.7345C23.3658 20.9897 23.5133 21.1984 23.6376 21.1984C23.762 21.1984 23.8636 21.3416 23.8636 21.5166C23.8636 21.6916 23.9653 21.8348 24.0897 21.8348C24.214 21.8348 24.3629 22.0496 24.4205 22.3121C24.478 22.5746 24.627 22.7893 24.7512 22.7893C24.8756 22.7893 24.9773 22.9325 24.9773 23.1075C24.9773 23.2843 25.0834 23.4257 25.2159 23.4257C25.375 23.4257 25.4545 23.5848 25.4545 23.903C25.4545 24.2211 25.5341 24.3802 25.6932 24.3802C25.8244 24.3802 25.9318 24.4876 25.9318 24.6189C25.9318 24.7501 26.0459 24.8575 26.1854 24.8575C26.3248 24.8575 26.4764 25.0007 26.522 25.1757C26.5679 25.3507 26.7044 25.4939 26.8254 25.4939C26.9638 25.4939 27.0455 25.6708 27.0455 25.9711C27.0455 26.2893 27.125 26.4484 27.2841 26.4484C27.4153 26.4484 27.5227 26.558 27.5227 26.692C27.5227 26.8261 27.6301 26.9769 27.7614 27.0272C27.8926 27.0776 28 27.2186 28 27.3404C28 27.5234 27.3625 27.5621 24.3409 27.5621C21.1944 27.5621 20.6818 27.5286 20.6818 27.3234C20.6818 27.1922 20.5744 27.0848 20.4432 27.0848C20.3119 27.0848 20.2045 26.9752 20.2045 26.8412C20.2045 26.7071 20.1015 26.558 19.9756 26.5097C19.8498 26.4613 19.7009 26.2131 19.6449 25.9578C19.5887 25.7026 19.4412 25.4939 19.317 25.4939C19.1926 25.4939 19.0909 25.3507 19.0909 25.1757C19.0909 25.0007 18.9893 24.8575 18.8648 24.8575C18.7406 24.8575 18.5931 24.6488 18.537 24.3936C18.481 24.1383 18.332 23.8901 18.2062 23.8417C18.0804 23.7934 17.9773 23.6443 17.9773 23.5102C17.9773 23.3762 17.8699 23.2666 17.7386 23.2666C17.6074 23.2666 17.5 23.1592 17.5 23.028C17.5 22.8967 17.4006 22.7893 17.279 22.7893C17.1525 22.7893 17.0135 22.5515 16.9537 22.2325C16.8912 21.8992 16.7563 21.6757 16.6178 21.6757C16.4906 21.6757 16.3864 21.5683 16.3864 21.4371C16.3864 21.278 16.2273 21.1984 15.9091 21.1984C15.5909 21.1984 15.4318 21.278 15.4318 21.4371C15.4318 21.5683 15.3327 21.6757 15.2118 21.6757C15.0907 21.6757 14.9542 21.8189 14.9084 21.9939C14.8628 22.1689 14.7111 22.3121 14.5718 22.3121C14.4322 22.3121 14.3182 22.4194 14.3182 22.5507C14.3182 22.6819 14.2108 22.7893 14.0795 22.7893C13.9465 22.7893 13.8409 22.9309 13.8409 23.1091C13.8409 23.2849 13.6977 23.5514 13.5227 23.7012C13.3477 23.8511 13.2045 24.0651 13.2045 24.1769C13.2045 24.2888 13.0972 24.3802 12.9659 24.3802C12.8347 24.3802 12.7273 24.4876 12.7273 24.6189C12.7273 24.7501 12.6199 24.8575 12.4886 24.8575C12.3574 24.8575 12.25 24.9716 12.25 25.1111C12.25 25.2505 12.1068 25.4021 11.9318 25.4477C11.7568 25.4936 11.6136 25.6301 11.6136 25.7511C11.6136 25.872 11.5063 25.9711 11.375 25.9711C11.2425 25.9711 11.1364 26.1126 11.1364 26.2893C11.1364 26.4643 11.0347 26.6075 10.9103 26.6075C10.786 26.6075 10.6371 26.8223 10.5795 27.0848L10.4747 27.5621H9.2147C8.20066 27.5621 7.95455 27.5154 7.95455 27.3234C7.95455 27.1922 8.06193 27.0848 8.19318 27.0848C8.32443 27.0848 8.43182 26.9707 8.43182 26.8312C8.43182 26.6918 8.575 26.5402 8.75 26.4946C8.925 26.4487 9.06818 26.3122 9.06818 26.1912C9.06818 26.0703 9.17557 25.9711 9.30682 25.9711C9.43934 25.9711 9.54545 25.8297 9.54545 25.653C9.54545 25.478 9.64711 25.3348 9.77152 25.3348C9.89577 25.3348 10.0447 25.12 10.1023 24.8575C10.1599 24.595 10.3088 24.3802 10.433 24.3802C10.5574 24.3802 10.6591 24.2729 10.6591 24.1416C10.6591 24.0104 10.7665 23.903 10.8977 23.903C11.0303 23.903 11.1364 23.7615 11.1364 23.5848C11.1364 23.408 11.2425 23.2666 11.375 23.2666C11.5063 23.2666 11.6136 23.1592 11.6136 23.028C11.6136 22.8954 11.7551 22.7893 11.9318 22.7893C12.1439 22.7893 12.25 22.6832 12.25 22.4711C12.25 22.2944 12.3561 22.153 12.4886 22.153C12.6199 22.153 12.7273 22.0456 12.7273 21.9143C12.7273 21.7831 12.8347 21.6757 12.9659 21.6757C13.0972 21.6757 13.2045 21.5683 13.2045 21.4371C13.2045 21.3058 13.3062 21.1984 13.4306 21.1984C13.5549 21.1984 13.7038 20.9836 13.7614 20.7211C13.819 20.4586 13.9679 20.2439 14.0921 20.2439C14.2165 20.2439 14.3182 20.1007 14.3182 19.9257C14.3182 19.7489 14.4243 19.6075 14.5568 19.6075C14.7159 19.6075 14.7955 19.4484 14.7955 19.1302C14.7955 18.8121 14.7159 18.653 14.5568 18.653C14.4243 18.653 14.3182 18.5115 14.3182 18.3348C14.3182 18.158 14.2121 18.0166 14.0795 18.0166C13.9483 18.0166 13.8409 17.907 13.8409 17.773C13.8409 17.6389 13.7378 17.4899 13.612 17.4415C13.4861 17.3931 13.3372 17.1449 13.2812 16.8896C13.2251 16.6344 13.0776 16.4257 12.9533 16.4257C12.8289 16.4257 12.7273 16.2825 12.7273 16.1075C12.7273 15.9325 12.6256 15.7893 12.5012 15.7893C12.377 15.7893 12.228 15.5746 12.1705 15.3121C12.1129 15.0496 11.964 14.8348 11.8397 14.8348C11.7153 14.8348 11.6136 14.6916 11.6136 14.5166C11.6136 14.3399 11.5075 14.1984 11.375 14.1984C11.2159 14.1984 11.1364 14.0393 11.1364 13.7211C11.1364 13.403 11.0568 13.2439 10.8977 13.2439C10.7665 13.2439 10.6591 13.1365 10.6591 13.0052C10.6591 12.874 10.5517 12.7666 10.4205 12.7666C10.2892 12.7666 10.1818 12.6525 10.1818 12.513C10.1818 12.3736 10.0386 12.222 9.86364 12.1764C9.63821 12.1174 9.54545 11.9594 9.54545 11.6344C9.54545 11.3327 9.46384 11.1757 9.30682 11.1757C9.17557 11.1757 9.06818 11.0661 9.06818 10.9321C9.06818 10.798 8.96509 10.6489 8.83925 10.6006C8.71341 10.5522 8.5645 10.304 8.5085 10.0487C8.45234 9.79351 8.30486 9.58478 8.18061 9.58478C8.0562 9.58478 7.95455 9.4416 7.95455 9.2666C7.95455 9.08985 7.84843 8.94842 7.71591 8.94842C7.58466 8.94842 7.47727 8.84103 7.47727 8.70978C7.47727 8.50456 7.98986 8.47115 11.1364 8.47115C14.2829 8.47115 14.7955 8.50456 14.7955 8.70978ZM11.1364 10.778C11.1364 10.9092 11.2437 11.0166 11.375 11.0166C11.5075 11.0166 11.6136 11.158 11.6136 11.3348C11.6136 11.5098 11.7153 11.653 11.8397 11.653C11.964 11.653 12.1129 11.8677 12.1705 12.1302C12.228 12.3927 12.377 12.6075 12.5012 12.6075C12.6256 12.6075 12.7273 12.7507 12.7273 12.9257C12.7273 13.1024 12.8334 13.2439 12.9659 13.2439C13.0972 13.2439 13.2045 13.3535 13.2045 13.4874C13.2045 13.6216 13.3076 13.7706 13.4335 13.819C13.5593 13.8674 13.7082 14.1155 13.7642 14.3709C13.8204 14.6261 13.9679 14.8348 14.0921 14.8348C14.2165 14.8348 14.3182 14.978 14.3182 15.153C14.3182 15.328 14.4198 15.4711 14.5443 15.4711C14.6685 15.4711 14.8174 15.6859 14.875 15.9484C14.9326 16.2109 15.0815 16.4257 15.2058 16.4257C15.3302 16.4257 15.4318 16.5689 15.4318 16.7439C15.4318 16.9206 15.5379 17.0621 15.6705 17.0621C15.8295 17.0621 15.9091 17.2211 15.9091 17.5393C15.9091 17.8575 15.9886 18.0166 16.1477 18.0166C16.279 18.0166 16.3864 18.1157 16.3864 18.2366C16.3864 18.3577 16.5295 18.4942 16.7045 18.54C16.8795 18.5857 17.0227 18.7373 17.0227 18.8766C17.0227 19.0162 17.1301 19.1302 17.2614 19.1302C17.4205 19.1302 17.5 19.2893 17.5 19.6075C17.5 19.9257 17.5795 20.0848 17.7386 20.0848C17.8699 20.0848 17.9773 20.1944 17.9773 20.3284C17.9773 20.4625 18.0804 20.6115 18.2062 20.6599C18.332 20.7083 18.481 20.9564 18.537 21.2118C18.5931 21.467 18.7406 21.6757 18.8648 21.6757C18.9893 21.6757 19.0909 21.8189 19.0909 21.9939C19.0909 22.1689 19.1926 22.3121 19.317 22.3121C19.4412 22.3121 19.5901 22.5268 19.6477 22.7893C19.7053 23.0518 19.8542 23.2666 19.9785 23.2666C20.1029 23.2666 20.2045 23.4098 20.2045 23.5848C20.2045 23.7615 20.3107 23.903 20.4432 23.903C20.5744 23.903 20.6818 24.0104 20.6818 24.1416C20.6818 24.2729 20.7813 24.3802 20.9028 24.3802C21.0293 24.3802 21.1683 24.6181 21.2281 24.9371L21.3327 25.4939H22.8367C24.0677 25.4939 24.3409 25.4506 24.3409 25.2552C24.3409 25.124 24.2335 25.0166 24.1023 25.0166C23.9698 25.0166 23.8636 24.8752 23.8636 24.6984C23.8636 24.5234 23.762 24.3802 23.6376 24.3802C23.5133 24.3802 23.3658 24.1715 23.3097 23.9163C23.2537 23.661 23.1048 23.4128 22.9789 23.3644C22.8531 23.3161 22.75 23.167 22.75 23.0329C22.75 22.8989 22.6426 22.7893 22.5114 22.7893C22.3788 22.7893 22.2727 22.6479 22.2727 22.4711C22.2727 22.2961 22.1711 22.153 22.0467 22.153C21.9224 22.153 21.7735 21.9382 21.7159 21.6757C21.6583 21.4132 21.5094 21.1984 21.3852 21.1984C21.2608 21.1984 21.1591 21.0552 21.1591 20.8802C21.1591 20.7035 21.053 20.5621 20.9205 20.5621C20.7614 20.5621 20.6818 20.403 20.6818 20.0848C20.6818 19.7666 20.6023 19.6075 20.4432 19.6075C20.3119 19.6075 20.2045 19.5001 20.2045 19.3689C20.2045 19.2376 20.1054 19.1302 19.9845 19.1302C19.8635 19.1302 19.727 18.9871 19.6811 18.8121C19.6355 18.6371 19.4839 18.4939 19.3445 18.4939C19.1689 18.4939 19.0909 18.3472 19.0909 18.0166C19.0909 17.6984 19.0114 17.5393 18.8523 17.5393C18.721 17.5393 18.6136 17.4297 18.6136 17.2958C18.6136 17.1616 18.5105 17.0126 18.3847 16.9642C18.2589 16.9159 18.11 16.6677 18.054 16.4123C17.9978 16.1571 17.8503 15.9484 17.7261 15.9484C17.6017 15.9484 17.5 15.8052 17.5 15.6302C17.5 15.4552 17.3983 15.3121 17.2739 15.3121C17.1497 15.3121 17.0008 15.0973 16.9432 14.8348C16.8856 14.5723 16.7367 14.3575 16.6124 14.3575C16.488 14.3575 16.3864 14.2143 16.3864 14.0393C16.3864 13.8626 16.2803 13.7211 16.1477 13.7211C16.0165 13.7211 15.9091 13.6138 15.9091 13.4825C15.9091 13.3513 15.8097 13.2439 15.6881 13.2439C15.5616 13.2439 15.4226 13.006 15.3628 12.6871C15.3002 12.3538 15.1653 12.1302 15.0269 12.1302C14.8997 12.1302 14.7955 12.0229 14.7955 11.8916C14.7955 11.7604 14.6881 11.653 14.5568 11.653C14.3998 11.653 14.3182 11.4959 14.3182 11.1943C14.3182 10.6295 14.0641 10.5444 12.3693 10.5416C11.3785 10.5398 11.1364 10.5863 11.1364 10.778Z" fill="#98A4D7"/>
</svg>
